<?xml version="1.0" encoding="UTF-8"?>
<svg xmlns="http://www.w3.org/2000/svg" xmlns:xlink="http://www.w3.org/1999/xlink" width="1280" height="720" viewBox="0 0 1280 720">
<defs>
<g>
<g id="glyph-0-0">
<path d="M 2.84375 -6.554688 L 2.84375 -5.691406 L 4.289062 -5.691406 L 4.289062 -6.554688 L 2.84375 -6.554688 M 2.84375 -5.238281 L 2.84375 -4.207031 L 4.289062 -4.207031 L 4.289062 -5.238281 L 2.84375 -5.238281 M 2.84375 -3.753906 L 2.84375 -2.679688 L 4.289062 -2.679688 L 4.289062 -3.753906 L 2.84375 -3.753906 M 2.019531 -7.011719 C 2.019531 -7.636719 2.007812 -8.226562 1.980469 -8.78125 L 3.175781 -8.117188 L 2.84375 -7.8125 L 2.84375 -7.011719 L 4.289062 -7.011719 C 4.289062 -7.445312 4.273438 -8.035156 4.246094 -8.78125 L 5.441406 -8.160156 L 5.113281 -7.855469 L 5.113281 -7.011719 L 5.046875 -7.011719 L 5.566406 -7.503906 L 6.390625 -6.554688 L 5.113281 -6.554688 L 5.113281 -2.679688 L 4.964844 -2.679688 L 5.484375 -3.175781 L 6.308594 -2.226562 L 1.707031 -2.226562 L 1.066406 -2.144531 L 0.660156 -2.679688 L 2.019531 -2.679688 L 2.019531 -6.554688 L 1.789062 -6.554688 L 1.152344 -6.472656 L 0.742188 -7.011719 L 2.019531 -7.011719 M 2.628906 -2.308594 L 3.546875 -1.46875 L 3.121094 -1.296875 C 2.386719 -0.421875 1.578125 0.269531 0.703125 0.785156 L 0.535156 0.539062 C 0.957031 0.128906 1.339844 -0.296875 1.679688 -0.730469 C 2.019531 -1.167969 2.339844 -1.695312 2.628906 -2.308594 M 4.011719 -2.144531 C 4.753906 -1.738281 5.183594 -1.460938 5.304688 -1.3125 C 5.425781 -1.160156 5.484375 -1.027344 5.484375 -0.90625 C 5.484375 -0.75 5.433594 -0.585938 5.332031 -0.417969 C 5.230469 -0.25 5.132812 -0.164062 5.03125 -0.164062 C 4.890625 -0.164062 4.769531 -0.300781 4.667969 -0.574219 C 4.535156 -0.917969 4.257812 -1.367188 3.835938 -1.929688 L 4.011719 -2.144531 M 7.214844 -7.503906 L 7.214844 -5.648438 L 8.988281 -5.648438 L 8.988281 -7.503906 L 7.214844 -7.503906 M 7.214844 -5.195312 C 7.214844 -4.535156 7.203125 -3.902344 7.175781 -3.296875 L 8.988281 -3.296875 L 8.988281 -5.195312 L 7.214844 -5.195312 M 7.503906 -0.328125 C 8.125 -0.21875 8.527344 -0.164062 8.714844 -0.164062 C 8.898438 -0.164062 8.988281 -0.273438 8.988281 -0.496094 L 8.988281 -2.84375 L 7.167969 -2.84375 C 7.113281 -1.933594 6.855469 -1.167969 6.390625 -0.550781 C 5.925781 0.0703125 5.308594 0.597656 4.539062 1.03125 L 4.371094 0.78125 C 4.847656 0.371094 5.238281 -0.0546875 5.535156 -0.503906 C 5.832031 -0.949219 6.050781 -1.472656 6.1875 -2.074219 C 6.324219 -2.675781 6.390625 -3.675781 6.390625 -5.074219 C 6.390625 -6.46875 6.378906 -7.570312 6.351562 -8.371094 L 7.132812 -7.957031 L 8.953125 -7.957031 L 9.285156 -8.410156 L 10.101562 -7.785156 L 9.8125 -7.453125 L 9.8125 -0.296875 C 9.839844 0.289062 9.457031 0.703125 8.660156 0.949219 C 8.660156 0.570312 8.273438 0.273438 7.503906 0.0546875 Z "/>
</g>
<g id="glyph-0-1">
<path d="M 2.269531 -8.632812 L 2.515625 -8.824219 C 3.078125 -8.414062 3.40625 -8.132812 3.496094 -7.984375 C 3.585938 -7.835938 3.628906 -7.714844 3.628906 -7.628906 C 3.628906 -7.460938 3.554688 -7.292969 3.410156 -7.132812 C 3.261719 -6.96875 3.15625 -6.886719 3.09375 -6.886719 C 2.90625 -6.886719 2.796875 -7.058594 2.761719 -7.402344 C 2.683594 -7.769531 2.519531 -8.179688 2.269531 -8.632812 M 1.648438 -4.042969 C 1.761719 -4.144531 1.828125 -4.3125 1.855469 -4.546875 L 1.855469 -6.433594 L 1.542969 -6.433594 L 0.945312 -6.351562 L 0.535156 -6.886719 L 4.019531 -6.886719 L 4.535156 -7.382812 L 5.359375 -6.433594 L 2.640625 -6.433594 L 2.640625 -4.496094 L 5.085938 -5.277344 L 5.152344 -4.914062 C 4.492188 -4.636719 3.894531 -4.359375 3.363281 -4.078125 C 2.828125 -3.796875 2.46875 -3.539062 2.28125 -3.296875 L 1.648438 -4.042969 M 6.308594 -7.464844 L 6.308594 -6.597656 L 8.578125 -6.597656 L 8.578125 -7.464844 L 6.308594 -7.464844 M 6.308594 -6.144531 C 6.308594 -6.109375 6.296875 -5.835938 6.269531 -5.320312 L 8.578125 -5.320312 L 8.578125 -6.144531 L 6.308594 -6.144531 M 7.132812 -4.246094 C 7.765625 -4.164062 8.164062 -4.125 8.328125 -4.125 C 8.496094 -4.125 8.578125 -4.21875 8.578125 -4.410156 L 8.578125 -4.867188 L 6.210938 -4.867188 C 6.105469 -4.011719 5.363281 -3.296875 3.992188 -2.722656 L 3.835938 -2.984375 C 4.453125 -3.363281 4.875 -3.746094 5.101562 -4.132812 C 5.328125 -4.523438 5.457031 -5.027344 5.484375 -5.65625 C 5.511719 -6.28125 5.511719 -7.1875 5.484375 -8.371094 L 6.234375 -7.917969 L 8.546875 -7.917969 L 8.929688 -8.371094 L 9.691406 -7.6875 L 9.359375 -7.398438 L 9.359375 -4.175781 C 9.386719 -3.667969 9.03125 -3.320312 8.289062 -3.132812 C 8.316406 -3.476562 7.929688 -3.714844 7.132812 -3.851562 L 7.132812 -4.246094 M 1.113281 -2.84375 L 8.183594 -2.84375 L 8.78125 -3.421875 L 9.691406 -2.390625 L 5.730469 -2.390625 L 5.730469 -1.441406 L 7.441406 -1.441406 L 8 -1.980469 L 8.867188 -0.988281 L 5.730469 -0.988281 L 5.730469 0.164062 L 8.554688 0.164062 L 9.234375 -0.496094 L 10.226562 0.617188 L 2.019531 0.617188 C 1.675781 0.617188 1.332031 0.660156 0.992188 0.742188 L 0.535156 0.164062 L 4.90625 0.164062 L 4.90625 -0.988281 L 3.296875 -0.988281 C 2.953125 -0.988281 2.609375 -0.949219 2.269531 -0.867188 L 1.8125 -1.441406 L 4.90625 -1.441406 L 4.90625 -2.390625 L 2.597656 -2.390625 C 2.25 -2.390625 1.910156 -2.351562 1.570312 -2.269531 Z "/>
</g>
<g id="glyph-0-2">
<path d="M 0.617188 -2.269531 L 6.246094 -2.269531 L 6.84375 -2.84375 L 7.753906 -1.8125 L 2.0625 -1.8125 C 1.742188 -1.8125 1.414062 -1.773438 1.074219 -1.691406 L 0.617188 -2.269531 M 2.804688 -4.441406 C 2.914062 -6.101562 2.976562 -7.109375 2.988281 -7.464844 C 3.003906 -7.820312 3.011719 -8.273438 3.011719 -8.824219 L 4.207031 -8.246094 L 3.871094 -7.933594 L 3.792969 -6.554688 L 8.429688 -6.554688 L 9.027344 -7.132812 L 9.9375 -6.101562 L 3.785156 -6.101562 L 3.667969 -4.371094 L 8.332031 -4.371094 L 8.703125 -4.90625 L 9.609375 -4.238281 L 9.230469 -3.859375 C 9.179688 -2.863281 9.09375 -1.980469 8.984375 -1.214844 C 8.871094 -0.445312 8.660156 0.078125 8.351562 0.355469 C 8.046875 0.636719 7.597656 0.832031 7.011719 0.949219 C 7.039062 0.570312 6.582031 0.242188 5.648438 -0.0351562 L 5.710938 -0.453125 C 6.394531 -0.289062 6.9375 -0.207031 7.332031 -0.207031 C 7.730469 -0.207031 7.996094 -0.601562 8.128906 -1.390625 C 8.261719 -2.175781 8.34375 -3.019531 8.371094 -3.917969 L 3.644531 -3.917969 L 3.277344 -3.503906 L 2.472656 -4.101562 Z "/>
</g>
<g id="glyph-0-3">
<path d="M 0.453125 -6.679688 L 8.71875 -6.679688 L 9.398438 -7.339844 L 10.390625 -6.226562 L 5.3125 -6.226562 C 5.289062 -5.769531 5.222656 -5.234375 5.113281 -4.617188 L 7.605469 -4.617188 L 8.078125 -5.070312 L 8.867188 -4.296875 L 8.445312 -4.007812 C 8.171875 -1.921875 7.980469 -0.679688 7.863281 -0.277344 C 7.75 0.125 7.566406 0.40625 7.3125 0.570312 C 7.0625 0.734375 6.683594 0.875 6.175781 0.988281 C 6.054688 0.527344 5.59375 0.128906 4.78125 -0.210938 L 4.851562 -0.578125 C 5.679688 -0.328125 6.195312 -0.203125 6.398438 -0.203125 C 6.605469 -0.207031 6.757812 -0.246094 6.859375 -0.324219 C 6.964844 -0.402344 7.070312 -0.730469 7.175781 -1.308594 C 7.285156 -1.886719 7.421875 -2.839844 7.585938 -4.164062 L 5.046875 -4.164062 C 4.585938 -1.796875 3.1875 -0.09375 0.847656 0.949219 L 0.699219 0.640625 C 3.175781 -0.773438 4.410156 -3.0625 4.410156 -6.226562 L 1.9375 -6.226562 C 1.59375 -6.226562 1.25 -6.183594 0.910156 -6.101562 L 0.453125 -6.679688 M 4.476562 -8.742188 C 5.292969 -8.421875 5.769531 -8.15625 5.902344 -7.949219 C 6.035156 -7.742188 6.101562 -7.582031 6.101562 -7.464844 C 6.101562 -7.328125 6.039062 -7.171875 5.90625 -6.992188 C 5.777344 -6.8125 5.675781 -6.722656 5.609375 -6.722656 C 5.4375 -6.722656 5.289062 -6.902344 5.15625 -7.269531 C 5 -7.652344 4.726562 -8.054688 4.328125 -8.46875 Z "/>
</g>
<g id="glyph-0-4">
<path d="M 2.640625 -8.507812 L 2.789062 -8.78125 C 3.605469 -8.460938 4.074219 -8.210938 4.191406 -8.035156 C 4.3125 -7.855469 4.371094 -7.707031 4.371094 -7.585938 C 4.371094 -7.429688 4.328125 -7.273438 4.242188 -7.117188 C 4.15625 -6.964844 4.0625 -6.886719 3.957031 -6.886719 C 3.820312 -6.886719 3.699219 -7.015625 3.601562 -7.28125 C 3.441406 -7.628906 3.121094 -8.039062 2.640625 -8.507812 M 5.5 -6.472656 C 5.40625 -6.019531 5.316406 -5.675781 5.238281 -5.441406 L 7.730469 -5.441406 L 8.328125 -6.019531 L 9.238281 -4.988281 L 5.164062 -4.988281 C 5.070312 -4.660156 4.929688 -4.316406 4.742188 -3.957031 L 8.429688 -3.957031 L 9.152344 -4.660156 L 10.183594 -3.503906 L 4.609375 -3.503906 C 3.769531 -1.933594 2.4375 -0.65625 0.617188 0.328125 L 0.535156 0.0195312 C 2.003906 -1.011719 3.101562 -2.183594 3.835938 -3.503906 L 1.707031 -3.503906 L 1.066406 -3.421875 L 0.660156 -3.957031 L 3.945312 -3.957031 C 4.09375 -4.328125 4.234375 -4.671875 4.371094 -4.988281 L 2.699219 -4.988281 L 2.097656 -4.90625 L 1.691406 -5.441406 L 4.429688 -5.441406 C 4.527344 -5.835938 4.605469 -6.179688 4.660156 -6.472656 L 2.203125 -6.472656 L 1.5625 -6.390625 L 1.15625 -6.925781 L 6.222656 -6.925781 C 6.691406 -7.816406 6.960938 -8.472656 7.035156 -8.90625 L 8.164062 -8.15625 C 7.851562 -8.109375 7.355469 -7.699219 6.679688 -6.925781 L 8.386719 -6.925781 L 9.070312 -7.585938 L 10.0625 -6.472656 L 5.5 -6.472656 M 3.546875 -2.308594 L 7.730469 -2.308594 L 8.285156 -2.84375 L 9.152344 -1.855469 L 6.597656 -1.855469 L 6.597656 0.0820312 L 8.636719 0.0820312 L 9.277344 -0.535156 L 10.226562 0.535156 L 3.503906 0.535156 C 3.160156 0.535156 2.816406 0.578125 2.476562 0.660156 L 2.019531 0.0820312 L 5.773438 0.0820312 L 5.773438 -1.855469 L 4.464844 -1.855469 L 3.957031 -1.773438 Z "/>
</g>
<g id="glyph-0-5">
<path d="M 2.101562 -6.226562 L 2.101562 -3.792969 L 4 -3.792969 L 4 -6.226562 L 2.101562 -6.226562 M 2.101562 -3.339844 L 2.101562 -0.660156 L 4 -0.660156 L 4 -3.339844 L 2.101562 -3.339844 M 4.78125 -6.039062 C 4.78125 -2.820312 4.796875 -0.714844 4.824219 0.277344 L 4 0.660156 L 4 -0.207031 L 2.101562 -0.207031 L 2.101562 0.441406 L 1.277344 0.824219 C 1.304688 -0.550781 1.320312 -1.875 1.320312 -3.152344 C 1.320312 -4.429688 1.304688 -5.742188 1.277344 -7.09375 L 2.0625 -6.679688 L 2.332031 -6.679688 C 2.589844 -7.566406 2.738281 -8.296875 2.773438 -8.867188 L 3.917969 -8.222656 C 3.621094 -8.039062 3.25 -7.523438 2.804688 -6.679688 L 3.976562 -6.679688 L 4.453125 -7.132812 L 5.195312 -6.363281 L 4.78125 -6.039062 M 6.585938 -8.824219 L 7.710938 -8.148438 C 7.472656 -7.964844 7.128906 -7.433594 6.679688 -6.554688 L 8.71875 -6.554688 L 9.234375 -7.050781 L 9.980469 -6.285156 L 9.605469 -5.957031 C 9.550781 -2.769531 9.472656 -0.953125 9.375 -0.511719 C 9.273438 -0.0703125 9.128906 0.238281 8.933594 0.417969 C 8.738281 0.597656 8.402344 0.761719 7.917969 0.90625 C 7.769531 0.453125 7.300781 0.113281 6.515625 -0.113281 L 6.515625 -0.535156 C 7.292969 -0.371094 7.808594 -0.289062 8.070312 -0.289062 C 8.332031 -0.289062 8.496094 -0.511719 8.5625 -0.953125 C 8.625 -1.398438 8.6875 -3.113281 8.742188 -6.101562 L 6.542969 -6.101562 C 6.066406 -5.335938 5.523438 -4.660156 4.921875 -4.082031 L 4.660156 -4.246094 C 5.242188 -5.171875 5.667969 -5.972656 5.941406 -6.660156 C 6.214844 -7.34375 6.429688 -8.066406 6.585938 -8.824219 M 5.902344 -4.78125 C 6.65625 -4.234375 7.09375 -3.835938 7.207031 -3.589844 C 7.324219 -3.34375 7.382812 -3.164062 7.382812 -3.050781 C 7.382812 -2.832031 7.316406 -2.640625 7.183594 -2.472656 C 7.050781 -2.308594 6.9375 -2.226562 6.84375 -2.226562 C 6.664062 -2.226562 6.539062 -2.460938 6.472656 -2.925781 C 6.367188 -3.441406 6.121094 -3.972656 5.730469 -4.519531 Z "/>
</g>
<g id="glyph-0-6">
<path d="M 5.667969 -8.867188 L 6.804688 -8.234375 L 6.445312 -7.953125 C 6.265625 -7.539062 6.066406 -7.128906 5.855469 -6.722656 L 9.117188 -6.722656 L 9.453125 -7.175781 L 10.265625 -6.5 L 9.976562 -6.207031 C 9.835938 -2.847656 9.652344 -0.871094 9.425781 -0.28125 C 9.195312 0.308594 8.609375 0.691406 7.667969 0.867188 C 7.722656 0.429688 7.351562 0.0703125 6.554688 -0.207031 L 6.621094 -0.578125 C 7.414062 -0.386719 7.914062 -0.289062 8.128906 -0.289062 C 8.339844 -0.289062 8.519531 -0.460938 8.675781 -0.808594 C 8.828125 -1.15625 8.988281 -2.976562 9.152344 -6.269531 L 8.601562 -6.269531 C 8.332031 -4.394531 7.824219 -2.933594 7.066406 -1.886719 C 6.3125 -0.839844 5.332031 -0.00390625 4.121094 0.617188 L 3.957031 0.363281 C 5.039062 -0.425781 5.882812 -1.328125 6.480469 -2.335938 C 7.082031 -3.347656 7.503906 -4.65625 7.753906 -6.269531 L 7.105469 -6.269531 C 6.648438 -4.40625 5.628906 -2.855469 4.054688 -1.609375 L 3.875 -1.847656 C 5.171875 -3.324219 5.96875 -4.796875 6.269531 -6.269531 L 5.71875 -6.269531 C 5.214844 -5.394531 4.71875 -4.707031 4.222656 -4.207031 L 3.957031 -4.367188 C 4.457031 -5.207031 4.847656 -6.03125 5.136719 -6.839844 C 5.421875 -7.648438 5.601562 -8.324219 5.667969 -8.867188 M 3.421875 -3.628906 L 4.667969 -4.164062 L 4.742188 -3.8125 L 3.421875 -3.0625 C 3.421875 -1.292969 3.4375 -0.0546875 3.464844 0.65625 L 2.597656 0.988281 C 2.625 0.328125 2.640625 -0.921875 2.640625 -2.761719 C 1.820312 -2.34375 1.332031 -2 1.175781 -1.730469 L 0.578125 -2.601562 C 1.097656 -2.730469 1.785156 -2.980469 2.640625 -3.339844 L 2.640625 -5.648438 L 1.769531 -5.648438 C 1.488281 -5.03125 1.125 -4.425781 0.691406 -3.835938 L 0.414062 -3.992188 C 0.714844 -4.664062 0.957031 -5.371094 1.132812 -6.113281 C 1.3125 -6.855469 1.402344 -7.457031 1.402344 -7.917969 L 2.597656 -7.335938 L 2.203125 -7.011719 C 2.097656 -6.722656 1.984375 -6.417969 1.855469 -6.101562 L 2.640625 -6.101562 C 2.640625 -7.363281 2.625 -8.269531 2.597656 -8.824219 L 3.792969 -8.292969 L 3.421875 -7.9375 L 3.421875 -6.101562 L 3.519531 -6.101562 L 4.039062 -6.640625 L 4.824219 -5.648438 L 3.421875 -5.648438 Z "/>
</g>
<g id="glyph-0-7">
<path d="M 0.535156 -1.113281 C 1.40625 -1.351562 1.96875 -1.519531 2.226562 -1.613281 L 2.226562 -4.207031 L 2.144531 -4.207031 C 1.796875 -4.207031 1.457031 -4.164062 1.117188 -4.082031 L 0.660156 -4.660156 L 2.226562 -4.660156 L 2.226562 -6.96875 L 2.0625 -6.96875 C 1.714844 -6.96875 1.371094 -6.925781 1.035156 -6.84375 L 0.578125 -7.421875 L 3.234375 -7.421875 L 3.792969 -7.957031 L 4.617188 -6.96875 L 3.011719 -6.96875 L 3.011719 -4.660156 L 3.234375 -4.660156 L 3.792969 -5.195312 L 4.617188 -4.207031 L 3.011719 -4.207031 L 3.011719 -1.855469 L 4.671875 -2.433594 L 4.742188 -2.070312 C 3.652344 -1.578125 2.589844 -1.074219 1.558594 -0.558594 L 1.132812 -0.207031 L 0.535156 -1.113281 M 4.617188 -2.96875 C 4.644531 -3.929688 4.660156 -4.824219 4.660156 -5.648438 C 4.660156 -6.46875 4.644531 -7.363281 4.617188 -8.328125 L 5.324219 -7.917969 L 8.628906 -7.917969 L 8.964844 -8.328125 L 9.730469 -7.691406 L 9.402344 -7.398438 L 9.402344 -5.527344 C 9.402344 -4.625 9.414062 -3.910156 9.441406 -3.382812 L 8.660156 -3.09375 L 8.660156 -3.585938 L 7.421875 -3.585938 L 7.421875 -2.019531 L 8.429688 -2.019531 L 8.992188 -2.554688 L 9.8125 -1.566406 L 7.421875 -1.566406 L 7.421875 -0.0820312 L 8.964844 -0.0820312 L 9.566406 -0.660156 L 10.433594 0.371094 L 4.699219 0.371094 C 4.355469 0.371094 4.011719 0.414062 3.671875 0.496094 L 3.214844 -0.0820312 L 6.679688 -0.0820312 L 6.679688 -1.566406 L 5.898438 -1.566406 C 5.550781 -1.566406 5.207031 -1.527344 4.867188 -1.441406 L 4.410156 -2.019531 L 6.679688 -2.019531 L 6.679688 -3.585938 L 5.402344 -3.585938 L 5.402344 -3.214844 L 4.617188 -2.96875 M 5.402344 -7.464844 L 5.402344 -6.019531 L 6.679688 -6.019531 L 6.679688 -7.464844 L 5.402344 -7.464844 M 7.421875 -7.464844 L 7.421875 -6.019531 L 8.660156 -6.019531 L 8.660156 -7.464844 L 7.421875 -7.464844 M 5.402344 -5.566406 L 5.402344 -4.039062 L 6.679688 -4.039062 L 6.679688 -5.566406 L 5.402344 -5.566406 M 7.421875 -5.566406 L 7.421875 -4.039062 L 8.660156 -4.039062 L 8.660156 -5.566406 Z "/>
</g>
<g id="glyph-0-8">
<path d="M 3.382812 -5.648438 L 3.382812 -4.699219 L 7.421875 -4.699219 L 7.421875 -5.648438 L 3.382812 -5.648438 M 3.382812 -4.246094 L 3.382812 -3.214844 L 7.421875 -3.214844 L 7.421875 -4.246094 L 3.382812 -4.246094 M 3.382812 -2.761719 L 3.382812 -1.691406 L 7.421875 -1.691406 L 7.421875 -2.761719 L 3.382812 -2.761719 M 3.382812 -1.238281 L 3.382812 -0.125 L 7.421875 -0.125 L 7.421875 -1.238281 L 3.382812 -1.238281 M 1.03125 -7.421875 L 4.957031 -7.421875 C 5.003906 -7.921875 5.046875 -8.402344 5.082031 -8.867188 L 6.269531 -8.230469 L 5.886719 -7.960938 L 5.773438 -7.421875 L 8.261719 -7.421875 L 8.910156 -8.082031 L 9.773438 -6.96875 L 5.710938 -6.96875 L 5.527344 -6.101562 L 7.425781 -6.101562 L 7.757812 -6.597656 L 8.578125 -5.96875 L 8.246094 -5.632812 L 8.246094 -0.125 L 8.679688 -0.125 L 9.410156 -0.785156 L 10.308594 0.328125 L 1.929688 0.328125 C 1.585938 0.300781 1.246094 0.328125 0.910156 0.414062 L 0.496094 -0.125 L 2.554688 -0.125 C 2.554688 -3.582031 2.542969 -5.726562 2.515625 -6.554688 L 3.304688 -6.101562 L 4.753906 -6.101562 L 4.90625 -6.96875 L 2.515625 -6.96875 C 2.167969 -6.96875 1.828125 -6.925781 1.488281 -6.84375 Z "/>
</g>
<g id="glyph-0-9">
<path d="M 4.15625 -6.820312 C 3.941406 -5.554688 3.695312 -4.519531 3.421875 -3.714844 C 3.996094 -2.847656 4.324219 -2.25 4.410156 -1.925781 C 4.492188 -1.601562 4.535156 -1.398438 4.535156 -1.320312 C 4.535156 -1.101562 4.484375 -0.917969 4.382812 -0.765625 C 4.28125 -0.613281 4.195312 -0.535156 4.125 -0.535156 C 3.980469 -0.535156 3.820312 -0.808594 3.648438 -1.351562 C 3.449219 -2.011719 3.238281 -2.59375 3.023438 -3.09375 C 2.5625 -1.863281 1.746094 -0.722656 0.582031 0.328125 L 0.414062 0.0429688 C 1.378906 -1.15625 2.09375 -2.390625 2.554688 -3.652344 C 2.296875 -4.113281 1.785156 -4.847656 1.03125 -5.863281 L 1.296875 -6.0625 C 2.039062 -5.320312 2.550781 -4.742188 2.839844 -4.328125 C 2.980469 -4.800781 3.148438 -5.667969 3.339844 -6.925781 L 2.101562 -6.925781 C 1.757812 -6.925781 1.414062 -6.886719 1.074219 -6.804688 L 0.617188 -7.382812 L 3.359375 -7.382812 L 3.832031 -7.835938 L 4.496094 -7.152344 L 4.15625 -6.820312 M 9.277344 -7.480469 C 9.277344 -5.398438 9.292969 -3.96875 9.320312 -3.179688 L 8.496094 -2.84375 L 8.496094 -7.585938 L 5.527344 -7.585938 L 5.527344 -3.148438 L 4.699219 -2.722656 C 4.726562 -3.601562 4.742188 -4.519531 4.742188 -5.480469 C 4.742188 -6.441406 4.726562 -7.417969 4.699219 -8.410156 L 5.480469 -8.039062 L 8.472656 -8.039062 L 8.945312 -8.496094 L 9.648438 -7.761719 L 9.277344 -7.480469 M 2.515625 0.699219 C 3.34375 0.410156 4.039062 0.0546875 4.605469 -0.363281 C 5.171875 -0.78125 5.589844 -1.304688 5.863281 -1.941406 C 6.132812 -2.578125 6.296875 -3.417969 6.351562 -4.457031 C 6.40625 -5.5 6.433594 -6.351562 6.433594 -7.011719 L 7.628906 -6.34375 L 7.253906 -6 C 7.226562 -4.320312 7.078125 -3.070312 6.8125 -2.242188 C 6.546875 -1.414062 6.117188 -0.75 5.523438 -0.257812 C 4.933594 0.238281 3.953125 0.667969 2.589844 1.03125 L 2.515625 0.699219 M 7.835938 0.660156 C 7.285156 0.660156 7.011719 0.34375 7.011719 -0.289062 L 7.011719 -2.351562 C 7.011719 -2.757812 6.996094 -3.210938 6.96875 -3.710938 L 8.082031 -3.140625 L 7.792969 -2.792969 L 7.792969 -0.371094 C 7.792969 -0.152344 7.902344 -0.0429688 8.125 -0.0429688 L 8.867188 -0.0429688 C 9.039062 -0.0429688 9.152344 -0.179688 9.203125 -0.453125 C 9.253906 -0.730469 9.292969 -1.265625 9.320312 -2.0625 L 9.773438 -2.0625 C 9.773438 -1.320312 9.804688 -0.828125 9.867188 -0.585938 C 9.929688 -0.34375 10.066406 -0.191406 10.265625 -0.125 C 10.042969 0.398438 9.699219 0.660156 9.238281 0.660156 Z "/>
</g>
<g id="glyph-0-10">
<path d="M 4.707031 -8.90625 C 5.378906 -8.609375 5.757812 -8.34375 5.847656 -8.105469 C 5.933594 -7.871094 5.867188 -7.695312 5.648438 -7.585938 L 7.273438 -7.585938 L 7.875 -8.164062 L 8.78125 -7.132812 L 6.804688 -7.132812 L 7.421875 -6.789062 C 7.113281 -6.671875 6.726562 -6.375 6.269531 -5.898438 L 8.429688 -5.898438 L 9.113281 -6.554688 L 10.101562 -5.441406 L 2.183594 -5.441406 C 1.839844 -5.441406 1.496094 -5.402344 1.15625 -5.320312 L 0.699219 -5.898438 L 5.808594 -5.898438 C 6.113281 -6.480469 6.308594 -6.894531 6.390625 -7.132812 L 3.917969 -7.132812 C 4.3125 -7 4.558594 -6.871094 4.648438 -6.753906 C 4.738281 -6.632812 4.78125 -6.511719 4.78125 -6.390625 C 4.78125 -6.289062 4.75 -6.167969 4.679688 -6.03125 C 4.609375 -5.890625 4.480469 -5.8125 4.292969 -5.796875 C 4.105469 -5.78125 3.996094 -5.933594 3.957031 -6.253906 C 3.933594 -6.453125 3.789062 -6.746094 3.519531 -7.132812 L 2.820312 -7.132812 L 2.222656 -7.050781 L 1.8125 -7.585938 L 5.070312 -7.585938 C 5.070312 -7.859375 4.894531 -8.226562 4.535156 -8.691406 L 4.707031 -8.90625 M 2.308594 -5.320312 L 3.050781 -4.949219 L 7.394531 -4.949219 L 7.730469 -5.320312 L 8.496094 -4.730469 L 8.207031 -4.4375 C 8.207031 -3.285156 8.21875 -2.535156 8.246094 -2.1875 L 7.421875 -1.898438 L 7.421875 -2.269531 L 3.132812 -2.269531 L 3.132812 -2.097656 L 2.308594 -1.855469 C 2.335938 -2.433594 2.351562 -3 2.351562 -3.5625 C 2.351562 -4.125 2.335938 -4.710938 2.308594 -5.320312 M 3.132812 -4.496094 L 3.132812 -3.835938 L 7.421875 -3.835938 L 7.421875 -4.496094 L 3.132812 -4.496094 M 3.132812 -3.382812 L 3.132812 -2.722656 L 7.421875 -2.722656 L 7.421875 -3.382812 L 3.132812 -3.382812 M 2.007812 -1.773438 L 2.390625 -1.664062 C 2.363281 -0.832031 2.277344 -0.289062 2.140625 -0.03125 C 2.003906 0.226562 1.8125 0.378906 1.570312 0.425781 C 1.324219 0.472656 1.144531 0.449219 1.035156 0.359375 C 0.921875 0.269531 0.867188 0.175781 0.867188 0.0820312 C 0.867188 -0.0507812 1 -0.203125 1.269531 -0.382812 C 1.582031 -0.617188 1.828125 -1.082031 2.007812 -1.773438 M 4.371094 -2.160156 L 4.523438 -2.433594 C 5.304688 -2.085938 5.765625 -1.835938 5.898438 -1.6875 C 6.035156 -1.535156 6.101562 -1.386719 6.101562 -1.238281 C 6.101562 -1.109375 6.058594 -0.957031 5.976562 -0.789062 C 5.890625 -0.621094 5.808594 -0.535156 5.730469 -0.535156 C 5.597656 -0.535156 5.464844 -0.667969 5.332031 -0.933594 C 5.171875 -1.25 4.851562 -1.660156 4.371094 -2.160156 M 7.792969 -1.632812 L 8.011719 -1.898438 C 8.863281 -1.464844 9.375 -1.15625 9.550781 -0.964844 C 9.726562 -0.773438 9.8125 -0.605469 9.8125 -0.453125 C 9.8125 -0.324219 9.765625 -0.167969 9.664062 0.015625 C 9.566406 0.199219 9.464844 0.289062 9.359375 0.289062 C 9.222656 0.289062 9.085938 0.128906 8.960938 -0.191406 C 8.773438 -0.5625 8.386719 -1.042969 7.792969 -1.632812 M 3.09375 -0.289062 C 3.09375 -1.105469 3.078125 -1.710938 3.050781 -2.101562 L 4.207031 -1.523438 L 3.875 -1.214844 L 3.875 -0.507812 C 3.847656 -0.214844 3.957031 -0.0625 4.199219 -0.0429688 L 6.683594 -0.0429688 C 6.863281 -0.0429688 6.984375 -0.132812 7.042969 -0.316406 C 7.105469 -0.5 7.148438 -0.875 7.179688 -1.441406 L 7.585938 -1.441406 C 7.585938 -0.921875 7.613281 -0.566406 7.660156 -0.382812 C 7.710938 -0.203125 7.835938 -0.09375 8.039062 -0.0625 C 7.875 0.390625 7.492188 0.617188 6.886719 0.617188 L 3.992188 0.617188 C 3.363281 0.585938 3.066406 0.285156 3.09375 -0.289062 Z "/>
</g>
<g id="glyph-0-11">
<path d="M 4.371094 -8.867188 C 4.957031 -8.460938 5.390625 -8.121094 5.675781 -7.851562 C 5.960938 -7.578125 6.101562 -7.339844 6.101562 -7.132812 C 6.101562 -6.972656 6.03125 -6.78125 5.886719 -6.558594 C 5.746094 -6.335938 5.609375 -6.226562 5.484375 -6.226562 C 5.304688 -6.226562 5.183594 -6.40625 5.117188 -6.769531 C 4.984375 -7.25 4.652344 -7.882812 4.125 -8.667969 L 4.371094 -8.867188 M 7.582031 -8.125 L 8.824219 -7.265625 L 8.386719 -7.003906 C 7.679688 -4.820312 6.917969 -3.214844 6.101562 -2.179688 C 7.46875 -0.914062 8.855469 -0.195312 10.265625 -0.0273438 L 10.265625 0.3125 C 9.746094 0.398438 9.394531 0.613281 9.210938 0.949219 C 7.886719 0.441406 6.683594 -0.425781 5.601562 -1.648438 C 4.300781 -0.367188 2.636719 0.527344 0.609375 1.03125 L 0.535156 0.699219 C 2.320312 0.109375 3.847656 -0.851562 5.113281 -2.179688 C 4.183594 -3.4375 3.347656 -5.097656 2.597656 -7.164062 L 2.953125 -7.339844 C 4 -5.078125 4.878906 -3.550781 5.589844 -2.761719 C 5.960938 -3.355469 6.3125 -4.070312 6.640625 -4.90625 C 6.96875 -5.738281 7.285156 -6.8125 7.582031 -8.125 Z "/>
</g>
</g>
</defs>
<g fill="rgb(100%, 100%, 100%)" fill-opacity="1">
<use xlink:href="#glyph-0-0" x="30" y="29.071289"/>
<use xlink:href="#glyph-0-1" x="41" y="29.071289"/>
<use xlink:href="#glyph-0-2" x="52" y="29.071289"/>
<use xlink:href="#glyph-0-3" x="63" y="29.071289"/>
<use xlink:href="#glyph-0-4" x="74" y="29.071289"/>
<use xlink:href="#glyph-0-5" x="85" y="29.071289"/>
<use xlink:href="#glyph-0-6" x="96" y="29.071289"/>
<use xlink:href="#glyph-0-7" x="107" y="29.071289"/>
<use xlink:href="#glyph-0-8" x="118" y="29.071289"/>
<use xlink:href="#glyph-0-9" x="129" y="29.071289"/>
<use xlink:href="#glyph-0-10" x="140" y="29.071289"/>
<use xlink:href="#glyph-0-11" x="151" y="29.071289"/>
</g>
</svg>
