<?xml version="1.0" encoding="UTF-8"?>
<svg xmlns="http://www.w3.org/2000/svg" xmlns:xlink="http://www.w3.org/1999/xlink" width="1280" height="720" viewBox="0 0 1280 720">
<defs>
<g>
<g id="glyph-0-0">
<path d="M 4.667969 -0.0703125 C 4.539062 -0.0273438 4.402344 0.0117188 4.261719 0.0390625 C 4.117188 0.0664062 4.007812 0.078125 3.925781 0.078125 C 3.714844 0.078125 3.554688 0.0195312 3.445312 -0.105469 C 3.335938 -0.226562 3.257812 -0.445312 3.214844 -0.761719 C 3.152344 -0.652344 3.070312 -0.539062 2.976562 -0.425781 C 2.878906 -0.308594 2.78125 -0.214844 2.675781 -0.144531 C 2.558594 -0.0625 2.4375 0.00390625 2.316406 0.046875 C 2.195312 0.0898438 2.046875 0.113281 1.875 0.113281 C 1.664062 0.113281 1.464844 0.0664062 1.269531 -0.0273438 C 1.078125 -0.121094 0.90625 -0.253906 0.753906 -0.429688 C 0.605469 -0.605469 0.488281 -0.816406 0.402344 -1.0625 C 0.316406 -1.304688 0.273438 -1.578125 0.273438 -1.875 C 0.273438 -2.144531 0.320312 -2.402344 0.410156 -2.644531 C 0.5 -2.890625 0.628906 -3.101562 0.792969 -3.289062 C 0.949219 -3.464844 1.136719 -3.601562 1.355469 -3.699219 C 1.570312 -3.796875 1.796875 -3.847656 2.027344 -3.847656 C 2.328125 -3.847656 2.585938 -3.773438 2.796875 -3.628906 C 3.003906 -3.484375 3.160156 -3.277344 3.257812 -3.019531 L 3.351562 -3.746094 L 4.058594 -3.746094 C 4.042969 -3.5625 4.003906 -3.296875 3.945312 -2.9375 C 3.882812 -2.582031 3.816406 -2.191406 3.738281 -1.769531 C 3.746094 -1.394531 3.785156 -1.085938 3.863281 -0.835938 C 3.941406 -0.585938 4.039062 -0.425781 4.160156 -0.355469 C 4.199219 -0.335938 4.273438 -0.320312 4.378906 -0.320312 C 4.484375 -0.316406 4.582031 -0.316406 4.667969 -0.316406 L 4.667969 -0.0703125 M 3.144531 -1.984375 C 3.125 -2.171875 3.097656 -2.359375 3.058594 -2.550781 C 3.015625 -2.738281 2.957031 -2.910156 2.875 -3.054688 C 2.796875 -3.207031 2.695312 -3.328125 2.570312 -3.417969 C 2.445312 -3.511719 2.289062 -3.558594 2.105469 -3.558594 C 1.804688 -3.558594 1.558594 -3.40625 1.363281 -3.097656 C 1.164062 -2.789062 1.066406 -2.367188 1.066406 -1.832031 C 1.066406 -1.625 1.089844 -1.429688 1.132812 -1.246094 C 1.175781 -1.0625 1.234375 -0.902344 1.3125 -0.769531 C 1.398438 -0.625 1.507812 -0.511719 1.640625 -0.421875 C 1.777344 -0.335938 1.9375 -0.292969 2.125 -0.292969 C 2.433594 -0.292969 2.675781 -0.429688 2.847656 -0.710938 C 3.019531 -0.988281 3.117188 -1.414062 3.144531 -1.984375 Z "/>
</g>
<g id="glyph-0-1">
</g>
<g id="glyph-0-2">
<path d="M 4.417969 -2.59375 L 0.585938 -2.59375 L 0.585938 -3.070312 L 4.417969 -3.070312 L 4.417969 -2.59375 M 4.417969 -1.179688 L 0.585938 -1.179688 L 0.585938 -1.65625 L 4.417969 -1.65625 Z "/>
</g>
<g id="glyph-0-3">
<path d="M 3.898438 -3.546875 C 4.0625 -3.351562 4.183594 -3.125 4.261719 -2.863281 C 4.34375 -2.597656 4.382812 -2.324219 4.382812 -2.039062 C 4.382812 -1.695312 4.332031 -1.386719 4.234375 -1.113281 C 4.136719 -0.84375 4 -0.617188 3.828125 -0.4375 C 3.652344 -0.25 3.441406 -0.113281 3.199219 -0.0195312 C 2.953125 0.0742188 2.683594 0.121094 2.386719 0.121094 C 2.058594 0.121094 1.765625 0.0664062 1.511719 -0.0429688 C 1.253906 -0.152344 1.046875 -0.300781 0.886719 -0.488281 C 0.722656 -0.6875 0.597656 -0.917969 0.515625 -1.183594 C 0.433594 -1.449219 0.390625 -1.734375 0.390625 -2.039062 C 0.390625 -2.339844 0.429688 -2.617188 0.511719 -2.871094 C 0.589844 -3.125 0.714844 -3.351562 0.886719 -3.558594 C 1.046875 -3.753906 1.253906 -3.910156 1.511719 -4.023438 C 1.765625 -4.140625 2.058594 -4.195312 2.386719 -4.195312 C 2.734375 -4.195312 3.03125 -4.136719 3.28125 -4.023438 C 3.527344 -3.90625 3.734375 -3.746094 3.898438 -3.546875 M 3.542969 -2.039062 C 3.542969 -2.640625 3.441406 -3.109375 3.234375 -3.441406 C 3.027344 -3.773438 2.746094 -3.9375 2.390625 -3.9375 C 2.03125 -3.9375 1.75 -3.773438 1.542969 -3.441406 C 1.335938 -3.109375 1.230469 -2.640625 1.230469 -2.039062 C 1.230469 -1.46875 1.328125 -1.007812 1.527344 -0.660156 C 1.726562 -0.3125 2.011719 -0.136719 2.386719 -0.136719 C 2.757812 -0.136719 3.042969 -0.3125 3.242188 -0.660156 C 3.441406 -1.007812 3.542969 -1.46875 3.542969 -2.039062 Z "/>
</g>
<g id="glyph-0-4">
<path d="M 1.574219 -0.4375 C 1.574219 -0.296875 1.523438 -0.175781 1.421875 -0.0742188 C 1.320312 0.0273438 1.199219 0.0742188 1.054688 0.0742188 C 0.914062 0.0742188 0.792969 0.0273438 0.6875 -0.0742188 C 0.585938 -0.175781 0.535156 -0.296875 0.535156 -0.4375 C 0.535156 -0.578125 0.585938 -0.699219 0.6875 -0.804688 C 0.792969 -0.90625 0.914062 -0.957031 1.054688 -0.957031 C 1.199219 -0.957031 1.320312 -0.90625 1.421875 -0.804688 C 1.523438 -0.699219 1.574219 -0.578125 1.574219 -0.4375 Z "/>
</g>
<g id="glyph-0-5">
<path d="M 3.070312 0 L 0.511719 0 L 0.511719 -0.269531 C 0.589844 -0.273438 0.707031 -0.285156 0.867188 -0.300781 C 1.027344 -0.320312 1.140625 -0.335938 1.199219 -0.351562 C 1.277344 -0.378906 1.339844 -0.417969 1.378906 -0.476562 C 1.421875 -0.535156 1.441406 -0.617188 1.441406 -0.734375 L 1.441406 -3.398438 L 0.496094 -3.398438 L 0.496094 -3.71875 L 0.707031 -3.71875 C 0.980469 -3.71875 1.226562 -3.769531 1.441406 -3.871094 C 1.65625 -3.972656 1.8125 -4.078125 1.90625 -4.195312 L 2.222656 -4.195312 C 2.214844 -4.03125 2.207031 -3.839844 2.199219 -3.617188 C 2.191406 -3.398438 2.1875 -3.203125 2.1875 -3.027344 L 2.1875 -0.773438 C 2.1875 -0.6875 2.207031 -0.605469 2.246094 -0.539062 C 2.285156 -0.46875 2.34375 -0.417969 2.414062 -0.382812 C 2.480469 -0.355469 2.589844 -0.332031 2.738281 -0.308594 C 2.886719 -0.285156 3 -0.273438 3.070312 -0.269531 Z "/>
</g>
</g>
</defs>
<g fill="rgb(81.176471%, 31.372549%, 26.666667%)" fill-opacity="1">
<use xlink:href="#glyph-0-0" x="30" y="27.131836"/>
<use xlink:href="#glyph-0-1" x="35" y="27.131836"/>
<use xlink:href="#glyph-0-2" x="37" y="27.131836"/>
<use xlink:href="#glyph-0-1" x="42" y="27.131836"/>
<use xlink:href="#glyph-0-3" x="44" y="27.131836"/>
<use xlink:href="#glyph-0-4" x="49" y="27.131836"/>
<use xlink:href="#glyph-0-3" x="51" y="27.131836"/>
<use xlink:href="#glyph-0-5" x="56" y="27.131836"/>
</g>
</svg>
