<?xml version="1.0" encoding="UTF-8"?>
<svg xmlns="http://www.w3.org/2000/svg" xmlns:xlink="http://www.w3.org/1999/xlink" width="1280" height="720" viewBox="0 0 1280 720">
<defs>
<g>
<g id="glyph-0-0">
<path d="M 1.527344 -3.628906 L 1.527344 -2.839844 L 2.816406 -2.839844 L 2.816406 -3.628906 L 1.527344 -3.628906 M 3.152344 -3.628906 L 3.152344 -2.839844 L 4.511719 -2.839844 L 4.511719 -3.628906 L 3.152344 -3.628906 M 1.527344 -2.699219 L 1.527344 -1.886719 L 2.816406 -1.886719 L 2.816406 -2.699219 L 1.527344 -2.699219 M 3.152344 -2.699219 L 3.152344 -1.886719 L 4.511719 -1.886719 L 4.511719 -2.699219 L 3.152344 -2.699219 M 1.742188 -4.917969 L 1.789062 -4.988281 C 2.011719 -4.863281 2.207031 -4.730469 2.375 -4.59375 C 2.542969 -4.460938 2.621094 -4.335938 2.613281 -4.226562 C 2.605469 -4.113281 2.574219 -4.03125 2.519531 -3.972656 C 2.460938 -3.917969 2.425781 -3.890625 2.410156 -3.890625 C 2.347656 -3.890625 2.285156 -3.984375 2.21875 -4.175781 C 2.125 -4.414062 1.964844 -4.664062 1.742188 -4.917969 M 3.152344 -0.859375 C 3.152344 -0.207031 3.160156 0.222656 3.175781 0.429688 L 2.792969 0.597656 C 2.808594 0.0390625 2.816406 -0.445312 2.816406 -0.859375 L 0.789062 -0.859375 L 0.476562 -0.8125 L 0.285156 -1.003906 L 2.816406 -1.003906 L 2.816406 -1.742188 L 1.527344 -1.742188 L 1.527344 -1.457031 L 1.167969 -1.3125 C 1.183594 -1.757812 1.195312 -2.203125 1.195312 -2.648438 C 1.195312 -3.09375 1.183594 -3.539062 1.167969 -3.984375 L 1.550781 -3.769531 L 3.367188 -3.769531 C 3.476562 -3.945312 3.59375 -4.15625 3.710938 -4.402344 C 3.832031 -4.652344 3.914062 -4.863281 3.960938 -5.035156 L 4.441406 -4.679688 C 4.3125 -4.628906 4.171875 -4.527344 4.023438 -4.367188 C 3.871094 -4.210938 3.699219 -4.011719 3.507812 -3.769531 L 4.464844 -3.769531 L 4.65625 -3.984375 L 5.035156 -3.699219 L 4.820312 -3.53125 C 4.820312 -2.5625 4.828125 -1.925781 4.84375 -1.625 L 4.511719 -1.480469 L 4.511719 -1.742188 L 3.152344 -1.742188 L 3.152344 -1.003906 L 4.941406 -1.003906 L 5.324219 -1.382812 L 5.847656 -0.859375 Z "/>
</g>
<g id="glyph-0-1">
<path d="M 0.980469 -3.101562 C 0.722656 -2.640625 0.484375 -2.285156 0.261719 -2.027344 L 0.191406 -2.101562 C 0.558594 -2.722656 0.839844 -3.304688 1.039062 -3.855469 C 1.238281 -4.402344 1.351562 -4.773438 1.382812 -4.964844 L 1.863281 -4.703125 L 1.671875 -4.558594 C 1.496094 -4.175781 1.3125 -3.769531 1.121094 -3.339844 L 1.433594 -3.175781 L 1.289062 -3.03125 L 1.289062 -0.476562 C 1.289062 -0.222656 1.296875 0.09375 1.3125 0.476562 L 0.953125 0.621094 C 0.972656 0.128906 0.980469 -0.277344 0.980469 -0.597656 L 0.980469 -3.101562 M 3.699219 -4.105469 L 3.699219 -2.21875 C 3.699219 -2.078125 3.707031 -1.765625 3.722656 -1.289062 L 3.414062 -1.144531 L 3.414062 -4.199219 L 2.242188 -4.199219 L 2.242188 -1.167969 L 1.933594 -1.003906 C 1.949219 -1.449219 1.957031 -1.742188 1.957031 -1.886719 L 1.957031 -3.675781 C 1.957031 -3.820312 1.949219 -4.105469 1.933594 -4.535156 L 2.292969 -4.34375 L 3.390625 -4.34375 L 3.605469 -4.558594 L 3.914062 -4.25 L 3.699219 -4.105469 M 2.648438 -3.796875 L 3.125 -3.582031 L 2.984375 -3.414062 C 2.96875 -2.792969 2.953125 -2.273438 2.9375 -1.851562 C 2.921875 -1.429688 2.863281 -1.074219 2.769531 -0.789062 C 2.671875 -0.5 2.53125 -0.257812 2.339844 -0.0585938 C 2.148438 0.140625 1.863281 0.34375 1.480469 0.550781 L 1.433594 0.476562 C 1.878906 0.160156 2.1875 -0.164062 2.363281 -0.488281 C 2.539062 -0.816406 2.632812 -1.300781 2.648438 -1.945312 C 2.664062 -2.589844 2.664062 -3.207031 2.648438 -3.796875 M 2.984375 -0.929688 C 3.445312 -0.597656 3.710938 -0.378906 3.785156 -0.273438 C 3.855469 -0.171875 3.890625 -0.078125 3.890625 0 C 3.890625 0.0625 3.867188 0.136719 3.820312 0.214844 C 3.769531 0.292969 3.738281 0.335938 3.722656 0.335938 C 3.691406 0.335938 3.652344 0.277344 3.605469 0.167969 C 3.523438 -0.0078125 3.433594 -0.175781 3.328125 -0.335938 C 3.226562 -0.492188 3.09375 -0.667969 2.9375 -0.859375 L 2.984375 -0.929688 M 4.558594 -3.746094 L 4.558594 -1.695312 C 4.558594 -1.519531 4.566406 -1.289062 4.582031 -1.003906 L 4.226562 -0.835938 C 4.242188 -1.203125 4.25 -1.480469 4.25 -1.671875 L 4.25 -3.339844 C 4.25 -3.515625 4.242188 -3.789062 4.226562 -4.152344 L 4.726562 -3.914062 L 4.558594 -3.746094 M 4.25 0 C 4.550781 0.046875 4.78125 0.0703125 4.941406 0.0703125 C 5.101562 0.0703125 5.171875 -0.0078125 5.15625 -0.167969 L 5.15625 -4.175781 C 5.15625 -4.382812 5.148438 -4.621094 5.132812 -4.894531 L 5.679688 -4.605469 L 5.464844 -4.441406 L 5.464844 0.0234375 C 5.480469 0.292969 5.324219 0.484375 4.988281 0.597656 C 5.003906 0.4375 4.757812 0.277344 4.25 0.121094 Z "/>
</g>
<g id="glyph-0-2">
<path d="M 3.554688 -5.035156 L 4.082031 -4.75 L 3.890625 -4.628906 C 4.335938 -3.738281 4.988281 -3.230469 5.847656 -3.101562 L 5.847656 -3.007812 C 5.59375 -2.992188 5.433594 -2.894531 5.371094 -2.722656 C 4.621094 -3.054688 4.105469 -3.667969 3.820312 -4.558594 C 3.5 -3.699219 2.953125 -3.03125 2.171875 -2.554688 L 2.101562 -2.625 C 2.863281 -3.246094 3.351562 -4.050781 3.554688 -5.035156 M 2.601562 -2.671875 L 4.367188 -2.671875 L 4.605469 -2.914062 L 4.988281 -2.53125 L 3.367188 -2.53125 C 3.125 -2.53125 2.945312 -2.507812 2.816406 -2.457031 L 2.601562 -2.671875 M 2.53125 -1.8125 L 2.601562 -1.839844 C 2.902344 -1.375 3.074219 -1.078125 3.113281 -0.941406 C 3.15625 -0.808594 3.175781 -0.699219 3.175781 -0.621094 C 3.175781 -0.492188 3.140625 -0.398438 3.066406 -0.335938 C 2.996094 -0.269531 2.953125 -0.238281 2.9375 -0.238281 C 2.871094 -0.238281 2.832031 -0.34375 2.816406 -0.550781 C 2.800781 -0.820312 2.707031 -1.242188 2.53125 -1.8125 M 3.367188 -2.242188 L 3.4375 -2.269531 C 3.804688 -1.757812 4.011719 -1.390625 4.058594 -1.167969 C 4.105469 -0.945312 4.085938 -0.800781 4 -0.726562 C 3.910156 -0.65625 3.851562 -0.621094 3.820312 -0.621094 C 3.753906 -0.621094 3.714844 -0.722656 3.699219 -0.929688 C 3.683594 -1.21875 3.574219 -1.65625 3.367188 -2.242188 M 5.25 -2.027344 L 5.035156 -1.910156 C 4.8125 -1.035156 4.566406 -0.359375 4.296875 0.121094 L 5.035156 0.121094 L 5.347656 -0.191406 L 5.800781 0.261719 L 2.746094 0.261719 C 2.539062 0.261719 2.347656 0.285156 2.171875 0.335938 L 1.957031 0.121094 L 4.152344 0.121094 C 4.441406 -0.722656 4.628906 -1.535156 4.726562 -2.316406 L 5.25 -2.027344 M 1.574219 -0.714844 C 1.574219 -0.492188 1.582031 -0.09375 1.597656 0.476562 L 1.21875 0.621094 C 1.234375 -0.316406 1.242188 -1.28125 1.242188 -2.269531 C 0.988281 -1.695312 0.667969 -1.210938 0.285156 -0.8125 L 0.238281 -0.882812 C 0.699219 -1.535156 1.027344 -2.371094 1.21875 -3.390625 L 0.644531 -3.390625 L 0.429688 -3.339844 L 0.238281 -3.53125 L 1.242188 -3.53125 C 1.242188 -3.960938 1.234375 -4.457031 1.21875 -5.011719 L 1.789062 -4.773438 L 1.574219 -4.605469 L 1.574219 -3.53125 L 1.933594 -3.53125 L 2.195312 -3.796875 L 2.601562 -3.390625 L 1.574219 -3.390625 L 1.574219 -2.839844 C 1.828125 -2.730469 2.019531 -2.617188 2.148438 -2.507812 C 2.277344 -2.394531 2.339844 -2.285156 2.339844 -2.171875 C 2.339844 -2.125 2.316406 -2.054688 2.269531 -1.957031 C 2.21875 -1.863281 2.1875 -1.8125 2.171875 -1.8125 C 2.125 -1.8125 2.070312 -1.894531 2.003906 -2.054688 C 1.894531 -2.292969 1.75 -2.507812 1.574219 -2.699219 Z "/>
</g>
<g id="glyph-0-3">
<path d="M 3.867188 -4.988281 L 4.34375 -4.703125 L 4.152344 -4.582031 C 4.597656 -3.582031 5.164062 -3 5.847656 -2.839844 L 5.847656 -2.769531 C 5.609375 -2.738281 5.457031 -2.640625 5.394531 -2.484375 C 4.789062 -2.945312 4.351562 -3.621094 4.082031 -4.511719 C 3.636719 -3.554688 3.078125 -2.839844 2.410156 -2.363281 L 2.363281 -2.433594 C 2.746094 -2.816406 3.070312 -3.253906 3.339844 -3.746094 C 3.613281 -4.242188 3.789062 -4.65625 3.867188 -4.988281 M 2.886719 -2.671875 L 4.441406 -2.671875 L 4.726562 -2.960938 L 5.109375 -2.53125 L 3.675781 -2.53125 C 3.46875 -2.53125 3.277344 -2.507812 3.101562 -2.457031 L 2.886719 -2.671875 M 2.792969 -1.910156 L 2.863281 -1.957031 C 3.167969 -1.480469 3.335938 -1.175781 3.378906 -1.050781 C 3.417969 -0.921875 3.4375 -0.820312 3.4375 -0.738281 C 3.4375 -0.644531 3.410156 -0.550781 3.355469 -0.453125 C 3.296875 -0.359375 3.234375 -0.3125 3.164062 -0.320312 C 3.089844 -0.332031 3.046875 -0.476562 3.03125 -0.765625 C 3.015625 -1.050781 2.9375 -1.433594 2.792969 -1.910156 M 3.484375 -2.125 L 3.554688 -2.171875 C 3.96875 -1.648438 4.191406 -1.273438 4.226562 -1.050781 C 4.257812 -0.828125 4.230469 -0.683594 4.140625 -0.621094 C 4.054688 -0.558594 4.003906 -0.523438 3.984375 -0.523438 C 3.921875 -0.523438 3.882812 -0.605469 3.867188 -0.765625 C 3.851562 -0.988281 3.804688 -1.230469 3.722656 -1.492188 C 3.644531 -1.753906 3.566406 -1.964844 3.484375 -2.125 M 4.941406 -2.195312 L 5.441406 -1.863281 C 5.332031 -1.8125 5.210938 -1.644531 5.085938 -1.347656 C 4.957031 -1.054688 4.75 -0.558594 4.464844 0.144531 L 5.058594 0.144531 L 5.394531 -0.191406 L 5.824219 0.285156 L 3.222656 0.285156 C 3.015625 0.285156 2.824219 0.308594 2.648438 0.359375 L 2.433594 0.144531 L 4.320312 0.144531 C 4.734375 -1.160156 4.941406 -1.941406 4.941406 -2.195312 M 0.382812 -4.464844 L 1.863281 -4.464844 L 2.054688 -4.703125 L 2.410156 -4.390625 L 2.195312 -4.25 L 1.957031 -2.171875 L 2.125 -2.171875 L 2.269531 -2.363281 L 2.625 -2.078125 L 2.433594 -1.933594 C 2.355469 -0.960938 2.277344 -0.375 2.195312 -0.167969 C 2.117188 0.0390625 2.011719 0.1875 1.886719 0.273438 C 1.757812 0.363281 1.625 0.421875 1.480469 0.453125 C 1.464844 0.230469 1.234375 0.046875 0.789062 -0.09375 L 0.8125 -0.191406 C 1.257812 -0.09375 1.535156 -0.0507812 1.648438 -0.0585938 C 1.757812 -0.0664062 1.851562 -0.1875 1.921875 -0.417969 C 1.992188 -0.648438 2.0625 -1.183594 2.125 -2.027344 L 0.953125 -2.027344 L 0.789062 -1.839844 L 0.476562 -2.125 L 0.644531 -2.21875 C 0.773438 -3.125 0.84375 -3.722656 0.859375 -4.011719 L 1.335938 -3.746094 L 1.144531 -3.605469 L 0.953125 -2.171875 L 1.648438 -2.171875 L 1.886719 -4.320312 L 1.167969 -4.320312 C 0.960938 -4.320312 0.773438 -4.296875 0.597656 -4.25 L 0.382812 -4.464844 M 0.214844 -1.027344 C 0.53125 -1.058594 1.097656 -1.152344 1.910156 -1.3125 L 1.933594 -1.21875 C 1.027344 -0.945312 0.542969 -0.746094 0.476562 -0.621094 Z "/>
</g>
</g>
</defs>
<g fill="rgb(100%, 52.54902%, 18.431373%)" fill-opacity="1">
<use xlink:href="#glyph-0-0" x="30" y="25.250977"/>
<use xlink:href="#glyph-0-1" x="36" y="25.250977"/>
<use xlink:href="#glyph-0-2" x="42" y="25.250977"/>
<use xlink:href="#glyph-0-3" x="48" y="25.250977"/>
</g>
</svg>
