<?xml version="1.0" encoding="UTF-8"?>
<svg xmlns="http://www.w3.org/2000/svg" xmlns:xlink="http://www.w3.org/1999/xlink" width="1280" height="720" viewBox="0 0 1280 720">
<defs>
<g>
<g id="glyph-0-0">
<path d="M 0.730469 -3.230469 L 0.746094 -3.039062 L 2.136719 -3.039062 C 2.125 -3.222656 2.054688 -3.410156 1.925781 -3.59375 L 1.960938 -3.628906 C 2.191406 -3.511719 2.320312 -3.429688 2.34375 -3.375 C 2.367188 -3.324219 2.378906 -3.28125 2.378906 -3.246094 C 2.378906 -3.175781 2.34375 -3.105469 2.273438 -3.039062 L 3.699219 -3.039062 L 3.871094 -3.210938 L 4.167969 -2.882812 C 4.003906 -2.90625 3.796875 -2.773438 3.542969 -2.480469 L 3.488281 -2.515625 L 3.714844 -2.933594 L 0.746094 -2.933594 C 0.746094 -2.761719 0.734375 -2.644531 0.710938 -2.585938 C 0.6875 -2.527344 0.648438 -2.492188 0.589844 -2.472656 C 0.53125 -2.457031 0.484375 -2.449219 0.453125 -2.449219 C 0.417969 -2.449219 0.386719 -2.453125 0.363281 -2.464844 C 0.339844 -2.476562 0.328125 -2.488281 0.328125 -2.5 C 0.328125 -2.535156 0.363281 -2.59375 0.433594 -2.671875 C 0.539062 -2.789062 0.613281 -2.972656 0.660156 -3.230469 L 0.730469 -3.230469 M 1.042969 -2.273438 C 1.03125 -1.960938 1.003906 -1.773438 0.964844 -1.710938 C 0.921875 -1.644531 0.871094 -1.601562 0.808594 -1.578125 C 0.742188 -1.554688 0.679688 -1.554688 0.617188 -1.578125 C 0.550781 -1.601562 0.519531 -1.625 0.519531 -1.648438 C 0.519531 -1.671875 0.5625 -1.71875 0.640625 -1.789062 C 0.757812 -1.878906 0.867188 -2.046875 0.972656 -2.292969 L 1.042969 -2.273438 M 1.421875 -1.875 C 1.421875 -2.117188 1.417969 -2.332031 1.40625 -2.515625 L 1.824219 -2.34375 L 1.648438 -2.222656 L 1.648438 -1.632812 C 1.847656 -1.734375 2.070312 -1.890625 2.324219 -2.09375 C 2.582031 -2.292969 2.804688 -2.523438 3.003906 -2.777344 L 3.261719 -2.464844 L 3.089844 -2.429688 C 2.835938 -2.210938 2.605469 -2.027344 2.402344 -1.882812 C 2.203125 -1.738281 1.960938 -1.597656 1.683594 -1.457031 C 1.671875 -1.433594 1.757812 -1.421875 1.945312 -1.421875 L 2.792969 -1.421875 C 2.863281 -1.433594 2.910156 -1.476562 2.933594 -1.554688 C 2.957031 -1.628906 2.972656 -1.765625 2.984375 -1.960938 L 3.054688 -1.960938 C 3.054688 -1.8125 3.0625 -1.695312 3.082031 -1.613281 C 3.097656 -1.535156 3.160156 -1.46875 3.261719 -1.421875 C 3.195312 -1.285156 3.019531 -1.222656 2.742188 -1.234375 L 1.789062 -1.234375 C 1.707031 -1.234375 1.632812 -1.234375 1.570312 -1.234375 C 1.507812 -1.234375 1.464844 -1.273438 1.441406 -1.355469 C 1.105469 -1.238281 0.695312 -1.144531 0.207031 -1.078125 L 0.191406 -1.128906 C 0.609375 -1.222656 1.019531 -1.355469 1.421875 -1.527344 L 1.421875 -1.875 M 1.804688 -2.8125 L 1.839844 -2.847656 C 2.09375 -2.695312 2.230469 -2.59375 2.246094 -2.542969 C 2.265625 -2.492188 2.273438 -2.453125 2.273438 -2.429688 C 2.273438 -2.359375 2.25 -2.300781 2.203125 -2.246094 C 2.160156 -2.195312 2.125 -2.171875 2.101562 -2.171875 C 2.066406 -2.171875 2.035156 -2.226562 2.015625 -2.34375 C 1.980469 -2.503906 1.910156 -2.660156 1.804688 -2.8125 M 3.28125 -2.222656 L 3.316406 -2.273438 C 3.582031 -2.148438 3.753906 -2.046875 3.835938 -1.96875 C 3.917969 -1.894531 3.960938 -1.824219 3.964844 -1.753906 C 3.972656 -1.683594 3.953125 -1.621094 3.90625 -1.5625 C 3.859375 -1.503906 3.824219 -1.476562 3.800781 -1.476562 C 3.765625 -1.476562 3.730469 -1.527344 3.699219 -1.632812 C 3.640625 -1.792969 3.5 -1.992188 3.28125 -2.222656 M 2.066406 0.0351562 C 2.066406 -0.542969 2.058594 -0.929688 2.046875 -1.128906 L 2.464844 -0.9375 L 2.292969 -0.816406 L 2.292969 0.0351562 L 3.296875 0.0351562 C 3.296875 -0.429688 3.292969 -0.742188 3.28125 -0.902344 L 3.664062 -0.710938 L 3.523438 -0.589844 C 3.523438 -0.230469 3.53125 0.0585938 3.542969 0.277344 L 3.296875 0.347656 L 3.296875 0.140625 L 1.09375 0.140625 L 0.972656 0.261719 L 0.746094 0.0507812 L 0.867188 -0.0351562 C 0.867188 -0.40625 0.863281 -0.6875 0.851562 -0.886719 L 1.25 -0.710938 L 1.09375 -0.609375 L 1.09375 0.0351562 Z "/>
</g>
<g id="glyph-0-1">
<path d="M 1.769531 -1.40625 C 1.78125 -1.636719 1.789062 -1.902344 1.789062 -2.203125 L 1.335938 -2.203125 L 1.128906 -2.171875 L 0.988281 -2.308594 L 1.789062 -2.308594 C 1.789062 -2.480469 1.78125 -2.671875 1.769531 -2.882812 L 2.152344 -2.691406 L 2.015625 -2.605469 L 2.015625 -2.308594 L 2.984375 -2.308594 C 2.984375 -2.503906 2.980469 -2.691406 2.96875 -2.863281 L 3.367188 -2.691406 L 3.210938 -2.585938 L 3.210938 -2.308594 L 3.542969 -2.308594 L 3.765625 -2.535156 L 4.097656 -2.203125 L 3.210938 -2.203125 C 3.210938 -1.867188 3.21875 -1.648438 3.230469 -1.546875 L 2.984375 -1.441406 L 2.984375 -1.597656 L 2.015625 -1.597656 L 2.015625 -1.511719 L 1.769531 -1.40625 M 3.386719 -1.042969 C 3.117188 -0.707031 2.894531 -0.457031 2.707031 -0.296875 C 3.078125 -0.0625 3.570312 0.0625 4.183594 0.0859375 L 4.183594 0.15625 C 4 0.191406 3.886719 0.265625 3.855469 0.382812 C 3.308594 0.277344 2.875 0.0976562 2.550781 -0.15625 C 1.996094 0.15625 1.394531 0.351562 0.746094 0.433594 L 0.730469 0.363281 C 1.34375 0.25 1.898438 0.0234375 2.394531 -0.3125 C 2.175781 -0.53125 1.972656 -0.804688 1.789062 -1.128906 L 1.613281 -1.128906 L 1.457031 -1.09375 L 1.320312 -1.234375 L 3.140625 -1.234375 L 3.296875 -1.390625 L 3.558594 -1.128906 L 3.386719 -1.042969 M 1.875 -1.128906 C 2.09375 -0.828125 2.316406 -0.597656 2.535156 -0.433594 C 2.765625 -0.652344 2.960938 -0.886719 3.125 -1.128906 L 1.875 -1.128906 M 2.015625 -2.203125 L 2.015625 -1.703125 L 2.984375 -1.703125 L 2.984375 -2.203125 L 2.015625 -2.203125 M 0.675781 -3.230469 L 0.972656 -3.054688 L 2.34375 -3.054688 C 2.332031 -3.125 2.304688 -3.199219 2.265625 -3.28125 C 2.226562 -3.363281 2.140625 -3.476562 2.015625 -3.628906 L 2.066406 -3.664062 C 2.332031 -3.546875 2.484375 -3.457031 2.527344 -3.394531 C 2.566406 -3.332031 2.585938 -3.292969 2.585938 -3.28125 C 2.585938 -3.210938 2.539062 -3.136719 2.449219 -3.054688 L 3.574219 -3.054688 L 3.820312 -3.296875 L 4.167969 -2.949219 L 0.953125 -2.949219 C 0.964844 -2.257812 0.945312 -1.714844 0.894531 -1.328125 C 0.84375 -0.941406 0.757812 -0.609375 0.640625 -0.328125 C 0.527344 -0.0507812 0.382812 0.203125 0.207031 0.433594 L 0.15625 0.398438 C 0.386719 -0.00390625 0.535156 -0.429688 0.597656 -0.867188 C 0.664062 -1.308594 0.699219 -1.757812 0.703125 -2.214844 C 0.707031 -2.671875 0.699219 -3.007812 0.675781 -3.230469 Z "/>
</g>
</g>
</defs>
<g fill="rgb(86.666667%, 86.666667%, 86.666667%)" fill-opacity="1">
<use xlink:href="#glyph-0-0" x="30" y="23.818359"/>
<use xlink:href="#glyph-0-1" x="34" y="23.818359"/>
</g>
</svg>
