<?xml version="1.0" encoding="UTF-8"?>
<svg xmlns="http://www.w3.org/2000/svg" xmlns:xlink="http://www.w3.org/1999/xlink" width="1280" height="720" viewBox="0 0 1280 720">
<defs>
<g>
<g id="glyph-0-0">
<path d="M 1.390625 0.542969 C 1.402344 0.0078125 1.410156 -0.476562 1.410156 -0.910156 C 0.847656 -0.707031 0.535156 -0.5625 0.476562 -0.476562 L 0.238281 -0.867188 C 0.671875 -0.953125 1.0625 -1.042969 1.410156 -1.128906 L 1.410156 -2.0625 L 0.867188 -2.0625 L 0.671875 -1.886719 L 0.433594 -2.214844 C 0.519531 -2.257812 0.605469 -2.375 0.683594 -2.570312 C 0.761719 -2.765625 0.855469 -3.066406 0.953125 -3.472656 C 0.78125 -3.472656 0.613281 -3.449219 0.457031 -3.40625 L 0.261719 -3.601562 L 1 -3.601562 C 1.070312 -3.90625 1.136719 -4.226562 1.195312 -4.558594 L 1.628906 -4.339844 C 1.554688 -4.296875 1.496094 -4.226562 1.453125 -4.125 C 1.410156 -4.023438 1.359375 -3.847656 1.300781 -3.601562 L 1.867188 -3.601562 L 2.125 -3.863281 L 2.472656 -3.472656 L 1.257812 -3.472656 L 0.867188 -2.191406 L 1.410156 -2.191406 C 1.410156 -2.46875 1.402344 -2.769531 1.390625 -3.105469 L 1.886719 -2.886719 L 1.691406 -2.734375 L 1.691406 -2.191406 L 1.976562 -2.191406 L 2.214844 -2.453125 L 2.5625 -2.0625 L 1.691406 -2.0625 L 1.691406 -1.195312 L 2.648438 -1.410156 L 2.667969 -1.34375 L 1.691406 -1 C 1.691406 -0.363281 1.699219 0.109375 1.714844 0.414062 L 1.390625 0.542969 M 4.125 -4.296875 L 3.90625 -4.144531 L 3.753906 -3.496094 L 4.449219 -3.496094 L 4.730469 -3.777344 L 5.121094 -3.363281 L 3.734375 -3.363281 L 3.496094 -2.453125 L 4.621094 -2.453125 L 4.925781 -2.734375 L 5.316406 -2.320312 L 3.472656 -2.320312 L 3.234375 -1.585938 L 4.339844 -1.585938 L 4.515625 -1.78125 L 4.90625 -1.390625 C 4.71875 -1.34375 4.535156 -1.210938 4.363281 -0.988281 C 4.1875 -0.761719 4.023438 -0.535156 3.863281 -0.304688 C 4.210938 -0.144531 4.398438 -0.015625 4.425781 0.0859375 C 4.457031 0.1875 4.457031 0.285156 4.425781 0.378906 C 4.398438 0.472656 4.371094 0.519531 4.339844 0.519531 C 4.296875 0.519531 4.246094 0.484375 4.1875 0.414062 C 4.058594 0.269531 3.882812 0.109375 3.65625 -0.0664062 C 3.433594 -0.238281 3.152344 -0.425781 2.820312 -0.628906 L 2.863281 -0.695312 C 3.097656 -0.609375 3.386719 -0.492188 3.734375 -0.347656 L 4.339844 -1.453125 L 3.253906 -1.453125 L 3.082031 -1.257812 L 2.800781 -1.5625 C 2.859375 -1.578125 2.917969 -1.65625 2.984375 -1.800781 C 3.050781 -1.945312 3.109375 -2.121094 3.167969 -2.320312 L 3.105469 -2.320312 C 2.914062 -2.320312 2.742188 -2.300781 2.582031 -2.257812 L 2.386719 -2.453125 L 3.210938 -2.453125 L 3.429688 -3.363281 L 3.253906 -3.363281 C 3.066406 -3.363281 2.894531 -3.34375 2.734375 -3.300781 L 2.539062 -3.496094 L 3.449219 -3.496094 C 3.550781 -3.898438 3.625 -4.261719 3.667969 -4.578125 Z "/>
</g>
<g id="glyph-0-1">
<path d="M 1.195312 0.519531 C 1.207031 0.0585938 1.214844 -0.382812 1.214844 -0.804688 L 1.214844 -2.710938 C 0.898438 -2.234375 0.59375 -1.84375 0.304688 -1.539062 L 0.238281 -1.605469 C 0.558594 -2.054688 0.855469 -2.574219 1.128906 -3.167969 C 1.402344 -3.761719 1.578125 -4.210938 1.648438 -4.515625 L 2.125 -4.230469 L 1.910156 -4.101562 C 1.722656 -3.683594 1.546875 -3.320312 1.390625 -3.015625 L 1.691406 -2.84375 L 1.519531 -2.667969 L 1.519531 -0.304688 C 1.519531 -0.144531 1.527344 0.0742188 1.539062 0.347656 L 1.195312 0.519531 M 2.996094 -1.84375 L 2.996094 -3.40625 C 2.996094 -3.726562 2.988281 -4.09375 2.972656 -4.515625 L 3.472656 -4.277344 L 3.300781 -4.101562 L 3.300781 -2.082031 C 3.5 -2.273438 3.722656 -2.511719 3.960938 -2.800781 C 4.199219 -3.089844 4.371094 -3.320312 4.472656 -3.496094 L 4.863281 -3.125 L 4.621094 -3.058594 C 4.203125 -2.582031 3.761719 -2.140625 3.300781 -1.734375 L 3.300781 -0.367188 C 3.300781 -0.121094 3.421875 0 3.667969 0 L 4.601562 0 C 4.71875 0 4.789062 -0.09375 4.816406 -0.28125 C 4.847656 -0.46875 4.863281 -0.757812 4.863281 -1.148438 L 4.96875 -1.148438 C 5 -0.757812 5.035156 -0.5 5.078125 -0.367188 C 5.121094 -0.238281 5.203125 -0.152344 5.316406 -0.109375 C 5.1875 0.152344 4.976562 0.28125 4.6875 0.28125 L 3.539062 0.28125 C 3.175781 0.28125 2.996094 0.117188 2.996094 -0.21875 L 2.996094 -1.539062 C 2.617188 -1.25 2.183594 -1.003906 1.691406 -0.804688 L 1.671875 -0.890625 C 2.175781 -1.179688 2.617188 -1.496094 2.996094 -1.84375 Z "/>
</g>
<g id="glyph-0-2">
<path d="M 1.085938 -4.230469 C 1.589844 -3.929688 1.859375 -3.707031 1.886719 -3.570312 C 1.917969 -3.433594 1.902344 -3.328125 1.84375 -3.253906 C 1.785156 -3.183594 1.742188 -3.148438 1.714844 -3.148438 C 1.65625 -3.148438 1.605469 -3.21875 1.5625 -3.363281 C 1.476562 -3.582031 1.296875 -3.847656 1.019531 -4.167969 L 1.085938 -4.230469 M 2.648438 -4.558594 L 3.234375 -4.277344 L 3.015625 -4.125 C 2.972656 -3.703125 2.921875 -3.285156 2.863281 -2.863281 L 4.710938 -2.863281 L 4.882812 -3.148438 L 5.273438 -2.84375 L 5.078125 -2.667969 C 4.976562 -1.367188 4.902344 -0.589844 4.851562 -0.335938 C 4.800781 -0.0820312 4.703125 0.109375 4.558594 0.238281 C 4.414062 0.367188 4.230469 0.464844 4.015625 0.519531 C 3.929688 0.273438 3.632812 0.101562 3.125 0 L 3.125 -0.109375 C 3.617188 -0.0351562 3.941406 -0.00390625 4.101562 -0.0117188 C 4.261719 -0.0195312 4.375 -0.09375 4.449219 -0.238281 C 4.519531 -0.382812 4.621094 -1.214844 4.753906 -2.734375 L 2.84375 -2.734375 C 2.65625 -1.824219 2.316406 -1.105469 1.824219 -0.585938 C 1.332031 -0.0664062 0.832031 0.304688 0.324219 0.519531 L 0.28125 0.457031 C 0.816406 0.109375 1.289062 -0.335938 1.691406 -0.878906 C 2.097656 -1.421875 2.367188 -2.039062 2.496094 -2.734375 L 1.214844 -2.734375 C 1.027344 -2.734375 0.855469 -2.710938 0.695312 -2.667969 L 0.5 -2.863281 L 2.515625 -2.863281 C 2.605469 -3.371094 2.648438 -3.933594 2.648438 -4.558594 M 2.910156 -2.082031 C 3.574219 -1.78125 3.941406 -1.574219 4.015625 -1.464844 C 4.085938 -1.355469 4.125 -1.257812 4.125 -1.171875 C 4.125 -1.101562 4.109375 -1.027344 4.082031 -0.953125 C 4.050781 -0.882812 4.023438 -0.847656 3.992188 -0.847656 C 3.949219 -0.847656 3.878906 -0.925781 3.777344 -1.085938 C 3.632812 -1.316406 3.328125 -1.621094 2.863281 -1.996094 Z "/>
</g>
<g id="glyph-0-3">
<path d="M 1.390625 -3.300781 L 1.390625 -2.582031 L 2.5625 -2.582031 L 2.5625 -3.300781 L 1.390625 -3.300781 M 2.863281 -3.300781 L 2.863281 -2.582031 L 4.101562 -2.582031 L 4.101562 -3.300781 L 2.863281 -3.300781 M 1.390625 -2.453125 L 1.390625 -1.714844 L 2.5625 -1.714844 L 2.5625 -2.453125 L 1.390625 -2.453125 M 2.863281 -2.453125 L 2.863281 -1.714844 L 4.101562 -1.714844 L 4.101562 -2.453125 L 2.863281 -2.453125 M 1.585938 -4.472656 L 1.628906 -4.535156 C 1.832031 -4.421875 2.007812 -4.300781 2.160156 -4.179688 C 2.3125 -4.054688 2.382812 -3.941406 2.375 -3.839844 C 2.371094 -3.738281 2.339844 -3.664062 2.289062 -3.613281 C 2.238281 -3.5625 2.207031 -3.539062 2.191406 -3.539062 C 2.132812 -3.539062 2.078125 -3.625 2.019531 -3.796875 C 1.929688 -4.015625 1.785156 -4.238281 1.585938 -4.472656 M 2.863281 -0.78125 C 2.863281 -0.1875 2.871094 0.203125 2.886719 0.390625 L 2.539062 0.542969 C 2.554688 0.0351562 2.5625 -0.40625 2.5625 -0.78125 L 0.714844 -0.78125 L 0.433594 -0.738281 L 0.261719 -0.910156 L 2.5625 -0.910156 L 2.5625 -1.585938 L 1.390625 -1.585938 L 1.390625 -1.324219 L 1.0625 -1.195312 C 1.078125 -1.597656 1.085938 -2.003906 1.085938 -2.410156 C 1.085938 -2.8125 1.078125 -3.21875 1.0625 -3.625 L 1.410156 -3.429688 L 3.058594 -3.429688 C 3.160156 -3.589844 3.265625 -3.78125 3.375 -4.003906 C 3.484375 -4.226562 3.558594 -4.421875 3.601562 -4.578125 L 4.035156 -4.253906 C 3.921875 -4.210938 3.792969 -4.117188 3.65625 -3.972656 C 3.519531 -3.828125 3.363281 -3.644531 3.191406 -3.429688 L 4.058594 -3.429688 L 4.230469 -3.625 L 4.578125 -3.363281 L 4.382812 -3.210938 C 4.382812 -2.328125 4.390625 -1.75 4.40625 -1.476562 L 4.101562 -1.34375 L 4.101562 -1.585938 L 2.863281 -1.585938 L 2.863281 -0.910156 L 4.492188 -0.910156 L 4.839844 -1.257812 L 5.316406 -0.78125 Z "/>
</g>
<g id="glyph-0-4">
<path d="M 2.429688 -4.363281 L 2.472656 -4.425781 C 2.921875 -4.179688 3.167969 -4.011719 3.210938 -3.917969 C 3.253906 -3.824219 3.277344 -3.761719 3.277344 -3.734375 C 3.277344 -3.660156 3.25 -3.585938 3.191406 -3.503906 C 3.132812 -3.425781 3.097656 -3.386719 3.082031 -3.386719 C 3.023438 -3.386719 2.972656 -3.449219 2.929688 -3.582031 C 2.859375 -3.785156 2.691406 -4.042969 2.429688 -4.363281 M 3.710938 -1.148438 C 3.710938 -0.425781 3.71875 0.09375 3.734375 0.414062 L 3.386719 0.542969 C 3.398438 0.0234375 3.40625 -0.542969 3.40625 -1.148438 L 2.667969 -1.148438 C 2.480469 -1.148438 2.308594 -1.128906 2.148438 -1.085938 L 1.953125 -1.28125 L 3.40625 -1.28125 L 3.40625 -2.191406 L 3.039062 -2.191406 C 2.851562 -2.191406 2.675781 -2.171875 2.515625 -2.125 L 2.320312 -2.320312 L 3.40625 -2.320312 L 3.40625 -3.125 L 3.015625 -3.125 C 2.828125 -3.125 2.65625 -3.105469 2.496094 -3.058594 L 2.300781 -3.253906 L 3.710938 -3.253906 C 3.972656 -3.746094 4.144531 -4.179688 4.230469 -4.558594 L 4.6875 -4.253906 C 4.542969 -4.179688 4.398438 -4.042969 4.253906 -3.839844 C 4.109375 -3.640625 3.972656 -3.445312 3.839844 -3.253906 L 4.472656 -3.253906 L 4.730469 -3.515625 L 5.121094 -3.125 L 3.710938 -3.125 L 3.710938 -2.320312 L 4.320312 -2.320312 L 4.578125 -2.582031 L 4.96875 -2.191406 L 3.710938 -2.191406 L 3.710938 -1.28125 L 4.578125 -1.28125 L 4.863281 -1.5625 L 5.273438 -1.148438 L 3.710938 -1.148438 M 1.433594 -0.652344 C 1.433594 -0.449219 1.441406 -0.0859375 1.453125 0.433594 L 1.105469 0.5625 C 1.121094 -0.289062 1.128906 -1.164062 1.128906 -2.0625 C 0.882812 -1.484375 0.59375 -1.003906 0.261719 -0.628906 L 0.195312 -0.671875 C 0.601562 -1.308594 0.910156 -2.125 1.128906 -3.125 L 0.976562 -3.125 C 0.789062 -3.125 0.613281 -3.105469 0.457031 -3.058594 L 0.261719 -3.253906 L 1.128906 -3.253906 C 1.128906 -3.617188 1.121094 -4.050781 1.105469 -4.558594 L 1.605469 -4.296875 L 1.433594 -4.144531 L 1.433594 -3.253906 L 1.714844 -3.253906 L 1.953125 -3.496094 L 2.320312 -3.125 L 1.433594 -3.125 L 1.433594 -2.539062 C 1.707031 -2.410156 1.894531 -2.300781 1.996094 -2.214844 C 2.097656 -2.125 2.148438 -2.039062 2.148438 -1.953125 C 2.148438 -1.894531 2.128906 -1.824219 2.09375 -1.734375 C 2.058594 -1.648438 2.027344 -1.605469 1.996094 -1.605469 C 1.953125 -1.605469 1.902344 -1.671875 1.84375 -1.800781 C 1.742188 -2.019531 1.605469 -2.222656 1.433594 -2.410156 Z "/>
</g>
<g id="glyph-0-5">
<path d="M 2.953125 -0.738281 C 2.953125 -0.21875 2.957031 0.179688 2.972656 0.457031 L 2.605469 0.585938 C 2.617188 -0.0507812 2.625 -0.492188 2.625 -0.738281 L 1.714844 -0.738281 L 1.519531 -0.695312 L 1.34375 -0.867188 L 2.625 -0.867188 L 2.625 -2.777344 C 2.078125 -1.648438 1.289062 -0.816406 0.261719 -0.28125 L 0.238281 -0.367188 C 1.195312 -1.019531 1.925781 -1.945312 2.429688 -3.148438 L 1.148438 -3.148438 C 0.960938 -3.148438 0.789062 -3.125 0.628906 -3.082031 L 0.433594 -3.277344 L 2.625 -3.277344 C 2.625 -3.667969 2.617188 -4.09375 2.605469 -4.558594 L 3.167969 -4.296875 L 2.953125 -4.125 L 2.953125 -3.277344 L 4.425781 -3.277344 L 4.730469 -3.582031 L 5.164062 -3.148438 L 3.167969 -3.148438 C 3.644531 -1.945312 4.355469 -1.195312 5.296875 -0.890625 L 5.296875 -0.804688 C 5.019531 -0.789062 4.863281 -0.703125 4.816406 -0.542969 C 4.035156 -1.050781 3.449219 -1.917969 3.058594 -3.148438 L 2.953125 -3.148438 L 2.953125 -0.867188 L 3.601562 -0.867188 L 3.863281 -1.128906 L 4.253906 -0.738281 Z "/>
</g>
<g id="glyph-0-6">
</g>
<g id="glyph-0-7">
<path d="M 3.234375 -4.578125 L 3.710938 -4.320312 L 3.539062 -4.210938 C 3.941406 -3.398438 4.535156 -2.9375 5.316406 -2.820312 L 5.316406 -2.734375 C 5.085938 -2.71875 4.941406 -2.632812 4.882812 -2.472656 C 4.203125 -2.777344 3.734375 -3.335938 3.472656 -4.144531 C 3.183594 -3.363281 2.683594 -2.757812 1.976562 -2.320312 L 1.910156 -2.386719 C 2.605469 -2.953125 3.046875 -3.683594 3.234375 -4.578125 M 2.367188 -2.429688 L 3.972656 -2.429688 L 4.1875 -2.648438 L 4.535156 -2.300781 L 3.058594 -2.300781 C 2.84375 -2.300781 2.675781 -2.277344 2.5625 -2.234375 L 2.367188 -2.429688 M 2.300781 -1.648438 L 2.367188 -1.671875 C 2.640625 -1.25 2.796875 -0.980469 2.832031 -0.855469 C 2.867188 -0.734375 2.886719 -0.636719 2.886719 -0.5625 C 2.886719 -0.449219 2.855469 -0.363281 2.789062 -0.304688 C 2.722656 -0.246094 2.683594 -0.21875 2.667969 -0.21875 C 2.613281 -0.21875 2.574219 -0.3125 2.5625 -0.5 C 2.546875 -0.746094 2.460938 -1.128906 2.300781 -1.648438 M 3.058594 -2.039062 L 3.125 -2.0625 C 3.457031 -1.597656 3.644531 -1.265625 3.691406 -1.0625 C 3.734375 -0.859375 3.714844 -0.726562 3.636719 -0.660156 C 3.554688 -0.597656 3.5 -0.5625 3.472656 -0.5625 C 3.414062 -0.5625 3.378906 -0.660156 3.363281 -0.847656 C 3.347656 -1.105469 3.25 -1.503906 3.058594 -2.039062 M 4.773438 -1.84375 L 4.578125 -1.734375 C 4.375 -0.941406 4.152344 -0.324219 3.90625 0.109375 L 4.578125 0.109375 L 4.863281 -0.171875 L 5.273438 0.238281 L 2.496094 0.238281 C 2.308594 0.238281 2.132812 0.261719 1.976562 0.304688 L 1.78125 0.109375 L 3.777344 0.109375 C 4.035156 -0.660156 4.210938 -1.394531 4.296875 -2.105469 L 4.773438 -1.84375 M 1.433594 -0.652344 C 1.433594 -0.449219 1.441406 -0.0859375 1.453125 0.433594 L 1.105469 0.5625 C 1.121094 -0.289062 1.128906 -1.164062 1.128906 -2.0625 C 0.898438 -1.539062 0.609375 -1.101562 0.261719 -0.738281 L 0.21875 -0.804688 C 0.636719 -1.394531 0.933594 -2.15625 1.105469 -3.082031 L 0.585938 -3.082031 L 0.390625 -3.039062 L 0.21875 -3.210938 L 1.128906 -3.210938 C 1.128906 -3.601562 1.121094 -4.050781 1.105469 -4.558594 L 1.628906 -4.339844 L 1.433594 -4.1875 L 1.433594 -3.210938 L 1.757812 -3.210938 L 1.996094 -3.449219 L 2.367188 -3.082031 L 1.433594 -3.082031 L 1.433594 -2.582031 C 1.664062 -2.480469 1.835938 -2.378906 1.953125 -2.277344 C 2.070312 -2.175781 2.125 -2.078125 2.125 -1.976562 C 2.125 -1.929688 2.105469 -1.867188 2.0625 -1.78125 C 2.019531 -1.691406 1.988281 -1.648438 1.976562 -1.648438 C 1.929688 -1.648438 1.882812 -1.722656 1.824219 -1.867188 C 1.722656 -2.082031 1.589844 -2.277344 1.433594 -2.453125 Z "/>
</g>
<g id="glyph-0-8">
<path d="M 3.515625 -4.535156 L 3.949219 -4.277344 L 3.777344 -4.167969 C 4.179688 -3.253906 4.695312 -2.726562 5.316406 -2.582031 L 5.316406 -2.515625 C 5.101562 -2.488281 4.960938 -2.402344 4.90625 -2.257812 C 4.355469 -2.675781 3.957031 -3.292969 3.710938 -4.101562 C 3.304688 -3.234375 2.800781 -2.582031 2.191406 -2.148438 L 2.148438 -2.214844 C 2.496094 -2.5625 2.792969 -2.957031 3.039062 -3.40625 C 3.285156 -3.855469 3.445312 -4.230469 3.515625 -4.535156 M 2.625 -2.429688 L 4.035156 -2.429688 L 4.296875 -2.691406 L 4.644531 -2.300781 L 3.34375 -2.300781 C 3.152344 -2.300781 2.980469 -2.277344 2.820312 -2.234375 L 2.625 -2.429688 M 2.539062 -1.734375 L 2.605469 -1.78125 C 2.878906 -1.34375 3.035156 -1.070312 3.070312 -0.953125 C 3.105469 -0.839844 3.125 -0.746094 3.125 -0.671875 C 3.125 -0.585938 3.101562 -0.5 3.050781 -0.414062 C 3 -0.324219 2.941406 -0.285156 2.875 -0.292969 C 2.8125 -0.300781 2.769531 -0.433594 2.757812 -0.695312 C 2.742188 -0.953125 2.667969 -1.300781 2.539062 -1.734375 M 3.167969 -1.929688 L 3.234375 -1.976562 C 3.609375 -1.496094 3.8125 -1.15625 3.839844 -0.953125 C 3.871094 -0.753906 3.84375 -0.621094 3.765625 -0.5625 C 3.6875 -0.507812 3.640625 -0.476562 3.625 -0.476562 C 3.566406 -0.476562 3.53125 -0.550781 3.515625 -0.695312 C 3.5 -0.898438 3.457031 -1.117188 3.386719 -1.355469 C 3.3125 -1.59375 3.242188 -1.785156 3.167969 -1.929688 M 4.492188 -1.996094 L 4.949219 -1.691406 C 4.847656 -1.648438 4.738281 -1.492188 4.621094 -1.226562 C 4.507812 -0.957031 4.320312 -0.507812 4.058594 0.128906 L 4.601562 0.128906 L 4.90625 -0.171875 L 5.296875 0.261719 L 2.929688 0.261719 C 2.742188 0.261719 2.566406 0.28125 2.410156 0.324219 L 2.214844 0.128906 L 3.929688 0.128906 C 4.304688 -1.054688 4.492188 -1.765625 4.492188 -1.996094 M 0.347656 -4.058594 L 1.691406 -4.058594 L 1.867188 -4.277344 L 2.191406 -3.992188 L 1.996094 -3.863281 L 1.78125 -1.976562 L 1.929688 -1.976562 L 2.0625 -2.148438 L 2.386719 -1.886719 L 2.214844 -1.757812 C 2.140625 -0.875 2.070312 -0.339844 1.996094 -0.152344 C 1.925781 0.0351562 1.832031 0.171875 1.714844 0.25 C 1.597656 0.328125 1.476562 0.382812 1.34375 0.414062 C 1.332031 0.210938 1.121094 0.0429688 0.714844 -0.0859375 L 0.738281 -0.171875 C 1.144531 -0.0859375 1.394531 -0.046875 1.496094 -0.0546875 C 1.597656 -0.0625 1.683594 -0.171875 1.746094 -0.378906 C 1.8125 -0.589844 1.875 -1.078125 1.929688 -1.84375 L 0.867188 -1.84375 L 0.714844 -1.671875 L 0.433594 -1.929688 L 0.585938 -2.019531 C 0.703125 -2.84375 0.765625 -3.386719 0.78125 -3.644531 L 1.214844 -3.40625 L 1.042969 -3.277344 L 0.867188 -1.976562 L 1.496094 -1.976562 L 1.714844 -3.929688 L 1.0625 -3.929688 C 0.875 -3.929688 0.703125 -3.90625 0.542969 -3.863281 L 0.347656 -4.058594 M 0.195312 -0.933594 C 0.484375 -0.960938 1 -1.050781 1.734375 -1.195312 L 1.757812 -1.105469 C 0.933594 -0.859375 0.492188 -0.679688 0.433594 -0.5625 Z "/>
</g>
<g id="glyph-0-9">
<path d="M 1.929688 -0.890625 C 2.019531 -0.832031 2.0625 -0.738281 2.0625 -0.609375 C 2.0625 -0.476562 2.015625 -0.382812 1.921875 -0.324219 C 1.828125 -0.269531 1.75 -0.238281 1.691406 -0.238281 C 1.648438 -0.238281 1.582031 -0.265625 1.488281 -0.316406 C 1.394531 -0.367188 1.339844 -0.460938 1.324219 -0.597656 C 1.308594 -0.734375 1.347656 -0.832031 1.441406 -0.890625 C 1.539062 -0.949219 1.621094 -0.976562 1.691406 -0.976562 C 1.765625 -0.976562 1.84375 -0.949219 1.929688 -0.890625 M 1.996094 -3.484375 C 1.980469 -3.332031 1.941406 -2.925781 1.878906 -2.269531 C 1.8125 -1.609375 1.753906 -1.28125 1.703125 -1.28125 C 1.652344 -1.28125 1.589844 -1.609375 1.519531 -2.269531 C 1.445312 -2.925781 1.40625 -3.339844 1.398438 -3.503906 C 1.394531 -3.671875 1.433594 -3.777344 1.519531 -3.820312 C 1.605469 -3.863281 1.671875 -3.886719 1.714844 -3.886719 C 1.773438 -3.886719 1.835938 -3.855469 1.910156 -3.796875 C 1.980469 -3.738281 2.011719 -3.636719 1.996094 -3.484375 Z "/>
</g>
<g id="glyph-1-0">
<path d="M 1.847656 -0.117188 C 1.730469 -0.0664062 1.617188 -0.0273438 1.515625 0.0078125 C 1.410156 0.0390625 1.28125 0.0585938 1.128906 0.0585938 C 0.902344 0.0585938 0.746094 0 0.65625 -0.113281 C 0.5625 -0.226562 0.519531 -0.386719 0.519531 -0.589844 L 0.519531 -2.402344 L 0.0351562 -2.402344 L 0.0351562 -2.664062 L 0.527344 -2.664062 L 0.527344 -3.496094 L 1.023438 -3.496094 L 1.023438 -2.664062 L 1.789062 -2.664062 L 1.789062 -2.402344 L 1.027344 -2.402344 L 1.027344 -0.910156 C 1.027344 -0.796875 1.03125 -0.703125 1.039062 -0.628906 C 1.046875 -0.554688 1.066406 -0.488281 1.097656 -0.429688 C 1.128906 -0.378906 1.171875 -0.339844 1.230469 -0.3125 C 1.285156 -0.285156 1.363281 -0.269531 1.460938 -0.269531 C 1.507812 -0.269531 1.574219 -0.273438 1.660156 -0.285156 C 1.75 -0.292969 1.8125 -0.300781 1.847656 -0.316406 Z "/>
</g>
<g id="glyph-1-1">
</g>
</g>
</defs>
<g fill="rgb(65.098039%, 81.176471%, 54.901961%)" fill-opacity="1">
<use xlink:href="#glyph-0-0" x="30" y="25.455078"/>
<use xlink:href="#glyph-0-1" x="36" y="25.455078"/>
<use xlink:href="#glyph-0-2" x="42" y="25.455078"/>
<use xlink:href="#glyph-0-3" x="48" y="25.455078"/>
<use xlink:href="#glyph-0-4" x="54" y="25.455078"/>
<use xlink:href="#glyph-0-5" x="60" y="25.455078"/>
<use xlink:href="#glyph-0-6" x="66" y="25.455078"/>
</g>
<g fill="rgb(65.098039%, 81.176471%, 54.901961%)" fill-opacity="1">
<use xlink:href="#glyph-1-0" x="69" y="25.094727"/>
<use xlink:href="#glyph-1-1" x="71" y="25.094727"/>
</g>
<g fill="rgb(65.098039%, 81.176471%, 54.901961%)" fill-opacity="1">
<use xlink:href="#glyph-0-7" x="72" y="25.455078"/>
<use xlink:href="#glyph-0-8" x="78" y="25.455078"/>
<use xlink:href="#glyph-0-9" x="84" y="25.455078"/>
</g>
</svg>
