<?xml version="1.0" encoding="UTF-8"?>
<svg xmlns="http://www.w3.org/2000/svg" xmlns:xlink="http://www.w3.org/1999/xlink" width="1280" height="720" viewBox="0 0 1280 720">
<defs>
<g>
<g id="glyph-0-0">
<path d="M 2.777344 -2.414062 C 2.789062 -2.96875 2.785156 -3.378906 2.761719 -3.644531 L 3.175781 -3.453125 L 3.019531 -3.316406 C 3.019531 -2.957031 3.015625 -2.65625 3.003906 -2.414062 L 3.730469 -2.414062 L 3.886719 -2.585938 L 4.148438 -2.359375 L 4.011719 -2.257812 C 3.964844 -1.378906 3.929688 -0.785156 3.90625 -0.476562 C 3.882812 -0.171875 3.828125 0.0390625 3.742188 0.15625 C 3.652344 0.273438 3.523438 0.359375 3.351562 0.417969 C 3.339844 0.253906 3.117188 0.105469 2.691406 -0.0351562 L 2.707031 -0.121094 C 3.101562 -0.0507812 3.347656 -0.015625 3.445312 -0.015625 C 3.542969 -0.015625 3.609375 -0.140625 3.644531 -0.382812 C 3.679688 -0.625 3.71875 -1.265625 3.765625 -2.308594 L 3.003906 -2.308594 C 2.96875 -1.835938 2.902344 -1.441406 2.804688 -1.128906 C 2.707031 -0.816406 2.539062 -0.535156 2.308594 -0.285156 C 2.078125 -0.0390625 1.730469 0.195312 1.265625 0.417969 L 1.214844 0.363281 C 1.597656 0.144531 1.890625 -0.0820312 2.101562 -0.320312 C 2.308594 -0.558594 2.464844 -0.824219 2.570312 -1.121094 C 2.671875 -1.414062 2.742188 -1.8125 2.777344 -2.308594 L 2.308594 -2.308594 L 2.101562 -2.273438 L 1.960938 -2.414062 L 2.777344 -2.414062 M 1.355469 -0.886719 C 1.679688 -0.964844 1.960938 -1.046875 2.203125 -1.128906 L 2.238281 -1.058594 C 1.730469 -0.875 1.320312 -0.71875 1.015625 -0.589844 C 0.707031 -0.464844 0.53125 -0.363281 0.484375 -0.296875 L 0.242188 -0.625 C 0.417969 -0.648438 0.710938 -0.71875 1.128906 -0.832031 L 1.128906 -2.777344 L 0.867188 -2.777344 C 0.71875 -2.777344 0.578125 -2.761719 0.453125 -2.726562 L 0.296875 -2.882812 L 1.734375 -2.882812 L 1.925781 -3.074219 L 2.222656 -2.777344 L 1.355469 -2.777344 Z "/>
</g>
<g id="glyph-0-1">
<path d="M 0.398438 -2.792969 L 1.371094 -2.792969 C 1.359375 -2.898438 1.328125 -3.007812 1.277344 -3.125 C 1.222656 -3.242188 1.132812 -3.378906 1.007812 -3.542969 L 1.058594 -3.574219 C 1.277344 -3.449219 1.429688 -3.339844 1.511719 -3.253906 C 1.589844 -3.167969 1.632812 -3.089844 1.632812 -3.019531 C 1.632812 -2.949219 1.597656 -2.875 1.527344 -2.792969 L 1.980469 -2.792969 L 2.1875 -3.003906 L 2.5 -2.691406 L 0.972656 -2.691406 C 0.820312 -2.691406 0.683594 -2.671875 0.554688 -2.636719 L 0.398438 -2.792969 M 0.988281 -2.550781 L 1.320312 -2.324219 L 1.164062 -2.257812 C 0.828125 -1.78125 0.550781 -1.464844 0.328125 -1.300781 L 0.277344 -1.335938 C 0.589844 -1.695312 0.828125 -2.101562 0.988281 -2.550781 M 1.597656 -2.480469 L 1.632812 -2.535156 C 1.886719 -2.417969 2.054688 -2.324219 2.136719 -2.257812 C 2.214844 -2.1875 2.257812 -2.117188 2.257812 -2.046875 C 2.257812 -2.003906 2.242188 -1.945312 2.214844 -1.875 C 2.183594 -1.804688 2.160156 -1.769531 2.136719 -1.769531 C 2.101562 -1.769531 2.058594 -1.824219 2.015625 -1.925781 C 1.933594 -2.101562 1.792969 -2.285156 1.597656 -2.480469 M 0.867188 -1.546875 C 1.066406 -1.417969 1.253906 -1.277344 1.441406 -1.128906 C 1.578125 -1.417969 1.667969 -1.65625 1.703125 -1.839844 L 2.015625 -1.578125 C 1.933594 -1.554688 1.792969 -1.359375 1.597656 -0.988281 C 1.78125 -0.828125 1.914062 -0.699219 1.988281 -0.597656 C 2.0625 -0.5 2.101562 -0.410156 2.101562 -0.328125 C 2.101562 -0.285156 2.085938 -0.230469 2.058594 -0.164062 C 2.027344 -0.101562 2.007812 -0.0703125 1.996094 -0.0703125 C 1.960938 -0.0703125 1.921875 -0.128906 1.875 -0.242188 C 1.792969 -0.40625 1.667969 -0.597656 1.492188 -0.816406 C 1.15625 -0.316406 0.769531 0.0625 0.328125 0.328125 L 0.296875 0.277344 C 0.699219 -0.046875 1.054688 -0.464844 1.355469 -0.972656 C 1.15625 -1.179688 0.984375 -1.355469 0.832031 -1.492188 L 0.867188 -1.546875 M 2.8125 -2.429688 L 2.742188 -2.257812 C 2.835938 -1.703125 2.96875 -1.242188 3.140625 -0.886719 C 3.339844 -1.265625 3.476562 -1.78125 3.558594 -2.429688 L 2.8125 -2.429688 M 2.898438 -3.644531 L 3.316406 -3.4375 C 3.234375 -3.402344 3.175781 -3.351562 3.140625 -3.28125 C 3.105469 -3.210938 3.007812 -2.960938 2.847656 -2.535156 L 3.730469 -2.535156 L 3.941406 -2.742188 L 4.253906 -2.429688 L 3.800781 -2.429688 C 3.710938 -1.722656 3.53125 -1.132812 3.261719 -0.660156 C 3.566406 -0.21875 3.886719 0.0273438 4.234375 0.0859375 L 4.234375 0.15625 C 4.027344 0.167969 3.898438 0.230469 3.855469 0.347656 C 3.585938 0.152344 3.339844 -0.132812 3.105469 -0.503906 C 2.726562 -0.109375 2.257812 0.203125 1.703125 0.433594 L 1.667969 0.382812 C 2.246094 0.0703125 2.691406 -0.289062 3.003906 -0.695312 C 2.816406 -1.167969 2.707031 -1.644531 2.671875 -2.117188 C 2.535156 -1.816406 2.390625 -1.574219 2.238281 -1.390625 L 2.1875 -1.421875 C 2.5 -2.023438 2.738281 -2.765625 2.898438 -3.644531 Z "/>
</g>
<g id="glyph-0-2">
<path d="M 2.8125 -1.390625 L 2.8125 -0.140625 L 3.523438 -0.140625 L 3.523438 -1.390625 L 2.8125 -1.390625 M 0.695312 -2.8125 L 0.972656 -2.65625 L 1.648438 -2.65625 C 1.648438 -3.085938 1.644531 -3.414062 1.632812 -3.644531 L 2.03125 -3.453125 L 1.875 -3.332031 L 1.875 -2.65625 L 2.585938 -2.65625 C 2.585938 -3.128906 2.582031 -3.460938 2.570312 -3.644531 L 2.984375 -3.4375 L 2.8125 -3.332031 L 2.8125 -2.65625 L 3.488281 -2.65625 L 3.644531 -2.828125 L 3.921875 -2.605469 L 3.765625 -2.480469 C 3.765625 -0.976562 3.773438 -0.09375 3.785156 0.171875 L 3.523438 0.296875 L 3.523438 -0.0351562 L 0.953125 -0.0351562 L 0.953125 0.242188 L 0.695312 0.363281 C 0.707031 -0.179688 0.710938 -0.71875 0.710938 -1.257812 C 0.710938 -1.796875 0.707031 -2.316406 0.695312 -2.8125 M 0.953125 -2.550781 L 0.953125 -1.492188 L 1.648438 -1.492188 L 1.648438 -2.550781 L 0.953125 -2.550781 M 1.875 -2.550781 L 1.875 -1.492188 L 2.585938 -1.492188 L 2.585938 -2.550781 L 1.875 -2.550781 M 2.8125 -2.550781 L 2.8125 -1.492188 L 3.523438 -1.492188 L 3.523438 -2.550781 L 2.8125 -2.550781 M 0.953125 -1.390625 L 0.953125 -0.140625 L 1.648438 -0.140625 L 1.648438 -1.390625 L 0.953125 -1.390625 M 1.875 -1.390625 L 1.875 -0.140625 L 2.585938 -0.140625 L 2.585938 -1.390625 Z "/>
</g>
<g id="glyph-0-3">
<path d="M 2.707031 -2.359375 C 2.707031 -2.199219 2.71875 -1.984375 2.742188 -1.71875 L 3.558594 -1.804688 L 3.785156 -2.066406 L 4.132812 -1.769531 L 2.761719 -1.632812 C 2.792969 -1.273438 2.851562 -0.988281 2.933594 -0.78125 C 3.1875 -1.011719 3.390625 -1.253906 3.542969 -1.511719 L 3.855469 -1.199219 L 3.699219 -1.179688 C 3.476562 -0.972656 3.257812 -0.765625 3.039062 -0.554688 C 3.246094 -0.265625 3.488281 -0.0625 3.765625 0.0507812 L 4.011719 -0.78125 L 4.078125 -0.765625 C 4.054688 -0.496094 4.042969 -0.277344 4.035156 -0.105469 C 4.03125 0.0703125 4.054688 0.207031 4.113281 0.3125 C 4.125 0.335938 4.132812 0.351562 4.132812 0.363281 C 4.132812 0.410156 4.070312 0.425781 3.949219 0.40625 C 3.828125 0.390625 3.664062 0.320312 3.464844 0.199219 C 3.261719 0.078125 3.054688 -0.117188 2.847656 -0.382812 C 2.636719 -0.242188 2.425781 -0.128906 2.214844 -0.0351562 C 2 0.0585938 1.730469 0.152344 1.40625 0.242188 L 1.390625 0.171875 C 1.886719 -0.0117188 2.332031 -0.265625 2.726562 -0.589844 C 2.621094 -0.902344 2.550781 -1.238281 2.515625 -1.597656 L 1.804688 -1.511719 L 1.667969 -1.441406 L 1.476562 -1.578125 L 2.5 -1.683594 C 2.488281 -1.847656 2.476562 -2.066406 2.464844 -2.34375 L 1.960938 -2.308594 L 1.859375 -2.238281 L 1.703125 -2.378906 L 2.464844 -2.429688 C 2.453125 -2.835938 2.441406 -3.242188 2.429688 -3.644531 L 2.828125 -3.453125 L 2.691406 -3.332031 C 2.691406 -3.089844 2.695312 -2.792969 2.707031 -2.449219 L 3.453125 -2.515625 L 3.679688 -2.777344 L 4.027344 -2.464844 L 2.707031 -2.359375 M 2.96875 -3.351562 L 2.984375 -3.402344 C 3.34375 -3.308594 3.542969 -3.230469 3.574219 -3.167969 C 3.609375 -3.105469 3.628906 -3.050781 3.628906 -3.003906 C 3.628906 -2.945312 3.617188 -2.886719 3.59375 -2.828125 C 3.570312 -2.773438 3.546875 -2.742188 3.523438 -2.742188 C 3.5 -2.742188 3.464844 -2.789062 3.417969 -2.882812 C 3.339844 -3.007812 3.1875 -3.164062 2.96875 -3.351562 M 1.058594 -3.574219 L 1.40625 -3.351562 C 1.3125 -3.316406 1.214844 -3.199219 1.109375 -3.003906 C 1.007812 -2.792969 0.816406 -2.5 0.539062 -2.117188 L 1.25 -2.1875 C 1.390625 -2.417969 1.5 -2.648438 1.578125 -2.882812 L 1.890625 -2.65625 C 1.8125 -2.609375 1.671875 -2.441406 1.476562 -2.152344 C 1.277344 -1.863281 1.023438 -1.515625 0.710938 -1.109375 C 0.875 -1.132812 1.234375 -1.199219 1.789062 -1.300781 L 1.789062 -1.234375 C 1.476562 -1.152344 1.234375 -1.078125 1.058594 -1.015625 C 0.886719 -0.953125 0.710938 -0.863281 0.539062 -0.746094 L 0.328125 -1.109375 C 0.457031 -1.144531 0.605469 -1.269531 0.773438 -1.484375 C 0.941406 -1.699219 1.085938 -1.910156 1.214844 -2.117188 C 1.085938 -2.09375 0.953125 -2.0625 0.816406 -2.023438 C 0.675781 -1.980469 0.550781 -1.910156 0.433594 -1.804688 L 0.242188 -2.136719 C 0.371094 -2.160156 0.519531 -2.324219 0.6875 -2.628906 C 0.851562 -2.9375 0.976562 -3.253906 1.058594 -3.574219 M 0.226562 -0.261719 C 0.550781 -0.308594 0.808594 -0.347656 1.007812 -0.382812 C 1.203125 -0.417969 1.523438 -0.480469 1.960938 -0.574219 L 1.980469 -0.503906 C 1.457031 -0.351562 1.078125 -0.234375 0.84375 -0.148438 C 0.605469 -0.0625 0.457031 0.0117188 0.398438 0.0703125 Z "/>
</g>
</g>
</defs>
<g fill="rgb(51.372549%, 75.686275%, 40.392157%)" fill-opacity="1">
<use xlink:href="#glyph-0-0" x="30" y="23.818359"/>
<use xlink:href="#glyph-0-1" x="34" y="23.818359"/>
<use xlink:href="#glyph-0-2" x="38" y="23.818359"/>
<use xlink:href="#glyph-0-3" x="42" y="23.818359"/>
</g>
</svg>
