<?xml version="1.0" encoding="UTF-8"?>
<svg xmlns="http://www.w3.org/2000/svg" xmlns:xlink="http://www.w3.org/1999/xlink" width="1280" height="720" viewBox="0 0 1280 720">
<defs>
<g>
<g id="glyph-0-0">
<path d="M 3.175781 -2.269531 C 3.667969 -2.21875 3.980469 -2.113281 4.117188 -1.945312 C 4.253906 -1.777344 4.320312 -1.613281 4.320312 -1.457031 C 4.320312 -1.390625 4.300781 -1.296875 4.261719 -1.167969 C 4.222656 -1.042969 4.089844 -0.894531 3.867188 -0.726562 C 3.644531 -0.5625 3.335938 -0.484375 2.949219 -0.5 C 2.558594 -0.515625 2.269531 -0.605469 2.078125 -0.765625 C 1.886719 -0.921875 1.773438 -1.054688 1.742188 -1.15625 C 1.710938 -1.261719 1.695312 -1.335938 1.695312 -1.382812 C 1.695312 -1.480469 1.722656 -1.546875 1.777344 -1.585938 C 1.835938 -1.628906 1.886719 -1.648438 1.933594 -1.648438 C 1.996094 -1.648438 2.070312 -1.625 2.148438 -1.574219 C 2.226562 -1.527344 2.25 -1.460938 2.21875 -1.371094 C 2.1875 -1.285156 2.140625 -1.226562 2.078125 -1.195312 C 2.042969 -1.175781 2.027344 -1.160156 2.027344 -1.144531 C 2.027344 -1.097656 2.097656 -1.011719 2.230469 -0.882812 C 2.367188 -0.757812 2.59375 -0.695312 2.914062 -0.703125 C 3.230469 -0.710938 3.472656 -0.789062 3.640625 -0.929688 C 3.808594 -1.074219 3.890625 -1.242188 3.890625 -1.433594 C 3.890625 -1.625 3.796875 -1.800781 3.605469 -1.96875 C 3.414062 -2.136719 3.015625 -2.210938 2.410156 -2.195312 L 2.410156 -2.339844 C 2.808594 -2.324219 3.132812 -2.359375 3.378906 -2.445312 C 3.625 -2.535156 3.742188 -2.722656 3.734375 -3.007812 C 3.726562 -3.292969 3.636719 -3.476562 3.460938 -3.554688 C 3.285156 -3.636719 3.109375 -3.675781 2.9375 -3.675781 C 2.839844 -3.675781 2.71875 -3.664062 2.566406 -3.640625 C 2.414062 -3.617188 2.3125 -3.570312 2.253906 -3.496094 C 2.199219 -3.425781 2.171875 -3.375 2.171875 -3.339844 C 2.171875 -3.292969 2.195312 -3.269531 2.242188 -3.269531 C 2.339844 -3.238281 2.378906 -3.160156 2.363281 -3.03125 C 2.347656 -2.902344 2.277344 -2.832031 2.148438 -2.816406 C 2.019531 -2.800781 1.933594 -2.828125 1.886719 -2.898438 C 1.839844 -2.972656 1.8125 -3.03125 1.8125 -3.078125 C 1.8125 -3.175781 1.875 -3.304688 1.992188 -3.472656 C 2.113281 -3.640625 2.273438 -3.75 2.46875 -3.808594 C 2.667969 -3.863281 2.839844 -3.890625 2.984375 -3.890625 C 3.09375 -3.890625 3.257812 -3.867188 3.472656 -3.820312 C 3.6875 -3.769531 3.859375 -3.675781 3.984375 -3.53125 C 4.113281 -3.390625 4.175781 -3.238281 4.175781 -3.078125 C 4.175781 -2.96875 4.148438 -2.828125 4.09375 -2.660156 C 4.039062 -2.496094 3.730469 -2.363281 3.175781 -2.269531 M 5.132812 -0.238281 C 4.65625 0.285156 4.007812 0.574219 3.1875 0.621094 C 2.367188 0.667969 1.667969 0.414062 1.085938 -0.144531 C 0.503906 -0.699219 0.210938 -1.351562 0.203125 -2.101562 C 0.195312 -2.847656 0.398438 -3.46875 0.8125 -3.960938 C 1.226562 -4.457031 1.640625 -4.757812 2.054688 -4.871094 C 2.464844 -4.980469 2.808594 -5.035156 3.078125 -5.035156 C 3.316406 -5.035156 3.632812 -4.988281 4.023438 -4.894531 C 4.410156 -4.796875 4.820312 -4.5 5.25 -4 C 5.679688 -3.496094 5.886719 -2.875 5.871094 -2.136719 C 5.855469 -1.394531 5.609375 -0.765625 5.132812 -0.238281 M 4.058594 0.261719 C 4.457031 0.136719 4.828125 -0.167969 5.179688 -0.644531 C 5.53125 -1.121094 5.6875 -1.707031 5.65625 -2.398438 C 5.625 -3.089844 5.351562 -3.679688 4.832031 -4.164062 C 4.316406 -4.652344 3.695312 -4.882812 2.972656 -4.859375 C 2.246094 -4.832031 1.636719 -4.554688 1.132812 -4.023438 C 0.632812 -3.488281 0.390625 -2.871094 0.40625 -2.171875 C 0.421875 -1.472656 0.640625 -0.898438 1.0625 -0.453125 C 1.484375 -0.0078125 1.871094 0.253906 2.21875 0.335938 C 2.570312 0.414062 2.839844 0.453125 3.03125 0.453125 C 3.316406 0.453125 3.660156 0.390625 4.058594 0.261719 Z "/>
</g>
<g id="glyph-0-1">
</g>
<g id="glyph-0-2">
<path d="M 0.261719 -3.746094 L 5.011719 -3.746094 L 5.371094 -4.105469 L 5.871094 -3.605469 L 2.9375 -3.605469 C 2.921875 -3.300781 2.878906 -2.953125 2.816406 -2.554688 L 4.367188 -2.554688 L 4.605469 -2.792969 L 4.988281 -2.433594 L 4.75 -2.292969 C 4.589844 -1.066406 4.480469 -0.34375 4.414062 -0.121094 C 4.351562 0.101562 4.253906 0.257812 4.117188 0.347656 C 3.980469 0.433594 3.796875 0.507812 3.554688 0.574219 C 3.492188 0.316406 3.230469 0.09375 2.769531 -0.09375 L 2.792969 -0.191406 C 3.222656 -0.0625 3.503906 0.00390625 3.640625 0.0117188 C 3.777344 0.0195312 3.878906 -0.0078125 3.949219 -0.0703125 C 4.023438 -0.136719 4.089844 -0.339844 4.152344 -0.679688 C 4.21875 -1.023438 4.296875 -1.597656 4.390625 -2.410156 L 2.792969 -2.410156 C 2.523438 -1.027344 1.742188 -0.0390625 0.453125 0.550781 L 0.40625 0.453125 C 1.839844 -0.359375 2.554688 -1.710938 2.554688 -3.605469 L 1.050781 -3.605469 C 0.84375 -3.605469 0.652344 -3.582031 0.476562 -3.53125 L 0.261719 -3.746094 M 2.554688 -4.917969 C 2.96875 -4.757812 3.210938 -4.621094 3.28125 -4.511719 C 3.355469 -4.398438 3.390625 -4.3125 3.390625 -4.25 C 3.390625 -4.183594 3.359375 -4.109375 3.292969 -4.023438 C 3.230469 -3.933594 3.191406 -3.890625 3.175781 -3.890625 C 3.109375 -3.890625 3.046875 -3.976562 2.984375 -4.152344 C 2.886719 -4.390625 2.730469 -4.621094 2.507812 -4.84375 Z "/>
</g>
<g id="glyph-0-3">
<path d="M 1.527344 -4.871094 L 1.574219 -4.941406 C 1.988281 -4.78125 2.226562 -4.65625 2.292969 -4.558594 C 2.355469 -4.464844 2.386719 -4.382812 2.386719 -4.320312 C 2.386719 -4.242188 2.367188 -4.164062 2.328125 -4.09375 C 2.289062 -4.023438 2.25 -3.984375 2.21875 -3.984375 C 2.171875 -3.984375 2.125 -4.050781 2.078125 -4.175781 C 1.980469 -4.382812 1.796875 -4.613281 1.527344 -4.871094 M 3.054688 -3.746094 C 2.992188 -3.445312 2.9375 -3.207031 2.886719 -3.03125 L 4.441406 -3.03125 L 4.75 -3.339844 L 5.203125 -2.886719 L 2.863281 -2.886719 C 2.800781 -2.664062 2.714844 -2.425781 2.601562 -2.171875 L 4.84375 -2.171875 L 5.226562 -2.554688 L 5.753906 -2.027344 L 2.554688 -2.027344 C 2.0625 -1.105469 1.320312 -0.367188 0.335938 0.191406 L 0.308594 0.09375 C 1.152344 -0.492188 1.789062 -1.203125 2.21875 -2.027344 L 0.90625 -2.027344 L 0.574219 -1.980469 L 0.382812 -2.171875 L 2.269531 -2.171875 C 2.363281 -2.410156 2.449219 -2.648438 2.53125 -2.886719 L 1.480469 -2.886719 L 1.167969 -2.839844 L 0.980469 -3.03125 L 2.554688 -3.03125 C 2.617188 -3.285156 2.664062 -3.523438 2.699219 -3.746094 L 1.195312 -3.746094 L 0.859375 -3.699219 L 0.667969 -3.890625 L 3.582031 -3.890625 C 3.867188 -4.433594 4.027344 -4.804688 4.058594 -5.011719 L 4.582031 -4.703125 C 4.425781 -4.6875 4.136719 -4.414062 3.722656 -3.890625 L 4.820312 -3.890625 L 5.179688 -4.25 L 5.679688 -3.746094 L 3.054688 -3.746094 M 2.054688 -1.21875 L 4.441406 -1.21875 L 4.726562 -1.503906 L 5.15625 -1.074219 L 3.675781 -1.074219 L 3.675781 0.167969 L 4.964844 0.167969 L 5.300781 -0.167969 L 5.777344 0.308594 L 1.957031 0.308594 C 1.75 0.308594 1.558594 0.335938 1.382812 0.382812 L 1.167969 0.167969 L 3.339844 0.167969 L 3.339844 -1.074219 L 2.507812 -1.074219 L 2.242188 -1.027344 Z "/>
</g>
<g id="glyph-0-4">
<path d="M 4.535156 -4.226562 L 4.296875 -4.058594 C 3.960938 -3.5 3.628906 -3.039062 3.292969 -2.671875 C 3.515625 -2.515625 3.855469 -2.351562 4.308594 -2.183594 C 4.761719 -2.015625 5.265625 -1.902344 5.824219 -1.839844 L 5.824219 -1.742188 C 5.539062 -1.726562 5.363281 -1.625 5.300781 -1.433594 C 5.058594 -1.480469 4.710938 -1.601562 4.25 -1.800781 C 3.789062 -2 3.390625 -2.226562 3.054688 -2.484375 C 2.640625 -2.164062 2.21875 -1.902344 1.789062 -1.695312 L 1.933594 -1.597656 L 3.984375 -1.597656 L 4.152344 -1.789062 L 4.535156 -1.480469 L 4.34375 -1.335938 L 4.34375 -0.335938 C 4.34375 -0.09375 4.351562 0.152344 4.367188 0.40625 L 4.011719 0.574219 L 4.011719 0.09375 L 1.933594 0.09375 L 1.933594 0.453125 L 1.574219 0.597656 C 1.589844 0.230469 1.597656 -0.0703125 1.597656 -0.308594 L 1.597656 -1.597656 C 1.3125 -1.425781 0.890625 -1.25 0.335938 -1.074219 L 0.308594 -1.167969 C 0.898438 -1.425781 1.414062 -1.691406 1.851562 -1.96875 C 2.289062 -2.246094 2.617188 -2.492188 2.839844 -2.699219 C 2.523438 -3.0625 2.242188 -3.476562 2.003906 -3.9375 C 1.863281 -3.746094 1.699219 -3.574219 1.515625 -3.414062 C 1.332031 -3.253906 1.113281 -3.09375 0.859375 -2.9375 L 0.8125 -3.03125 C 1.160156 -3.332031 1.453125 -3.660156 1.683594 -4.011719 C 1.914062 -4.359375 2.09375 -4.695312 2.21875 -5.011719 L 2.699219 -4.679688 L 2.484375 -4.558594 L 2.292969 -4.320312 L 3.960938 -4.320312 L 4.152344 -4.558594 L 4.535156 -4.226562 M 2.21875 -4.175781 L 2.101562 -4.035156 C 2.371094 -3.605469 2.6875 -3.222656 3.054688 -2.886719 C 3.375 -3.253906 3.667969 -3.683594 3.9375 -4.175781 L 2.21875 -4.175781 M 1.933594 -1.457031 L 1.933594 -0.046875 L 4.011719 -0.046875 L 4.011719 -1.457031 Z "/>
</g>
<g id="glyph-0-5">
<path d="M 0.261719 0.40625 C 0.835938 -0.515625 1.105469 -1.605469 1.074219 -2.863281 C 1.074219 -3.660156 1.066406 -4.21875 1.050781 -4.535156 L 1.382812 -4.320312 C 2.339844 -4.398438 3.09375 -4.5 3.652344 -4.617188 C 4.210938 -4.738281 4.574219 -4.855469 4.75 -4.964844 L 5.15625 -4.558594 C 4.648438 -4.511719 4.121094 -4.457031 3.582031 -4.390625 C 3.023438 -4.328125 2.292969 -4.265625 1.382812 -4.199219 L 1.382812 -2.625 C 1.433594 -1.417969 1.074219 -0.390625 0.308594 0.453125 L 0.261719 0.40625 M 3.246094 -3.484375 C 3.246094 -3.738281 3.238281 -3.984375 3.222656 -4.226562 L 3.722656 -4.011719 L 3.554688 -3.867188 L 3.554688 -3.484375 L 4.703125 -3.484375 L 5.011719 -3.769531 L 5.417969 -3.339844 L 3.554688 -3.339844 L 3.554688 -2.671875 L 4.535156 -2.671875 L 4.703125 -2.914062 L 5.085938 -2.625 L 4.894531 -2.457031 C 4.894531 -1.648438 4.902344 -1.097656 4.917969 -0.8125 L 4.582031 -0.644531 L 4.582031 -2.53125 L 2.292969 -2.53125 L 2.292969 -0.691406 L 1.957031 -0.550781 C 1.972656 -1.027344 1.980469 -1.453125 1.980469 -1.824219 C 1.980469 -2.199219 1.972656 -2.546875 1.957031 -2.863281 L 2.292969 -2.671875 L 3.246094 -2.671875 L 3.246094 -3.339844 L 2.242188 -3.339844 C 2.070312 -3.339844 1.894531 -3.316406 1.71875 -3.269531 L 1.503906 -3.484375 L 3.246094 -3.484375 M 1.167969 0.523438 C 1.535156 0.398438 1.890625 0.226562 2.230469 0.0117188 C 2.574219 -0.203125 2.816406 -0.449219 2.960938 -0.726562 C 3.101562 -1.007812 3.183594 -1.285156 3.199219 -1.5625 C 3.214844 -1.84375 3.222656 -2.085938 3.222656 -2.292969 L 3.746094 -2.027344 L 3.554688 -1.863281 C 3.523438 -1.128906 3.328125 -0.589844 2.972656 -0.238281 C 2.613281 0.113281 2.019531 0.390625 1.195312 0.597656 L 1.167969 0.523438 M 3.460938 -0.691406 C 4.175781 -0.5 4.65625 -0.355469 4.894531 -0.25 C 5.132812 -0.148438 5.257812 -0.0507812 5.273438 0.0351562 C 5.292969 0.125 5.300781 0.191406 5.300781 0.238281 C 5.300781 0.316406 5.289062 0.386719 5.261719 0.441406 C 5.238281 0.496094 5.21875 0.523438 5.203125 0.523438 C 5.15625 0.523438 5.09375 0.484375 5.011719 0.40625 C 4.886719 0.261719 4.710938 0.117188 4.488281 -0.0351562 C 4.265625 -0.1875 3.914062 -0.375 3.4375 -0.597656 Z "/>
</g>
<g id="glyph-0-6">
<path d="M 1.789062 -2.769531 L 1.789062 -1.457031 L 4.414062 -1.457031 L 4.414062 -2.769531 L 1.789062 -2.769531 M 1.410156 -0.882812 C 1.425781 -1.21875 1.433594 -1.574219 1.433594 -1.957031 C 1.433594 -2.339844 1.425781 -2.722656 1.410156 -3.101562 L 1.789062 -2.914062 L 2.816406 -2.914062 C 2.816406 -3.976562 2.808594 -4.671875 2.792969 -4.988281 L 3.339844 -4.773438 L 3.152344 -4.582031 L 3.152344 -4.011719 L 4.703125 -4.011719 L 5.011719 -4.320312 L 5.441406 -3.867188 L 3.152344 -3.867188 L 3.152344 -2.914062 L 4.367188 -2.914062 L 4.605469 -3.152344 L 4.964844 -2.792969 L 4.75 -2.625 C 4.75 -1.878906 4.757812 -1.367188 4.773438 -1.097656 L 4.414062 -0.953125 L 4.414062 -1.3125 L 1.789062 -1.3125 L 1.789062 -1.027344 L 1.410156 -0.882812 M 1.289062 -0.765625 L 1.382812 -0.765625 C 1.289062 -0.144531 1.191406 0.21875 1.085938 0.320312 C 0.984375 0.425781 0.890625 0.476562 0.8125 0.476562 C 0.765625 0.476562 0.707031 0.457031 0.644531 0.417969 C 0.582031 0.378906 0.550781 0.335938 0.550781 0.285156 C 0.550781 0.238281 0.589844 0.183594 0.667969 0.121094 C 0.8125 0.0078125 0.917969 -0.09375 0.992188 -0.191406 C 1.0625 -0.285156 1.160156 -0.476562 1.289062 -0.765625 M 2.125 -0.644531 L 2.171875 -0.714844 C 2.507812 -0.460938 2.691406 -0.28125 2.734375 -0.179688 C 2.773438 -0.0742188 2.792969 0 2.792969 0.046875 C 2.792969 0.160156 2.757812 0.25 2.683594 0.320312 C 2.613281 0.394531 2.570312 0.429688 2.554688 0.429688 C 2.492188 0.429688 2.449219 0.351562 2.433594 0.191406 C 2.402344 -0.046875 2.300781 -0.328125 2.125 -0.644531 M 3.390625 -0.667969 L 3.4375 -0.738281 C 3.738281 -0.515625 3.925781 -0.34375 4 -0.214844 C 4.070312 -0.0859375 4.105469 0 4.105469 0.046875 C 4.105469 0.128906 4.070312 0.207031 4 0.285156 C 3.925781 0.367188 3.882812 0.40625 3.867188 0.40625 C 3.804688 0.40625 3.753906 0.308594 3.722656 0.121094 C 3.675781 -0.152344 3.566406 -0.414062 3.390625 -0.667969 M 4.679688 -0.738281 L 4.726562 -0.8125 C 5.042969 -0.589844 5.261719 -0.398438 5.382812 -0.238281 C 5.503906 -0.078125 5.5625 0.0390625 5.5625 0.121094 C 5.5625 0.199219 5.53125 0.277344 5.464844 0.359375 C 5.402344 0.4375 5.363281 0.476562 5.347656 0.476562 C 5.28125 0.476562 5.226562 0.382812 5.179688 0.191406 C 5.101562 -0.078125 4.933594 -0.390625 4.679688 -0.738281 Z "/>
</g>
<g id="glyph-0-7">
<path d="M 1.886719 -1.648438 L 1.886719 -2.769531 C 1.3125 -2.6875 0.972656 -2.601562 0.859375 -2.507812 L 0.644531 -2.9375 C 0.867188 -2.953125 1.097656 -3.109375 1.335938 -3.414062 C 1.574219 -3.714844 1.765625 -4.027344 1.910156 -4.34375 L 1.289062 -4.34375 C 1.082031 -4.34375 0.890625 -4.320312 0.714844 -4.273438 L 0.5 -4.488281 L 2.914062 -4.488281 L 3.222656 -4.796875 L 3.675781 -4.34375 L 2.003906 -4.34375 L 2.433594 -4.082031 C 2.242188 -4.019531 2.042969 -3.875 1.839844 -3.652344 C 1.613281 -3.414062 1.367188 -3.175781 1.097656 -2.9375 L 3.007812 -2.984375 C 2.863281 -3.207031 2.679688 -3.4375 2.457031 -3.675781 L 2.53125 -3.746094 C 3.199219 -3.285156 3.546875 -2.976562 3.582031 -2.816406 C 3.613281 -2.65625 3.589844 -2.539062 3.507812 -2.457031 C 3.429688 -2.378906 3.375 -2.339844 3.339844 -2.339844 C 3.308594 -2.339844 3.285156 -2.371094 3.269531 -2.433594 C 3.222656 -2.546875 3.152344 -2.6875 3.054688 -2.863281 C 2.707031 -2.832031 2.363281 -2.800781 2.027344 -2.769531 L 2.410156 -2.578125 L 2.21875 -2.410156 L 2.21875 -1.648438 L 2.863281 -1.648438 L 3.152344 -1.933594 L 3.582031 -1.503906 L 2.21875 -1.503906 L 2.21875 -0.359375 L 3.582031 -0.621094 L 3.605469 -0.5 C 1.789062 -0.0390625 0.8125 0.261719 0.667969 0.40625 L 0.40625 -0.0703125 C 0.675781 -0.101562 1.167969 -0.175781 1.886719 -0.285156 L 1.886719 -1.503906 L 0.980469 -1.503906 L 0.691406 -1.457031 L 0.5 -1.648438 L 1.886719 -1.648438 M 4.34375 -3.722656 L 4.34375 -1.503906 C 4.34375 -1.34375 4.351562 -1.128906 4.367188 -0.859375 L 4.011719 -0.714844 C 4.027344 -1.242188 4.035156 -1.835938 4.035156 -2.496094 C 4.035156 -3.15625 4.027344 -3.714844 4.011719 -4.175781 L 4.558594 -3.890625 L 4.34375 -3.722656 M 4.175781 0.0703125 L 4.175781 -0.046875 C 4.414062 -0.015625 4.640625 0 4.84375 0 C 4.957031 0 5.042969 -0.0117188 5.109375 -0.0351562 C 5.171875 -0.0585938 5.195312 -0.175781 5.179688 -0.382812 L 5.179688 -4.128906 C 5.179688 -4.367188 5.171875 -4.640625 5.15625 -4.941406 L 5.679688 -4.703125 L 5.488281 -4.535156 L 5.488281 -0.167969 C 5.507812 0.230469 5.332031 0.484375 4.964844 0.597656 C 4.933594 0.359375 4.671875 0.183594 4.175781 0.0703125 Z "/>
</g>
<g id="glyph-0-8">
<path d="M 3.175781 -2.171875 L 3.175781 -1.527344 L 4.367188 -1.527344 L 4.367188 -2.171875 L 3.175781 -2.171875 M 1.335938 -1.097656 C 1.351562 -1.480469 1.359375 -1.847656 1.359375 -2.195312 C 1.359375 -2.546875 1.351562 -2.902344 1.335938 -3.269531 L 1.695312 -3.078125 L 2.863281 -3.078125 L 2.863281 -3.628906 L 1.335938 -3.628906 C 1.128906 -3.628906 0.9375 -3.605469 0.765625 -3.554688 L 0.550781 -3.769531 L 2.863281 -3.769531 L 2.863281 -4.34375 C 2.035156 -4.3125 1.441406 -4.289062 1.074219 -4.273438 L 1.074219 -4.367188 C 1.855469 -4.414062 2.5625 -4.492188 3.199219 -4.59375 C 3.835938 -4.699219 4.273438 -4.8125 4.511719 -4.941406 L 4.871094 -4.511719 C 4.679688 -4.527344 4.480469 -4.527344 4.273438 -4.511719 C 4.050781 -4.480469 3.683594 -4.441406 3.175781 -4.390625 L 3.175781 -3.769531 L 4.75 -3.769531 L 5.109375 -4.105469 L 5.5625 -3.628906 L 3.175781 -3.628906 L 3.175781 -3.078125 L 4.34375 -3.078125 L 4.511719 -3.316406 L 4.871094 -3.03125 L 4.679688 -2.863281 C 4.679688 -2.195312 4.6875 -1.664062 4.703125 -1.265625 L 4.367188 -1.097656 L 4.367188 -1.382812 L 3.175781 -1.382812 L 3.175781 -0.738281 L 4.464844 -0.738281 L 4.773438 -1.050781 L 5.203125 -0.597656 L 3.175781 -0.597656 L 3.175781 0.121094 L 4.964844 0.121094 L 5.347656 -0.261719 L 5.824219 0.261719 L 1.050781 0.261719 C 0.84375 0.261719 0.652344 0.285156 0.476562 0.335938 L 0.261719 0.121094 L 2.863281 0.121094 L 2.863281 -0.597656 L 1.648438 -0.597656 C 1.441406 -0.597656 1.25 -0.574219 1.074219 -0.523438 L 0.859375 -0.738281 L 2.863281 -0.738281 L 2.863281 -1.382812 L 1.695312 -1.382812 L 1.695312 -1.242188 L 1.335938 -1.097656 M 1.695312 -2.9375 L 1.695312 -2.316406 L 2.863281 -2.316406 L 2.863281 -2.9375 L 1.695312 -2.9375 M 1.695312 -2.171875 L 1.695312 -1.527344 L 2.863281 -1.527344 L 2.863281 -2.171875 L 1.695312 -2.171875 M 3.175781 -2.9375 L 3.175781 -2.316406 L 4.367188 -2.316406 L 4.367188 -2.9375 Z "/>
</g>
<g id="glyph-0-9">
<path d="M 2.625 -4.65625 C 3.007812 -4.433594 3.285156 -4.242188 3.460938 -4.082031 C 3.636719 -3.921875 3.710938 -3.757812 3.6875 -3.59375 C 3.664062 -3.425781 3.621094 -3.3125 3.554688 -3.257812 C 3.492188 -3.203125 3.445312 -3.175781 3.414062 -3.175781 C 3.332031 -3.175781 3.261719 -3.285156 3.199219 -3.507812 C 3.101562 -3.796875 2.886719 -4.152344 2.554688 -4.582031 L 2.625 -4.65625 M 1.933594 -3.628906 L 2.53125 -3.316406 L 2.316406 -3.125 L 2.316406 -0.691406 C 2.300781 -0.375 2.410156 -0.207031 2.648438 -0.191406 L 4.011719 -0.191406 C 4.183594 -0.207031 4.292969 -0.34375 4.332031 -0.597656 C 4.371094 -0.851562 4.398438 -1.183594 4.414062 -1.597656 L 4.535156 -1.597656 C 4.535156 -1.167969 4.554688 -0.855469 4.59375 -0.65625 C 4.632812 -0.457031 4.742188 -0.328125 4.917969 -0.261719 C 4.789062 -0.0078125 4.558594 0.121094 4.226562 0.121094 L 2.457031 0.121094 C 2.09375 0.101562 1.925781 -0.136719 1.957031 -0.597656 L 1.957031 -2.554688 C 1.957031 -2.96875 1.949219 -3.324219 1.933594 -3.628906 M 1.167969 -2.769531 L 1.289062 -2.769531 C 1.289062 -2.257812 1.273438 -1.886719 1.242188 -1.648438 C 1.210938 -1.410156 1.140625 -1.25 1.039062 -1.167969 C 0.933594 -1.089844 0.835938 -1.050781 0.738281 -1.050781 C 0.691406 -1.050781 0.632812 -1.0625 0.5625 -1.085938 C 0.488281 -1.109375 0.453125 -1.144531 0.453125 -1.195312 C 0.453125 -1.273438 0.523438 -1.390625 0.667969 -1.550781 C 0.875 -1.789062 1.042969 -2.195312 1.167969 -2.769531 M 4.628906 -2.792969 L 4.703125 -2.839844 C 5.179688 -2.410156 5.464844 -2.117188 5.5625 -1.957031 C 5.65625 -1.796875 5.6875 -1.640625 5.65625 -1.480469 C 5.625 -1.320312 5.578125 -1.222656 5.515625 -1.179688 C 5.449219 -1.140625 5.402344 -1.121094 5.371094 -1.121094 C 5.292969 -1.121094 5.234375 -1.234375 5.203125 -1.457031 C 5.15625 -1.742188 4.964844 -2.1875 4.628906 -2.792969 Z "/>
</g>
<g id="glyph-0-10">
<path d="M 1.027344 -4.34375 L 1.027344 -3.03125 L 2.171875 -3.03125 L 2.171875 -4.34375 L 1.027344 -4.34375 M 1.765625 -0.523438 L 2.769531 -0.835938 L 2.792969 -0.738281 C 2.300781 -0.53125 1.847656 -0.351562 1.433594 -0.191406 C 1.003906 -0.015625 0.683594 0.152344 0.476562 0.308594 L 0.214844 -0.09375 L 0.644531 -0.214844 C 0.644531 -1.28125 0.636719 -1.980469 0.621094 -2.316406 L 1.121094 -2.027344 L 0.929688 -1.910156 L 0.929688 -0.285156 L 1.480469 -0.453125 L 1.480469 -2.886719 L 1.027344 -2.886719 L 1.027344 -2.699219 L 0.714844 -2.578125 C 0.730469 -2.929688 0.738281 -3.28125 0.738281 -3.640625 C 0.738281 -4 0.730469 -4.34375 0.714844 -4.679688 L 1.027344 -4.488281 L 2.148438 -4.488281 L 2.363281 -4.703125 L 2.648438 -4.414062 L 2.457031 -4.273438 C 2.457031 -3.554688 2.464844 -3.085938 2.484375 -2.863281 L 2.171875 -2.699219 L 2.171875 -2.886719 L 1.765625 -2.886719 L 1.765625 -1.957031 L 2.078125 -1.957031 L 2.316406 -2.195312 L 2.671875 -1.8125 L 1.765625 -1.8125 L 1.765625 -0.523438 M 5.203125 -2.886719 C 5.203125 -2.011719 5.210938 -1.480469 5.226562 -1.289062 L 4.894531 -1.144531 L 4.894531 -1.503906 L 3.339844 -1.503906 L 3.339844 -0.0234375 L 5.132812 -0.0234375 L 5.417969 -0.308594 L 5.824219 0.121094 L 3.390625 0.121094 L 3.175781 0.335938 L 2.816406 0.0234375 L 3.03125 -0.121094 L 3.03125 -3.796875 C 3.03125 -4.035156 3.023438 -4.328125 3.007812 -4.679688 L 3.339844 -4.464844 L 4.988281 -4.464844 L 5.25 -4.726562 L 5.632812 -4.320312 L 3.339844 -4.320312 L 3.339844 -3.152344 L 4.871094 -3.152344 L 5.085938 -3.367188 L 5.394531 -3.054688 L 5.203125 -2.886719 M 3.339844 -3.007812 L 3.339844 -1.648438 L 4.894531 -1.648438 L 4.894531 -3.007812 Z "/>
</g>
<g id="glyph-0-11">
<path d="M 2.507812 -4.964844 L 2.53125 -5.035156 C 2.894531 -4.957031 3.125 -4.875 3.222656 -4.785156 C 3.316406 -4.699219 3.367188 -4.621094 3.367188 -4.558594 C 3.367188 -4.480469 3.316406 -4.382812 3.222656 -4.273438 L 4.964844 -4.273438 L 5.300781 -4.582031 L 5.753906 -4.128906 L 1.121094 -4.128906 C 0.914062 -4.128906 0.722656 -4.105469 0.550781 -4.058594 L 0.335938 -4.273438 L 3.054688 -4.273438 C 3.007812 -4.414062 2.945312 -4.539062 2.863281 -4.644531 C 2.785156 -4.746094 2.664062 -4.855469 2.507812 -4.964844 M 2.101562 -0.691406 L 3.84375 -0.714844 C 3.683594 -0.921875 3.507812 -1.097656 3.316406 -1.242188 L 3.367188 -1.3125 C 3.84375 -1.105469 4.128906 -0.945312 4.226562 -0.835938 C 4.320312 -0.722656 4.367188 -0.621094 4.367188 -0.523438 C 4.367188 -0.460938 4.351562 -0.390625 4.320312 -0.308594 C 4.289062 -0.230469 4.257812 -0.191406 4.226562 -0.191406 C 4.191406 -0.191406 4.167969 -0.214844 4.152344 -0.261719 C 4.089844 -0.359375 4.019531 -0.46875 3.9375 -0.597656 C 3.222656 -0.550781 2.738281 -0.503906 2.484375 -0.464844 C 2.226562 -0.425781 2.035156 -0.359375 1.910156 -0.261719 L 1.671875 -0.738281 C 1.796875 -0.738281 1.9375 -0.808594 2.089844 -0.941406 C 2.238281 -1.078125 2.410156 -1.296875 2.601562 -1.597656 L 1.167969 -1.597656 C 1.167969 -0.40625 1.175781 0.277344 1.195312 0.453125 L 0.835938 0.597656 C 0.851562 0.0703125 0.859375 -0.363281 0.859375 -0.703125 C 0.859375 -1.046875 0.851562 -1.464844 0.835938 -1.957031 L 1.167969 -1.742188 L 2.671875 -1.742188 C 2.800781 -1.949219 2.894531 -2.132812 2.960938 -2.292969 L 1.695312 -2.292969 L 1.550781 -2.101562 L 1.21875 -2.363281 L 1.359375 -2.507812 C 1.359375 -2.902344 1.351562 -3.382812 1.335938 -3.9375 L 1.863281 -3.722656 L 1.671875 -3.53125 L 1.671875 -2.433594 L 4.390625 -2.433594 C 4.390625 -2.785156 4.382812 -3.277344 4.367188 -3.914062 L 4.917969 -3.675781 L 4.703125 -3.507812 C 4.71875 -2.761719 4.726562 -2.316406 4.726562 -2.171875 L 4.390625 -2.027344 L 4.390625 -2.292969 L 3.03125 -2.292969 L 3.414062 -2.078125 C 3.222656 -1.964844 3.085938 -1.855469 3.007812 -1.742188 L 4.894531 -1.742188 L 5.058594 -1.980469 L 5.441406 -1.671875 L 5.25 -1.527344 L 5.25 -0.121094 C 5.28125 0.230469 5.109375 0.460938 4.726562 0.574219 C 4.726562 0.367188 4.480469 0.207031 3.984375 0.09375 L 3.984375 0 C 4.449219 0.03125 4.722656 0.046875 4.808594 0.046875 C 4.898438 0.046875 4.941406 0.0078125 4.941406 -0.0703125 L 4.941406 -1.597656 L 2.9375 -1.597656 C 2.648438 -1.234375 2.371094 -0.929688 2.101562 -0.691406 M 3.125 -3.484375 C 3.351562 -3.660156 3.523438 -3.835938 3.652344 -4.011719 L 3.960938 -3.675781 C 3.820312 -3.644531 3.613281 -3.539062 3.339844 -3.367188 C 3.675781 -3.222656 3.875 -3.109375 3.9375 -3.03125 C 4.003906 -2.953125 4.035156 -2.863281 4.035156 -2.769531 C 4.035156 -2.722656 4.023438 -2.664062 4 -2.601562 C 3.972656 -2.539062 3.953125 -2.507812 3.9375 -2.507812 C 3.890625 -2.507812 3.835938 -2.5625 3.769531 -2.671875 C 3.644531 -2.832031 3.4375 -3 3.152344 -3.175781 C 2.753906 -2.9375 2.332031 -2.738281 1.886719 -2.578125 L 1.863281 -2.648438 C 2.277344 -2.855469 2.640625 -3.078125 2.960938 -3.316406 C 2.722656 -3.460938 2.417969 -3.621094 2.054688 -3.796875 L 2.078125 -3.867188 C 2.441406 -3.753906 2.792969 -3.628906 3.125 -3.484375 Z "/>
</g>
<g id="glyph-0-12">
<path d="M 1.074219 -3.605469 L 1.074219 -2.078125 L 2.316406 -2.078125 L 2.316406 -3.605469 L 1.074219 -3.605469 M 1.074219 -1.933594 L 1.074219 -0.261719 L 2.316406 -0.261719 L 2.316406 -1.933594 L 1.074219 -1.933594 M 2.625 -3.460938 C 2.625 -1.597656 2.632812 -0.382812 2.648438 0.191406 L 2.316406 0.382812 L 2.316406 -0.121094 L 1.074219 -0.121094 L 1.074219 0.285156 L 0.738281 0.476562 C 0.757812 -0.269531 0.765625 -1.015625 0.765625 -1.753906 C 0.765625 -2.496094 0.757812 -3.230469 0.738281 -3.960938 L 1.097656 -3.746094 L 1.335938 -3.746094 C 1.496094 -4.289062 1.582031 -4.703125 1.597656 -4.988281 L 2.125 -4.703125 C 1.964844 -4.621094 1.75 -4.304688 1.480469 -3.746094 L 2.269531 -3.746094 L 2.507812 -3.984375 L 2.863281 -3.628906 L 2.625 -3.460938 M 3.796875 -4.964844 L 4.320312 -4.65625 C 4.191406 -4.574219 3.996094 -4.25 3.722656 -3.675781 L 5.011719 -3.675781 L 5.273438 -3.9375 L 5.632812 -3.582031 L 5.417969 -3.414062 C 5.386719 -1.550781 5.34375 -0.496094 5.289062 -0.25 C 5.230469 -0.00390625 5.152344 0.167969 5.046875 0.261719 C 4.945312 0.359375 4.78125 0.445312 4.558594 0.523438 C 4.480469 0.269531 4.21875 0.078125 3.769531 -0.046875 L 3.769531 -0.167969 C 4.167969 -0.0859375 4.457031 -0.046875 4.628906 -0.046875 C 4.804688 -0.046875 4.914062 -0.183594 4.953125 -0.453125 C 4.992188 -0.722656 5.027344 -1.75 5.058594 -3.53125 L 3.675781 -3.53125 C 3.390625 -3.070312 3.085938 -2.679688 2.769531 -2.363281 L 2.699219 -2.410156 C 3.03125 -2.921875 3.277344 -3.375 3.4375 -3.769531 C 3.597656 -4.167969 3.714844 -4.566406 3.796875 -4.964844 M 3.367188 -2.625 C 3.746094 -2.339844 3.96875 -2.128906 4.035156 -1.992188 C 4.097656 -1.859375 4.128906 -1.757812 4.128906 -1.695312 C 4.128906 -1.582031 4.097656 -1.488281 4.035156 -1.410156 C 3.96875 -1.328125 3.921875 -1.289062 3.890625 -1.289062 C 3.828125 -1.289062 3.78125 -1.398438 3.746094 -1.625 C 3.683594 -1.941406 3.539062 -2.25 3.316406 -2.554688 Z "/>
</g>
<g id="glyph-0-13">
<path d="M 1.433594 -3.628906 C 1.433594 -4.199219 1.425781 -4.664062 1.410156 -5.011719 L 1.980469 -4.75 L 1.765625 -4.582031 L 1.765625 -3.628906 L 2.625 -3.628906 L 2.816406 -3.867188 L 3.175781 -3.554688 L 2.960938 -3.390625 C 2.914062 -1.542969 2.824219 -0.476562 2.699219 -0.191406 C 2.570312 0.09375 2.355469 0.269531 2.054688 0.335938 C 2.070312 0.128906 1.847656 -0.0625 1.382812 -0.238281 L 1.410156 -0.359375 C 1.773438 -0.261719 2.011719 -0.214844 2.125 -0.214844 C 2.1875 -0.214844 2.253906 -0.234375 2.328125 -0.273438 C 2.398438 -0.3125 2.460938 -0.496094 2.519531 -0.824219 C 2.574219 -1.148438 2.617188 -2.035156 2.648438 -3.484375 L 1.765625 -3.484375 C 1.75 -2.960938 1.722656 -2.503906 1.683594 -2.113281 C 1.644531 -1.722656 1.527344 -1.304688 1.335938 -0.859375 C 1.144531 -0.414062 0.804688 0.0390625 0.308594 0.5 L 0.238281 0.429688 C 0.605469 0 0.871094 -0.421875 1.039062 -0.835938 C 1.207031 -1.25 1.3125 -1.671875 1.359375 -2.101562 C 1.410156 -2.53125 1.433594 -2.992188 1.433594 -3.484375 L 0.789062 -3.484375 L 0.5 -3.4375 L 0.308594 -3.628906 L 1.433594 -3.628906 M 5.464844 -3.53125 L 5.464844 -0.929688 C 5.464844 -0.550781 5.472656 -0.183594 5.488281 0.167969 L 5.15625 0.308594 L 5.15625 -0.335938 L 3.890625 -0.335938 L 3.890625 0.285156 L 3.554688 0.453125 C 3.574219 -0.0390625 3.582031 -0.78125 3.582031 -1.765625 C 3.582031 -2.753906 3.574219 -3.492188 3.554688 -3.984375 L 3.914062 -3.746094 L 5.109375 -3.746094 L 5.324219 -3.960938 L 5.632812 -3.652344 L 5.464844 -3.53125 M 3.890625 -3.605469 L 3.890625 -0.476562 L 5.15625 -0.476562 L 5.15625 -3.605469 Z "/>
</g>
<g id="glyph-0-14">
<path d="M 3.152344 -4.058594 C 3.277344 -2.929688 3.539062 -2.054688 3.9375 -1.433594 C 4.320312 -2.085938 4.605469 -2.960938 4.796875 -4.058594 L 3.152344 -4.058594 M 2.53125 -4.199219 L 4.773438 -4.199219 L 4.941406 -4.464844 L 5.371094 -4.128906 L 5.15625 -3.960938 C 4.917969 -2.738281 4.574219 -1.78125 4.128906 -1.097656 C 4.703125 -0.460938 5.28125 -0.0859375 5.871094 0.0234375 L 5.871094 0.121094 C 5.585938 0.152344 5.410156 0.253906 5.347656 0.429688 C 4.742188 0.0625 4.265625 -0.375 3.914062 -0.882812 C 3.292969 -0.230469 2.625 0.246094 1.910156 0.550781 L 1.863281 0.476562 C 2.640625 0.015625 3.261719 -0.53125 3.722656 -1.167969 C 3.359375 -1.902344 3.125 -2.863281 3.03125 -4.058594 L 2.746094 -3.984375 L 2.53125 -4.199219 M 1.742188 -2.601562 C 1.742188 -0.882812 1.75 0.136719 1.765625 0.453125 L 1.382812 0.621094 C 1.398438 -0.128906 1.410156 -1.105469 1.410156 -2.316406 C 1.136719 -1.648438 0.765625 -1.058594 0.285156 -0.550781 L 0.238281 -0.621094 C 0.765625 -1.382812 1.144531 -2.308594 1.382812 -3.390625 L 0.621094 -3.390625 L 0.40625 -3.339844 L 0.214844 -3.53125 L 1.410156 -3.53125 C 1.410156 -4.027344 1.398438 -4.511719 1.382812 -4.988281 L 1.957031 -4.75 L 1.742188 -4.558594 L 1.742188 -3.53125 L 2.125 -3.53125 L 2.410156 -3.820312 L 2.839844 -3.390625 L 1.742188 -3.390625 L 1.742188 -2.746094 C 2.15625 -2.570312 2.421875 -2.425781 2.542969 -2.316406 C 2.660156 -2.203125 2.722656 -2.09375 2.722656 -1.980469 C 2.722656 -1.917969 2.703125 -1.835938 2.660156 -1.730469 C 2.621094 -1.628906 2.585938 -1.574219 2.554688 -1.574219 C 2.507812 -1.574219 2.441406 -1.664062 2.363281 -1.839844 C 2.234375 -2.09375 2.027344 -2.347656 1.742188 -2.601562 Z "/>
</g>
<g id="glyph-0-15">
<path d="M 3.222656 -0.714844 C 3.222656 -0.367188 3.230469 -0.015625 3.246094 0.335938 L 2.839844 0.5 C 2.855469 0.0078125 2.863281 -0.4375 2.863281 -0.835938 L 2.863281 -2.21875 L 1.003906 -2.21875 C 0.796875 -2.21875 0.605469 -2.195312 0.429688 -2.148438 L 0.214844 -2.363281 L 2.863281 -2.363281 L 2.863281 -4.367188 L 1.527344 -4.367188 C 1.320312 -4.367188 1.128906 -4.34375 0.953125 -4.296875 L 0.738281 -4.511719 L 4.628906 -4.511719 L 4.964844 -4.84375 L 5.441406 -4.367188 L 3.222656 -4.367188 L 3.222656 -2.363281 L 4.964844 -2.363281 L 5.324219 -2.722656 L 5.824219 -2.21875 L 3.222656 -2.21875 L 3.222656 -0.714844 M 4.535156 -4.128906 L 5.035156 -3.746094 C 4.910156 -3.746094 4.734375 -3.605469 4.511719 -3.316406 C 4.273438 -3.03125 4.019531 -2.761719 3.746094 -2.507812 L 3.675781 -2.554688 C 4.089844 -3.109375 4.375 -3.636719 4.535156 -4.128906 M 1.242188 -4.011719 C 1.703125 -3.675781 1.972656 -3.449219 2.054688 -3.328125 C 2.132812 -3.210938 2.171875 -3.101562 2.171875 -3.007812 C 2.171875 -2.960938 2.160156 -2.898438 2.136719 -2.828125 C 2.113281 -2.757812 2.058594 -2.6875 1.96875 -2.625 C 1.882812 -2.5625 1.796875 -2.671875 1.71875 -2.960938 C 1.640625 -3.230469 1.457031 -3.566406 1.167969 -3.960938 Z "/>
</g>
<g id="glyph-0-16">
<path d="M 3.890625 -4.65625 L 3.652344 -4.511719 C 3.539062 -4.257812 3.429688 -4.003906 3.316406 -3.746094 L 5.15625 -3.746094 L 5.371094 -3.984375 L 5.703125 -3.675781 L 5.515625 -3.507812 C 5.480469 -1.679688 5.429688 -0.617188 5.359375 -0.320312 C 5.289062 -0.0273438 5.179688 0.179688 5.035156 0.296875 C 4.894531 0.417969 4.71875 0.515625 4.511719 0.597656 C 4.449219 0.359375 4.152344 0.167969 3.628906 0.0234375 L 3.628906 -0.09375 C 4.121094 0 4.46875 0.0351562 4.667969 0.0117188 C 4.867188 -0.0117188 4.992188 -0.253906 5.046875 -0.714844 C 5.105469 -1.175781 5.148438 -2.140625 5.179688 -3.605469 L 3.269531 -3.605469 C 2.984375 -3.078125 2.6875 -2.65625 2.386719 -2.339844 L 2.292969 -2.386719 C 2.59375 -2.832031 2.832031 -3.292969 3.007812 -3.769531 C 3.183594 -4.25 3.285156 -4.648438 3.316406 -4.964844 L 3.890625 -4.65625 M 3.339844 -3.03125 C 3.707031 -2.824219 3.941406 -2.652344 4.046875 -2.519531 C 4.148438 -2.382812 4.199219 -2.277344 4.199219 -2.195312 C 4.199219 -2.117188 4.164062 -2.027344 4.09375 -1.933594 C 4.023438 -1.839844 3.96875 -1.789062 3.9375 -1.789062 C 3.890625 -1.789062 3.84375 -1.871094 3.796875 -2.027344 C 3.730469 -2.269531 3.554688 -2.578125 3.269531 -2.960938 L 3.339844 -3.03125 M 4.75 -1.671875 C 4.464844 -1.464844 4.105469 -1.226562 3.675781 -0.953125 C 3.230469 -0.667969 2.929688 -0.421875 2.769531 -0.214844 L 2.410156 -0.667969 C 2.632812 -0.730469 2.933594 -0.851562 3.304688 -1.027344 C 3.679688 -1.203125 4.144531 -1.449219 4.703125 -1.765625 L 4.75 -1.671875 M 1.625 -1.050781 L 2.648438 -1.433594 L 2.699219 -1.3125 C 2.09375 -1.027344 1.613281 -0.792969 1.265625 -0.609375 C 0.914062 -0.425781 0.699219 -0.277344 0.621094 -0.167969 L 0.261719 -0.644531 C 0.691406 -0.757812 1.035156 -0.859375 1.289062 -0.953125 L 1.289062 -3.007812 L 0.714844 -3.007812 L 0.5 -2.960938 L 0.308594 -3.152344 L 1.289062 -3.152344 C 1.289062 -4.042969 1.28125 -4.640625 1.265625 -4.941406 L 1.839844 -4.65625 L 1.625 -4.464844 L 1.625 -3.152344 L 1.886719 -3.152344 L 2.148438 -3.414062 L 2.53125 -3.007812 L 1.625 -3.007812 Z "/>
</g>
<g id="glyph-1-0">
<path d="M 4.347656 -2.089844 C 4.347656 -1.730469 4.28125 -1.417969 4.144531 -1.15625 C 4.007812 -0.890625 3.832031 -0.671875 3.617188 -0.503906 C 3.398438 -0.335938 3.152344 -0.207031 2.878906 -0.125 C 2.605469 -0.0429688 2.324219 0 2.035156 0 L 0.28125 0 L 0.28125 -0.210938 C 0.339844 -0.210938 0.414062 -0.21875 0.503906 -0.226562 C 0.597656 -0.238281 0.660156 -0.25 0.6875 -0.265625 C 0.75 -0.292969 0.792969 -0.328125 0.820312 -0.378906 C 0.847656 -0.429688 0.859375 -0.492188 0.859375 -0.5625 L 0.859375 -3.621094 C 0.859375 -3.6875 0.847656 -3.746094 0.824219 -3.800781 C 0.800781 -3.855469 0.757812 -3.898438 0.6875 -3.929688 C 0.628906 -3.960938 0.5625 -3.980469 0.488281 -3.996094 C 0.417969 -4.007812 0.355469 -4.019531 0.304688 -4.023438 L 0.304688 -4.234375 L 2.152344 -4.234375 C 2.410156 -4.234375 2.660156 -4.195312 2.90625 -4.117188 C 3.152344 -4.039062 3.367188 -3.929688 3.550781 -3.796875 C 3.800781 -3.621094 3.996094 -3.390625 4.136719 -3.101562 C 4.277344 -2.816406 4.347656 -2.480469 4.347656 -2.089844 M 3.617188 -2.09375 C 3.617188 -2.378906 3.578125 -2.632812 3.503906 -2.863281 C 3.425781 -3.09375 3.316406 -3.292969 3.171875 -3.464844 C 3.035156 -3.628906 2.867188 -3.753906 2.664062 -3.847656 C 2.464844 -3.941406 2.242188 -3.988281 2 -3.988281 C 1.917969 -3.988281 1.824219 -3.988281 1.722656 -3.984375 C 1.621094 -3.980469 1.542969 -3.980469 1.496094 -3.976562 L 1.496094 -0.726562 C 1.496094 -0.542969 1.546875 -0.417969 1.652344 -0.347656 C 1.757812 -0.28125 1.921875 -0.246094 2.140625 -0.246094 C 2.390625 -0.246094 2.613281 -0.289062 2.800781 -0.378906 C 2.992188 -0.46875 3.144531 -0.59375 3.261719 -0.75 C 3.382812 -0.917969 3.472656 -1.113281 3.53125 -1.332031 C 3.589844 -1.550781 3.617188 -1.804688 3.617188 -2.09375 Z "/>
</g>
<g id="glyph-1-1">
<path d="M 2.089844 0.980469 C 1.546875 0.910156 1.121094 0.636719 0.8125 0.15625 C 0.503906 -0.320312 0.347656 -0.964844 0.347656 -1.777344 C 0.347656 -2.605469 0.503906 -3.257812 0.8125 -3.738281 C 1.121094 -4.222656 1.546875 -4.5 2.089844 -4.570312 L 2.089844 -4.324219 C 1.710938 -4.253906 1.417969 -4.011719 1.21875 -3.59375 C 1.019531 -3.175781 0.921875 -2.566406 0.921875 -1.773438 C 0.921875 -1.015625 1.019531 -0.425781 1.214844 -0.00390625 C 1.410156 0.417969 1.703125 0.664062 2.089844 0.734375 Z "/>
</g>
<g id="glyph-1-2">
<path d="M 4.347656 0 L 2.367188 0 L 2.367188 -0.210938 C 2.527344 -0.214844 2.660156 -0.230469 2.761719 -0.257812 C 2.863281 -0.285156 2.910156 -0.328125 2.910156 -0.382812 C 2.910156 -0.410156 2.890625 -0.472656 2.84375 -0.566406 C 2.796875 -0.660156 2.738281 -0.765625 2.667969 -0.878906 C 2.585938 -1.007812 2.492188 -1.15625 2.382812 -1.328125 C 2.273438 -1.503906 2.167969 -1.667969 2.058594 -1.824219 C 1.882812 -1.59375 1.683594 -1.316406 1.460938 -0.988281 C 1.238281 -0.664062 1.128906 -0.472656 1.128906 -0.414062 C 1.128906 -0.347656 1.15625 -0.300781 1.21875 -0.269531 C 1.28125 -0.238281 1.414062 -0.21875 1.621094 -0.210938 L 1.621094 0 L 0.0390625 0 L 0.0390625 -0.210938 C 0.0898438 -0.214844 0.15625 -0.222656 0.238281 -0.234375 C 0.316406 -0.246094 0.382812 -0.261719 0.4375 -0.289062 C 0.539062 -0.34375 0.621094 -0.40625 0.683594 -0.46875 C 0.746094 -0.535156 0.8125 -0.609375 0.875 -0.699219 C 1 -0.875 1.164062 -1.089844 1.363281 -1.351562 C 1.5625 -1.613281 1.738281 -1.851562 1.890625 -2.066406 C 1.777344 -2.238281 1.628906 -2.453125 1.449219 -2.710938 C 1.269531 -2.96875 1.078125 -3.25 0.875 -3.542969 C 0.789062 -3.671875 0.722656 -3.757812 0.675781 -3.808594 C 0.625 -3.863281 0.5625 -3.90625 0.480469 -3.945312 C 0.433594 -3.964844 0.367188 -3.984375 0.28125 -3.996094 C 0.195312 -4.007812 0.128906 -4.019531 0.0820312 -4.023438 L 0.0820312 -4.234375 L 2.039062 -4.234375 L 2.039062 -4.023438 C 1.925781 -4.019531 1.804688 -4.003906 1.683594 -3.980469 C 1.558594 -3.953125 1.496094 -3.914062 1.496094 -3.863281 C 1.496094 -3.824219 1.519531 -3.761719 1.570312 -3.664062 C 1.621094 -3.570312 1.679688 -3.46875 1.746094 -3.363281 C 1.816406 -3.25 1.894531 -3.128906 1.980469 -2.992188 C 2.066406 -2.855469 2.167969 -2.699219 2.292969 -2.523438 C 2.515625 -2.828125 2.710938 -3.101562 2.875 -3.347656 C 3.035156 -3.59375 3.117188 -3.75 3.117188 -3.824219 C 3.117188 -3.890625 3.082031 -3.933594 3.007812 -3.964844 C 2.933594 -3.996094 2.804688 -4.015625 2.628906 -4.023438 L 2.628906 -4.234375 L 4.207031 -4.234375 L 4.207031 -4.023438 C 4.15625 -4.019531 4.09375 -4.011719 4.011719 -4 C 3.929688 -3.988281 3.863281 -3.96875 3.808594 -3.945312 C 3.707031 -3.894531 3.628906 -3.839844 3.578125 -3.785156 C 3.527344 -3.726562 3.460938 -3.640625 3.375 -3.53125 C 3.214844 -3.328125 3.070312 -3.132812 2.933594 -2.953125 C 2.800781 -2.773438 2.640625 -2.554688 2.449219 -2.296875 C 2.609375 -2.070312 2.785156 -1.8125 2.984375 -1.523438 C 3.179688 -1.234375 3.367188 -0.960938 3.542969 -0.699219 C 3.605469 -0.609375 3.675781 -0.523438 3.757812 -0.441406 C 3.835938 -0.363281 3.902344 -0.308594 3.949219 -0.277344 C 4 -0.25 4.0625 -0.230469 4.144531 -0.226562 C 4.222656 -0.21875 4.292969 -0.214844 4.347656 -0.210938 Z "/>
</g>
<g id="glyph-1-3">
<path d="M 1.941406 -1.777344 C 1.941406 -0.964844 1.789062 -0.320312 1.476562 0.15625 C 1.167969 0.636719 0.742188 0.910156 0.199219 0.980469 L 0.199219 0.734375 C 0.589844 0.664062 0.882812 0.417969 1.078125 -0.00390625 C 1.273438 -0.425781 1.371094 -1.015625 1.371094 -1.773438 C 1.371094 -2.566406 1.269531 -3.175781 1.070312 -3.59375 C 0.871094 -4.011719 0.582031 -4.253906 0.199219 -4.324219 L 0.199219 -4.570312 C 0.742188 -4.5 1.167969 -4.222656 1.476562 -3.738281 C 1.789062 -3.257812 1.941406 -2.605469 1.941406 -1.777344 Z "/>
</g>
<g id="glyph-1-4">
</g>
<g id="glyph-1-5">
<path d="M 3.46875 -2.039062 L 0.460938 -2.039062 L 0.460938 -2.410156 L 3.46875 -2.410156 L 3.46875 -2.039062 M 3.46875 -0.929688 L 0.460938 -0.929688 L 0.460938 -1.300781 L 3.46875 -1.300781 Z "/>
</g>
<g id="glyph-1-6">
<path d="M 2.683594 -1.460938 L 0.4375 -1.460938 L 0.4375 -1.792969 C 0.515625 -1.921875 0.632812 -2.050781 0.792969 -2.175781 C 0.953125 -2.300781 1.144531 -2.433594 1.371094 -2.574219 C 1.4375 -2.617188 1.515625 -2.675781 1.601562 -2.75 C 1.683594 -2.820312 1.75 -2.890625 1.796875 -2.949219 C 1.855469 -3.03125 1.902344 -3.113281 1.933594 -3.199219 C 1.960938 -3.285156 1.976562 -3.394531 1.976562 -3.527344 C 1.976562 -3.71875 1.929688 -3.863281 1.832031 -3.960938 C 1.734375 -4.0625 1.605469 -4.113281 1.445312 -4.113281 C 1.332031 -4.113281 1.238281 -4.09375 1.15625 -4.054688 C 1.074219 -4.015625 1.015625 -3.96875 0.980469 -3.917969 C 0.992188 -3.871094 1.007812 -3.816406 1.023438 -3.753906 C 1.035156 -3.695312 1.042969 -3.632812 1.042969 -3.566406 C 1.042969 -3.503906 1.015625 -3.449219 0.960938 -3.40625 C 0.90625 -3.359375 0.828125 -3.335938 0.722656 -3.335938 C 0.625 -3.335938 0.558594 -3.367188 0.519531 -3.429688 C 0.476562 -3.492188 0.457031 -3.5625 0.457031 -3.640625 C 0.457031 -3.820312 0.558594 -3.980469 0.769531 -4.125 C 0.976562 -4.265625 1.21875 -4.335938 1.492188 -4.335938 C 1.804688 -4.335938 2.058594 -4.261719 2.253906 -4.109375 C 2.453125 -3.960938 2.550781 -3.757812 2.550781 -3.507812 C 2.550781 -3.355469 2.527344 -3.226562 2.484375 -3.117188 C 2.4375 -3.007812 2.378906 -2.914062 2.304688 -2.835938 C 2.230469 -2.753906 2.140625 -2.683594 2.046875 -2.621094 C 1.949219 -2.5625 1.847656 -2.507812 1.746094 -2.457031 C 1.617188 -2.398438 1.464844 -2.3125 1.28125 -2.210938 C 1.097656 -2.109375 0.949219 -2 0.832031 -1.890625 L 2.683594 -1.890625 Z "/>
</g>
</g>
</defs>
<g fill="rgb(100%, 52.54902%, 18.431373%)" fill-opacity="1">
<use xlink:href="#glyph-0-0" x="30" y="26"/>
<use xlink:href="#glyph-0-1" x="36" y="26"/>
<use xlink:href="#glyph-0-2" x="39" y="26"/>
<use xlink:href="#glyph-0-3" x="45" y="26"/>
<use xlink:href="#glyph-0-1" x="51" y="26"/>
</g>
<g fill="rgb(100%, 52.54902%, 18.431373%)" fill-opacity="1">
<use xlink:href="#glyph-1-0" x="54" y="25.603516"/>
<use xlink:href="#glyph-1-1" x="59" y="25.603516"/>
<use xlink:href="#glyph-1-2" x="61" y="25.603516"/>
<use xlink:href="#glyph-1-3" x="65" y="25.603516"/>
<use xlink:href="#glyph-1-4" x="67" y="25.603516"/>
<use xlink:href="#glyph-1-5" x="68" y="25.603516"/>
<use xlink:href="#glyph-1-4" x="72" y="25.603516"/>
</g>
<g fill="rgb(100%, 52.54902%, 18.431373%)" fill-opacity="1">
<use xlink:href="#glyph-0-4" x="73" y="26"/>
<use xlink:href="#glyph-0-5" x="79" y="26"/>
<use xlink:href="#glyph-0-6" x="85" y="26"/>
<use xlink:href="#glyph-0-7" x="91" y="26"/>
<use xlink:href="#glyph-0-8" x="97" y="26"/>
<use xlink:href="#glyph-0-9" x="103" y="26"/>
<use xlink:href="#glyph-0-10" x="109" y="26"/>
<use xlink:href="#glyph-0-11" x="115" y="26"/>
</g>
<g fill="rgb(100%, 52.54902%, 18.431373%)" fill-opacity="1">
<use xlink:href="#glyph-1-6" x="121" y="25.603516"/>
<use xlink:href="#glyph-1-4" x="124" y="25.603516"/>
</g>
<g fill="rgb(100%, 52.54902%, 18.431373%)" fill-opacity="1">
<use xlink:href="#glyph-0-12" x="125" y="26"/>
<use xlink:href="#glyph-0-13" x="131" y="26"/>
<use xlink:href="#glyph-0-14" x="137" y="26"/>
<use xlink:href="#glyph-0-15" x="143" y="26"/>
<use xlink:href="#glyph-0-16" x="149" y="26"/>
</g>
</svg>
