<?xml version="1.0" encoding="UTF-8"?>
<svg xmlns="http://www.w3.org/2000/svg" xmlns:xlink="http://www.w3.org/1999/xlink" width="1280" height="720" viewBox="0 0 1280 720">
<defs>
<g>
<g id="glyph-0-0">
<path d="M 2.453125 -2.515625 C 2.496094 -3.054688 2.523438 -3.539062 2.539062 -3.972656 L 1.367188 -3.972656 C 1.179688 -3.972656 1.003906 -3.949219 0.847656 -3.90625 L 0.652344 -4.101562 L 4.144531 -4.101562 L 4.472656 -4.425781 L 4.925781 -3.972656 L 2.863281 -3.972656 C 2.851562 -3.652344 2.820312 -3.167969 2.777344 -2.515625 L 4.339844 -2.515625 L 4.710938 -2.886719 L 5.207031 -2.386719 L 3.253906 -2.386719 L 3.253906 -0.21875 C 3.269531 -0.0273438 3.394531 0.0585938 3.625 0.0429688 L 4.515625 0.0429688 C 4.6875 0.0273438 4.789062 -0.0546875 4.816406 -0.207031 C 4.847656 -0.359375 4.867188 -0.636719 4.882812 -1.042969 L 4.992188 -1.042969 C 4.976562 -0.390625 5.085938 -0.0664062 5.316406 -0.0664062 C 5.203125 0.210938 4.949219 0.332031 4.558594 0.304688 L 3.40625 0.304688 C 3.105469 0.304688 2.953125 0.179688 2.953125 -0.0664062 L 2.953125 -2.386719 L 2.757812 -2.386719 C 2.65625 -1.664062 2.429688 -1.074219 2.082031 -0.617188 C 1.734375 -0.164062 1.136719 0.222656 0.28125 0.542969 L 0.261719 0.457031 C 0.984375 0.109375 1.5 -0.285156 1.8125 -0.726562 C 2.125 -1.167969 2.328125 -1.722656 2.429688 -2.386719 L 1 -2.386719 C 0.808594 -2.386719 0.636719 -2.367188 0.476562 -2.320312 L 0.28125 -2.515625 Z "/>
</g>
<g id="glyph-0-1">
<path d="M 0.910156 -4.296875 L 0.976562 -4.339844 C 1.195312 -4.226562 1.351562 -4.117188 1.453125 -4.015625 C 1.554688 -3.914062 1.605469 -3.8125 1.605469 -3.710938 C 1.605469 -3.609375 1.578125 -3.527344 1.519531 -3.460938 C 1.460938 -3.398438 1.417969 -3.363281 1.390625 -3.363281 C 1.332031 -3.363281 1.289062 -3.4375 1.257812 -3.582031 C 1.214844 -3.785156 1.101562 -4.023438 0.910156 -4.296875 M 1.410156 -0.390625 L 2.386719 -1.257812 L 2.453125 -1.195312 C 1.800781 -0.425781 1.441406 0.0585938 1.367188 0.261719 L 1.019531 -0.0859375 C 1.09375 -0.144531 1.121094 -0.296875 1.105469 -0.542969 L 1.105469 -2.472656 L 0.847656 -2.472656 C 0.746094 -2.472656 0.613281 -2.453125 0.457031 -2.410156 L 0.261719 -2.605469 L 1.085938 -2.605469 L 1.238281 -2.820312 L 1.585938 -2.539062 L 1.410156 -2.386719 L 1.410156 -0.390625 M 3.753906 -4.230469 L 3.558594 -4.101562 C 3.992188 -3.203125 4.570312 -2.640625 5.296875 -2.410156 L 5.296875 -2.320312 C 5.078125 -2.308594 4.925781 -2.222656 4.839844 -2.0625 C 4.160156 -2.640625 3.710938 -3.292969 3.496094 -4.015625 C 3.058594 -3.089844 2.460938 -2.386719 1.691406 -1.910156 L 1.648438 -1.976562 C 2.082031 -2.367188 2.425781 -2.773438 2.679688 -3.203125 C 2.933594 -3.628906 3.132812 -4.074219 3.277344 -4.535156 L 3.753906 -4.230469 M 4.277344 -1.734375 C 3.828125 -1.402344 3.394531 -1.128906 2.972656 -0.910156 L 2.972656 -0.324219 C 2.972656 -0.0507812 3.074219 0.078125 3.277344 0.0664062 L 4.296875 0.0664062 C 4.457031 0.09375 4.542969 -0.0234375 4.558594 -0.292969 C 4.570312 -0.5625 4.578125 -0.773438 4.578125 -0.933594 L 4.6875 -0.933594 C 4.6875 -0.773438 4.703125 -0.582031 4.730469 -0.359375 C 4.761719 -0.132812 4.855469 -0.015625 5.011719 0 C 4.882812 0.21875 4.703125 0.324219 4.472656 0.324219 L 3.234375 0.324219 C 2.828125 0.339844 2.640625 0.167969 2.667969 -0.195312 C 2.667969 -1.441406 2.664062 -2.207031 2.648438 -2.496094 L 3.148438 -2.257812 L 2.972656 -2.082031 L 2.972656 -1.019531 C 3.496094 -1.394531 3.898438 -1.792969 4.1875 -2.214844 L 4.535156 -1.78125 Z "/>
</g>
<g id="glyph-0-2">
<path d="M 1 -3.753906 C 1 -3.941406 0.992188 -4.152344 0.976562 -4.382812 L 1.300781 -4.210938 L 4.253906 -4.210938 L 4.578125 -4.535156 L 5.035156 -4.082031 L 1.300781 -4.082031 L 1.300781 -2.214844 C 1.316406 -1.722656 1.273438 -1.265625 1.171875 -0.847656 C 1.070312 -0.425781 0.816406 0 0.414062 0.433594 L 0.347656 0.390625 C 0.636719 -0.0429688 0.820312 -0.453125 0.902344 -0.835938 C 0.980469 -1.21875 1.011719 -1.640625 1 -2.105469 L 1 -3.753906 M 2.410156 -0.109375 C 2.582031 -0.09375 2.75 -0.0820312 2.910156 -0.0742188 C 3.066406 -0.0703125 3.148438 -0.136719 3.148438 -0.28125 L 3.148438 -1.671875 L 2.234375 -1.671875 L 2.234375 -1.519531 L 1.929688 -1.390625 C 1.945312 -1.621094 1.953125 -1.957031 1.953125 -2.398438 C 1.953125 -2.839844 1.945312 -3.199219 1.929688 -3.472656 L 2.234375 -3.320312 L 2.757812 -3.320312 C 2.886719 -3.625 2.972656 -3.871094 3.015625 -4.058594 L 3.40625 -3.863281 C 3.304688 -3.804688 3.214844 -3.738281 3.136719 -3.65625 C 3.054688 -3.578125 2.972656 -3.464844 2.886719 -3.320312 L 4.253906 -3.320312 L 4.40625 -3.539062 L 4.730469 -3.277344 L 4.578125 -3.148438 L 4.578125 -2.082031 C 4.578125 -1.925781 4.585938 -1.742188 4.601562 -1.539062 L 4.296875 -1.410156 L 4.296875 -1.671875 L 3.429688 -1.671875 L 3.429688 -0.152344 C 3.445312 0.121094 3.300781 0.3125 2.996094 0.414062 C 2.980469 0.210938 2.785156 0.0664062 2.410156 -0.0234375 L 2.410156 -0.109375 M 2.234375 -3.191406 L 2.234375 -2.5625 L 4.296875 -2.5625 L 4.296875 -3.191406 L 2.234375 -3.191406 M 2.234375 -2.429688 L 2.234375 -1.800781 L 4.296875 -1.800781 L 4.296875 -2.429688 L 2.234375 -2.429688 M 2.410156 -1.238281 L 2.777344 -0.910156 C 2.617188 -0.855469 2.394531 -0.703125 2.105469 -0.457031 C 1.816406 -0.210938 1.503906 0 1.171875 0.171875 L 1.128906 0.109375 C 1.402344 -0.109375 1.65625 -0.339844 1.886719 -0.585938 C 2.121094 -0.832031 2.292969 -1.050781 2.410156 -1.238281 M 3.710938 -1.128906 C 4.566406 -0.78125 5.011719 -0.554688 5.046875 -0.445312 C 5.082031 -0.335938 5.101562 -0.246094 5.101562 -0.171875 C 5.101562 -0.0859375 5.089844 -0.015625 5.066406 0.0429688 C 5.046875 0.101562 5.019531 0.128906 4.992188 0.128906 C 4.960938 0.128906 4.917969 0.0859375 4.863281 0 C 4.761719 -0.144531 4.609375 -0.3125 4.40625 -0.5 C 4.203125 -0.6875 3.964844 -0.867188 3.691406 -1.042969 Z "/>
</g>
<g id="glyph-0-3">
<path d="M 3.125 -1.5625 L 3.125 -0.128906 L 4.558594 -0.128906 L 4.558594 -1.5625 L 3.125 -1.5625 M 3.496094 -4.558594 L 3.972656 -4.253906 L 3.777344 -4.144531 C 3.328125 -3.335938 3.015625 -2.828125 2.84375 -2.625 C 3.191406 -2.640625 3.820312 -2.664062 4.730469 -2.691406 C 4.585938 -2.964844 4.390625 -3.234375 4.144531 -3.496094 L 4.210938 -3.558594 C 4.789062 -3.167969 5.097656 -2.921875 5.132812 -2.820312 C 5.167969 -2.71875 5.1875 -2.632812 5.1875 -2.5625 C 5.1875 -2.460938 5.15625 -2.371094 5.101562 -2.300781 C 5.042969 -2.226562 5 -2.191406 4.96875 -2.191406 C 4.941406 -2.191406 4.917969 -2.222656 4.90625 -2.277344 C 4.863281 -2.378906 4.816406 -2.480469 4.773438 -2.582031 C 4.152344 -2.539062 3.6875 -2.484375 3.375 -2.417969 C 3.0625 -2.355469 2.851562 -2.273438 2.734375 -2.171875 L 2.472656 -2.625 C 2.632812 -2.683594 2.804688 -2.878906 2.984375 -3.210938 C 3.164062 -3.542969 3.335938 -3.992188 3.496094 -4.558594 M 4.863281 -1.476562 C 4.863281 -0.464844 4.867188 0.121094 4.882812 0.28125 L 4.558594 0.433594 L 4.558594 0 L 3.125 0 L 3.125 0.347656 L 2.800781 0.476562 C 2.8125 0.261719 2.820312 -0.121094 2.820312 -0.660156 C 2.820312 -1.203125 2.8125 -1.613281 2.800781 -1.886719 L 3.125 -1.691406 L 4.515625 -1.691406 L 4.667969 -1.910156 L 5.035156 -1.628906 L 4.863281 -1.476562 M 1.300781 -3.058594 C 1.199219 -2.726562 1.027344 -2.140625 0.78125 -1.300781 C 1.042969 -1.214844 1.28125 -1.128906 1.496094 -1.042969 C 1.714844 -1.535156 1.886719 -2.207031 2.019531 -3.058594 L 1.300781 -3.058594 M 1.78125 -4.277344 L 1.585938 -4.144531 C 1.527344 -3.957031 1.441406 -3.640625 1.324219 -3.191406 L 1.996094 -3.191406 L 2.148438 -3.386719 L 2.496094 -3.105469 L 2.320312 -2.972656 C 2.164062 -2.105469 1.980469 -1.425781 1.78125 -0.933594 C 2.054688 -0.789062 2.222656 -0.679688 2.277344 -0.609375 C 2.335938 -0.535156 2.367188 -0.441406 2.367188 -0.324219 C 2.367188 -0.253906 2.359375 -0.183594 2.34375 -0.121094 C 2.328125 -0.0546875 2.316406 -0.0234375 2.300781 -0.0234375 C 2.257812 -0.0234375 2.199219 -0.078125 2.125 -0.195312 C 1.996094 -0.382812 1.84375 -0.550781 1.671875 -0.695312 C 1.308594 -0.171875 0.859375 0.230469 0.324219 0.519531 L 0.28125 0.457031 C 0.789062 0.0507812 1.164062 -0.375 1.410156 -0.824219 C 1.050781 -1.027344 0.746094 -1.171875 0.5 -1.257812 C 0.671875 -1.835938 0.839844 -2.4375 1 -3.058594 L 0.953125 -3.058594 C 0.765625 -3.058594 0.59375 -3.039062 0.433594 -2.996094 L 0.238281 -3.191406 L 1.019531 -3.191406 C 1.164062 -3.8125 1.25 -4.253906 1.28125 -4.515625 Z "/>
</g>
<g id="glyph-0-4">
<path d="M 2.039062 -4.382812 L 2.472656 -4.058594 L 2.277344 -3.949219 C 2.03125 -3.488281 1.761719 -3.074219 1.464844 -2.710938 C 1.167969 -2.351562 0.789062 -2.03125 0.324219 -1.757812 L 0.28125 -1.824219 C 0.660156 -2.125 0.992188 -2.484375 1.28125 -2.898438 C 1.570312 -3.308594 1.824219 -3.804688 2.039062 -4.382812 M 3.558594 -4.320312 L 3.386719 -4.210938 C 3.542969 -3.632812 3.804688 -3.183594 4.167969 -2.863281 C 4.527344 -2.546875 4.914062 -2.351562 5.316406 -2.277344 L 5.316406 -2.214844 C 5.101562 -2.183594 4.949219 -2.089844 4.863281 -1.929688 C 4.382812 -2.191406 4.003906 -2.539062 3.722656 -2.972656 C 3.441406 -3.40625 3.25 -3.914062 3.148438 -4.492188 L 3.558594 -4.320312 M 1.195312 -2.277344 L 3.667969 -2.277344 L 3.886719 -2.496094 L 4.1875 -2.191406 L 4.015625 -2.0625 C 3.984375 -0.917969 3.914062 -0.226562 3.796875 0.0117188 C 3.683594 0.25 3.480469 0.417969 3.191406 0.519531 C 3.148438 0.289062 2.945312 0.121094 2.582031 0.0234375 L 2.582031 -0.0664062 C 2.945312 -0.0078125 3.179688 0.0195312 3.289062 0.0117188 C 3.398438 0.00390625 3.480469 -0.078125 3.539062 -0.238281 C 3.59375 -0.398438 3.652344 -1.035156 3.710938 -2.148438 L 2.582031 -2.148438 C 2.496094 -1.527344 2.320312 -1.003906 2.0625 -0.574219 C 1.800781 -0.148438 1.300781 0.222656 0.5625 0.542969 L 0.519531 0.457031 C 1.171875 0.121094 1.609375 -0.269531 1.832031 -0.726562 C 2.058594 -1.183594 2.191406 -1.65625 2.234375 -2.148438 L 1.5625 -2.148438 L 1.367188 -2.105469 Z "/>
</g>
<g id="glyph-0-5">
<path d="M 2.972656 -2.367188 C 2.972656 -2.65625 2.964844 -2.914062 2.953125 -3.148438 L 3.449219 -2.929688 L 3.277344 -2.777344 L 3.277344 -2.367188 L 4.296875 -2.367188 L 4.472656 -2.582031 L 4.839844 -2.300781 L 4.644531 -2.171875 L 4.644531 -0.433594 C 4.617188 -0.203125 4.457031 -0.0429688 4.167969 0.0429688 C 4.167969 -0.117188 3.984375 -0.269531 3.625 -0.414062 L 3.625 -0.5 C 3.886719 -0.457031 4.070312 -0.433594 4.179688 -0.433594 C 4.285156 -0.433594 4.339844 -0.492188 4.339844 -0.609375 L 4.339844 -2.234375 L 3.277344 -2.234375 L 3.277344 -0.476562 C 3.277344 -0.144531 3.285156 0.160156 3.300781 0.433594 L 2.953125 0.585938 C 2.964844 0.0507812 2.972656 -0.441406 2.972656 -0.890625 L 2.972656 -2.234375 L 1.976562 -2.234375 L 1.976562 -0.109375 L 1.648438 0.0234375 C 1.664062 -0.441406 1.671875 -1.179688 1.671875 -2.191406 C 1.265625 -1.6875 0.796875 -1.25 0.261719 -0.890625 L 0.21875 -0.953125 C 0.824219 -1.503906 1.261719 -1.996094 1.53125 -2.429688 C 1.796875 -2.863281 1.976562 -3.175781 2.0625 -3.363281 L 0.714844 -3.363281 L 0.519531 -3.320312 L 0.347656 -3.496094 L 2.105469 -3.496094 C 2.292969 -3.898438 2.417969 -4.246094 2.472656 -4.535156 L 2.996094 -4.210938 L 2.777344 -4.101562 L 2.453125 -3.496094 L 4.492188 -3.496094 L 4.816406 -3.820312 L 5.273438 -3.363281 L 2.410156 -3.363281 C 2.25 -3.058594 2.078125 -2.761719 1.886719 -2.472656 L 1.953125 -2.367188 Z "/>
</g>
<g id="glyph-0-6">
<path d="M 4.492188 -4.363281 L 4.90625 -4.058594 C 4.773438 -4.015625 4.570312 -3.847656 4.296875 -3.558594 C 4.023438 -3.253906 3.695312 -2.972656 3.320312 -2.710938 L 3.277344 -2.777344 C 3.480469 -2.953125 3.695312 -3.1875 3.929688 -3.484375 C 4.160156 -3.78125 4.347656 -4.074219 4.492188 -4.363281 M 4.710938 -2.910156 L 5.078125 -2.5625 C 4.949219 -2.515625 4.703125 -2.335938 4.339844 -2.019531 C 3.980469 -1.6875 3.566406 -1.402344 3.105469 -1.171875 L 3.058594 -1.238281 C 3.480469 -1.539062 3.832031 -1.847656 4.113281 -2.160156 C 4.394531 -2.46875 4.59375 -2.71875 4.710938 -2.910156 M 4.90625 -1.476562 L 5.296875 -1.085938 C 5.152344 -1.070312 4.933594 -0.933594 4.644531 -0.671875 C 4.339844 -0.398438 4.011719 -0.15625 3.65625 0.0546875 C 3.300781 0.265625 2.996094 0.414062 2.734375 0.5 L 2.691406 0.433594 C 2.835938 0.363281 3.070312 0.214844 3.398438 -0.0117188 C 3.722656 -0.234375 4.03125 -0.496094 4.320312 -0.792969 C 4.609375 -1.089844 4.804688 -1.316406 4.90625 -1.476562 M 1.5625 -3.90625 L 1.5625 -2.429688 L 2.367188 -2.429688 L 2.367188 -3.90625 L 1.5625 -3.90625 M 2.34375 0.28125 C 2.359375 -0.179688 2.367188 -1.042969 2.367188 -2.300781 L 1.5625 -2.300781 C 1.535156 -1.070312 1.121094 -0.152344 0.324219 0.457031 L 0.28125 0.390625 C 0.890625 -0.261719 1.214844 -1.15625 1.257812 -2.300781 L 0.738281 -2.300781 L 0.476562 -2.257812 L 0.304688 -2.429688 L 1.257812 -2.429688 L 1.257812 -3.90625 L 0.890625 -3.90625 L 0.628906 -3.863281 L 0.457031 -4.035156 L 2.800781 -4.035156 L 3.082031 -4.320312 L 3.496094 -3.90625 L 2.648438 -3.90625 L 2.648438 -2.429688 L 2.863281 -2.429688 L 3.148438 -2.710938 L 3.558594 -2.300781 L 2.648438 -2.300781 C 2.648438 -0.984375 2.65625 -0.1875 2.667969 0.0859375 Z "/>
</g>
<g id="glyph-0-7">
<path d="M 3.691406 -4.230469 L 3.472656 -4.058594 L 3.472656 -2.757812 L 4.515625 -2.757812 L 4.839844 -3.082031 L 5.253906 -2.625 L 3.710938 -2.625 C 3.972656 -1.195312 4.507812 -0.289062 5.316406 0.0859375 L 5.316406 0.171875 C 5.085938 0.160156 4.914062 0.238281 4.796875 0.414062 C 4.117188 -0.28125 3.71875 -1.296875 3.601562 -2.625 L 3.472656 -2.625 C 3.398438 -1.09375 2.863281 -0.0273438 1.867188 0.5625 L 1.824219 0.5 C 2.648438 -0.210938 3.097656 -1.25 3.167969 -2.625 L 2.648438 -2.625 C 2.460938 -2.625 2.285156 -2.605469 2.125 -2.5625 L 1.929688 -2.757812 L 3.167969 -2.757812 C 3.167969 -3.566406 3.160156 -4.136719 3.148438 -4.472656 L 3.691406 -4.230469 M 3.992188 -4.1875 C 4.339844 -4.042969 4.566406 -3.933594 4.667969 -3.851562 C 4.765625 -3.773438 4.816406 -3.683594 4.816406 -3.582031 C 4.816406 -3.507812 4.796875 -3.425781 4.753906 -3.332031 C 4.710938 -3.238281 4.679688 -3.191406 4.667969 -3.191406 C 4.621094 -3.191406 4.570312 -3.253906 4.515625 -3.386719 C 4.414062 -3.589844 4.226562 -3.835938 3.949219 -4.125 L 3.992188 -4.1875 M 1.496094 0.519531 C 1.511719 0.1875 1.519531 -0.609375 1.519531 -1.867188 C 0.953125 -1.289062 0.613281 -0.890625 0.5 -0.671875 L 0.21875 -1.0625 C 0.449219 -1.148438 0.882812 -1.46875 1.519531 -2.019531 C 1.519531 -3.480469 1.511719 -4.304688 1.496094 -4.492188 L 2.039062 -4.253906 L 1.824219 -4.101562 L 1.824219 -0.714844 C 1.824219 -0.253906 1.832031 0.101562 1.84375 0.347656 L 1.496094 0.519531 M 0.390625 -3.515625 L 0.433594 -3.582031 C 0.824219 -3.292969 1.050781 -3.097656 1.105469 -2.996094 C 1.164062 -2.894531 1.195312 -2.8125 1.195312 -2.757812 C 1.195312 -2.683594 1.160156 -2.601562 1.097656 -2.507812 C 1.03125 -2.414062 0.984375 -2.367188 0.953125 -2.367188 C 0.910156 -2.367188 0.867188 -2.453125 0.824219 -2.625 C 0.753906 -2.886719 0.609375 -3.183594 0.390625 -3.515625 Z "/>
</g>
<g id="glyph-0-8">
<path d="M 4.96875 -0.757812 C 4.96875 -0.585938 4.976562 -0.332031 4.992188 0 L 4.6875 0.128906 L 4.6875 -0.367188 L 3.449219 -0.367188 L 3.449219 0.109375 L 3.148438 0.261719 C 3.160156 -0.171875 3.167969 -0.464844 3.167969 -0.609375 L 3.167969 -2.734375 C 3.167969 -2.996094 3.160156 -3.261719 3.148438 -3.539062 L 3.449219 -3.363281 L 4.644531 -3.363281 L 4.816406 -3.582031 L 5.144531 -3.320312 L 4.96875 -3.167969 L 4.96875 -0.757812 M 3.449219 -3.234375 L 3.449219 -0.5 L 4.6875 -0.5 L 4.6875 -3.234375 L 3.449219 -3.234375 M 1.410156 -4.515625 L 1.929688 -4.277344 L 1.734375 -4.144531 C 1.679688 -3.914062 1.605469 -3.589844 1.519531 -3.167969 L 2.34375 -3.167969 L 2.472656 -3.40625 L 2.84375 -3.148438 L 2.667969 -2.996094 C 2.523438 -1.980469 2.367188 -1.257812 2.191406 -0.824219 C 2.539062 -0.679688 2.742188 -0.554688 2.800781 -0.445312 C 2.859375 -0.335938 2.875 -0.234375 2.855469 -0.140625 C 2.832031 -0.046875 2.808594 0 2.777344 0 C 2.734375 0 2.683594 -0.0351562 2.625 -0.109375 C 2.511719 -0.253906 2.320312 -0.414062 2.0625 -0.585938 C 1.640625 -0.0351562 1.070312 0.339844 0.347656 0.542969 L 0.304688 0.476562 C 1.011719 0.171875 1.519531 -0.222656 1.824219 -0.714844 C 1.390625 -0.902344 1.035156 -1.027344 0.757812 -1.085938 C 0.875 -1.535156 1.019531 -2.183594 1.195312 -3.039062 L 1.042969 -3.039062 C 0.855469 -3.039062 0.679688 -3.015625 0.519531 -2.972656 L 0.324219 -3.167969 L 1.214844 -3.167969 C 1.316406 -3.71875 1.382812 -4.167969 1.410156 -4.515625 M 1.0625 -1.148438 C 1.207031 -1.121094 1.492188 -1.042969 1.910156 -0.910156 C 2.082031 -1.34375 2.234375 -2.054688 2.367188 -3.039062 L 1.496094 -3.039062 C 1.394531 -2.589844 1.25 -1.960938 1.0625 -1.148438 Z "/>
</g>
<g id="glyph-0-9">
<path d="M 3.429688 -0.0234375 C 3.746094 0.0351562 3.972656 0.0625 4.101562 0.0546875 C 4.230469 0.046875 4.296875 -0.0273438 4.296875 -0.171875 L 4.296875 -3.710938 L 2.605469 -3.710938 C 2.417969 -3.710938 2.242188 -3.691406 2.082031 -3.644531 L 1.886719 -3.839844 L 4.6875 -3.839844 L 4.949219 -4.101562 L 5.339844 -3.710938 L 4.578125 -3.710938 L 4.578125 -0.0234375 C 4.609375 0.222656 4.464844 0.414062 4.144531 0.542969 C 4.117188 0.367188 3.871094 0.210938 3.40625 0.0664062 L 3.429688 -0.0234375 M 2.082031 -0.78125 C 2.097656 -1.144531 2.105469 -1.507812 2.105469 -1.878906 C 2.105469 -2.246094 2.097656 -2.613281 2.082031 -2.972656 L 2.386719 -2.800781 L 3.300781 -2.800781 L 3.449219 -2.996094 L 3.796875 -2.734375 L 3.625 -2.605469 L 3.625 -1.757812 C 3.625 -1.539062 3.632812 -1.324219 3.644531 -1.105469 L 3.320312 -0.953125 L 3.320312 -1.28125 L 2.386719 -1.28125 L 2.386719 -0.910156 L 2.082031 -0.78125 M 2.386719 -2.667969 L 2.386719 -1.410156 L 3.320312 -1.410156 L 3.320312 -2.667969 L 2.386719 -2.667969 M 1.085938 0.542969 C 1.101562 -0.167969 1.105469 -0.664062 1.105469 -0.953125 L 1.105469 -2.691406 C 0.933594 -2.402344 0.679688 -2.097656 0.347656 -1.78125 L 0.304688 -1.84375 C 0.695312 -2.378906 0.984375 -2.898438 1.171875 -3.398438 C 1.359375 -3.894531 1.484375 -4.269531 1.539062 -4.515625 L 1.996094 -4.210938 L 1.800781 -4.082031 C 1.613281 -3.703125 1.453125 -3.371094 1.324219 -3.082031 L 1.5625 -2.929688 L 1.390625 -2.800781 L 1.390625 -0.519531 C 1.390625 -0.203125 1.394531 0.09375 1.410156 0.367188 Z "/>
</g>
<g id="glyph-0-10">
<path d="M 0.988281 -0.128906 C 1.066406 -0.230469 1.136719 -0.375 1.195312 -0.5625 C 1.0625 -0.5625 0.96875 -0.585938 0.910156 -0.628906 C 0.855469 -0.671875 0.8125 -0.730469 0.792969 -0.804688 C 0.769531 -0.875 0.765625 -0.945312 0.78125 -1.007812 C 0.796875 -1.074219 0.847656 -1.140625 0.933594 -1.203125 C 1.019531 -1.269531 1.128906 -1.289062 1.257812 -1.257812 C 1.390625 -1.230469 1.46875 -1.175781 1.496094 -1.097656 C 1.527344 -1.015625 1.539062 -0.941406 1.539062 -0.867188 C 1.539062 -0.78125 1.519531 -0.667969 1.476562 -0.53125 C 1.433594 -0.394531 1.335938 -0.242188 1.183594 -0.0742188 C 1.03125 0.0898438 0.90625 0.179688 0.8125 0.195312 C 0.71875 0.210938 0.671875 0.210938 0.671875 0.195312 C 0.671875 0.179688 0.695312 0.160156 0.738281 0.128906 C 0.824219 0.0585938 0.90625 -0.0273438 0.988281 -0.128906 Z "/>
</g>
<g id="glyph-0-11">
<path d="M 1.691406 -4.101562 L 1.691406 -2.734375 L 3.949219 -2.734375 L 3.949219 -4.101562 L 1.691406 -4.101562 M 1.390625 -2.34375 C 1.402344 -2.574219 1.410156 -2.917969 1.410156 -3.375 C 1.410156 -3.832031 1.402344 -4.175781 1.390625 -4.40625 L 1.691406 -4.230469 L 3.90625 -4.230469 L 4.058594 -4.472656 L 4.40625 -4.210938 L 4.230469 -4.035156 C 4.230469 -3.285156 4.238281 -2.75 4.253906 -2.429688 L 3.949219 -2.320312 L 3.949219 -2.605469 L 2.953125 -2.605469 L 2.953125 -1.5625 L 4.058594 -1.5625 L 4.40625 -1.867188 L 4.816406 -1.433594 L 2.953125 -1.433594 L 2.953125 -0.128906 C 3.386719 -0.0585938 3.8125 -0.0234375 4.230469 -0.0234375 C 4.519531 -0.0234375 4.882812 -0.0429688 5.316406 -0.0859375 L 5.316406 0 C 5.027344 0.0585938 4.875 0.179688 4.863281 0.367188 C 4.425781 0.367188 3.980469 0.347656 3.515625 0.304688 C 3.054688 0.261719 2.664062 0.144531 2.34375 -0.0429688 C 2.027344 -0.230469 1.714844 -0.527344 1.410156 -0.933594 C 1.136719 -0.3125 0.78125 0.160156 0.347656 0.476562 L 0.304688 0.414062 C 0.5625 0.121094 0.789062 -0.246094 0.976562 -0.695312 C 1.164062 -1.144531 1.28125 -1.554688 1.324219 -1.929688 L 1.824219 -1.648438 C 1.75 -1.621094 1.6875 -1.558594 1.636719 -1.464844 C 1.589844 -1.371094 1.535156 -1.238281 1.476562 -1.0625 C 1.882812 -0.613281 2.273438 -0.332031 2.648438 -0.21875 L 2.648438 -2.605469 L 1.691406 -2.605469 L 1.691406 -2.453125 Z "/>
</g>
<g id="glyph-0-12">
<path d="M 1.0625 -0.324219 C 1.46875 -0.269531 1.734375 -0.25 1.855469 -0.269531 C 1.980469 -0.292969 2.058594 -0.433594 2.09375 -0.695312 C 2.128906 -0.953125 2.148438 -1.867188 2.148438 -3.429688 L 1.019531 -3.429688 C 0.804688 -2.996094 0.550781 -2.605469 0.261719 -2.257812 L 0.195312 -2.300781 C 0.457031 -2.75 0.65625 -3.171875 0.792969 -3.570312 C 0.929688 -3.96875 1.019531 -4.289062 1.0625 -4.535156 L 1.519531 -4.296875 L 1.34375 -4.167969 L 1.0625 -3.558594 L 2.125 -3.558594 L 2.320312 -3.753906 L 2.582031 -3.496094 L 2.429688 -3.386719 C 2.429688 -1.765625 2.410156 -0.828125 2.367188 -0.574219 C 2.320312 -0.320312 2.25 -0.144531 2.148438 -0.0429688 C 2.046875 0.0585938 1.902344 0.152344 1.714844 0.238281 C 1.699219 0.0234375 1.484375 -0.136719 1.0625 -0.238281 L 1.0625 -0.324219 M 0.757812 -0.714844 C 0.773438 -1.0625 0.78125 -1.441406 0.78125 -1.855469 C 0.78125 -2.269531 0.773438 -2.613281 0.757812 -2.886719 L 1.042969 -2.757812 L 1.453125 -2.757812 L 1.605469 -2.929688 L 1.910156 -2.667969 L 1.757812 -2.5625 L 1.757812 -1.648438 C 1.757812 -1.535156 1.765625 -1.367188 1.78125 -1.148438 L 1.496094 -1 L 1.496094 -1.28125 L 1.042969 -1.28125 L 1.042969 -0.824219 L 0.757812 -0.714844 M 1.042969 -2.625 L 1.042969 -1.410156 L 1.496094 -1.410156 L 1.496094 -2.625 L 1.042969 -2.625 M 3.234375 -3.363281 C 3.507812 -3.234375 3.660156 -3.121094 3.691406 -3.027344 C 3.71875 -2.933594 3.710938 -2.859375 3.667969 -2.800781 C 3.625 -2.742188 3.59375 -2.710938 3.582031 -2.710938 C 3.539062 -2.710938 3.496094 -2.769531 3.449219 -2.886719 C 3.378906 -3.046875 3.285156 -3.183594 3.167969 -3.300781 C 2.964844 -3.125 2.792969 -2.996094 2.648438 -2.910156 L 2.625 -2.972656 C 2.886719 -3.203125 3.089844 -3.457031 3.234375 -3.734375 C 3.378906 -4.007812 3.488281 -4.253906 3.558594 -4.472656 L 3.929688 -4.210938 L 3.753906 -4.125 L 3.558594 -3.796875 L 4.601562 -3.796875 L 4.796875 -3.992188 L 5.101562 -3.691406 L 4.90625 -3.582031 C 4.628906 -3.148438 4.3125 -2.808594 3.949219 -2.5625 C 3.589844 -2.316406 3.117188 -2.105469 2.539062 -1.929688 L 2.515625 -2.019531 C 3.140625 -2.265625 3.613281 -2.542969 3.9375 -2.855469 C 4.265625 -3.164062 4.484375 -3.4375 4.601562 -3.667969 L 3.496094 -3.667969 C 3.394531 -3.539062 3.304688 -3.4375 3.234375 -3.363281 M 3.644531 -1.628906 C 3.53125 -1.527344 3.40625 -1.410156 3.277344 -1.28125 C 3.523438 -1.09375 3.660156 -0.957031 3.691406 -0.878906 C 3.71875 -0.800781 3.734375 -0.746094 3.734375 -0.714844 C 3.734375 -0.644531 3.710938 -0.582031 3.667969 -0.53125 C 3.625 -0.480469 3.589844 -0.457031 3.558594 -0.457031 C 3.515625 -0.457031 3.480469 -0.527344 3.449219 -0.671875 C 3.40625 -0.859375 3.328125 -1.042969 3.210938 -1.214844 C 3.023438 -1.054688 2.800781 -0.910156 2.539062 -0.78125 L 2.496094 -0.847656 C 2.8125 -1.0625 3.078125 -1.316406 3.289062 -1.605469 C 3.496094 -1.894531 3.660156 -2.171875 3.777344 -2.429688 L 4.144531 -2.125 L 3.949219 -2.0625 L 3.710938 -1.757812 L 4.753906 -1.757812 L 4.949219 -1.953125 L 5.253906 -1.648438 L 5.035156 -1.496094 C 4.671875 -0.789062 4.253906 -0.300781 3.777344 -0.03125 C 3.300781 0.234375 2.769531 0.417969 2.191406 0.519531 L 2.171875 0.433594 C 2.75 0.289062 3.25 0.0703125 3.679688 -0.226562 C 4.105469 -0.523438 4.464844 -0.992188 4.753906 -1.628906 Z "/>
</g>
<g id="glyph-0-13">
<path d="M 2.539062 -3.015625 C 2.539062 -3.785156 2.53125 -4.296875 2.515625 -4.558594 L 3.039062 -4.320312 L 2.863281 -4.144531 L 2.863281 -3.015625 L 4.472656 -3.015625 L 4.816406 -3.363281 L 5.296875 -2.886719 L 2.863281 -2.886719 L 2.863281 -2.710938 C 3.007812 -2.175781 3.273438 -1.636719 3.65625 -1.097656 C 4.039062 -0.554688 4.578125 -0.1875 5.273438 0 L 5.273438 0.0859375 C 5.058594 0.101562 4.898438 0.195312 4.796875 0.367188 C 4.320312 0.078125 3.90625 -0.316406 3.558594 -0.824219 C 3.210938 -1.332031 2.964844 -1.859375 2.820312 -2.410156 C 2.691406 -1.527344 2.417969 -0.871094 1.996094 -0.445312 C 1.578125 -0.0195312 1.011719 0.3125 0.304688 0.542969 L 0.28125 0.457031 C 0.789062 0.238281 1.214844 -0.0351562 1.5625 -0.367188 C 1.910156 -0.703125 2.152344 -1.085938 2.289062 -1.519531 C 2.425781 -1.953125 2.511719 -2.410156 2.539062 -2.886719 L 0.824219 -2.886719 L 0.519531 -2.84375 L 0.347656 -3.015625 Z "/>
</g>
<g id="glyph-0-14">
<path d="M 3.90625 -3.125 C 3.90625 -3.691406 3.898438 -4.160156 3.886719 -4.535156 L 4.425781 -4.253906 L 4.210938 -4.101562 L 4.210938 -3.125 L 4.535156 -3.125 L 4.816406 -3.40625 L 5.230469 -2.996094 L 4.210938 -2.996094 L 4.210938 -0.0859375 C 4.210938 0.1875 4.050781 0.382812 3.734375 0.5 C 3.71875 0.28125 3.480469 0.121094 3.015625 0.0234375 L 3.015625 -0.0859375 C 3.40625 -0.0273438 3.652344 -0.0078125 3.753906 -0.0234375 C 3.855469 -0.0351562 3.90625 -0.121094 3.90625 -0.28125 L 3.90625 -2.996094 L 2.777344 -2.996094 C 2.589844 -2.996094 2.417969 -2.972656 2.257812 -2.929688 L 2.0625 -3.125 L 3.90625 -3.125 M 2.496094 -2.453125 C 2.871094 -2.191406 3.09375 -2.011719 3.15625 -1.910156 C 3.222656 -1.808594 3.253906 -1.730469 3.253906 -1.671875 C 3.253906 -1.597656 3.222656 -1.515625 3.15625 -1.421875 C 3.09375 -1.328125 3.046875 -1.28125 3.015625 -1.28125 C 2.972656 -1.28125 2.929688 -1.367188 2.886719 -1.539062 C 2.8125 -1.800781 2.664062 -2.082031 2.429688 -2.386719 L 2.496094 -2.453125 M 0.804688 -3.601562 L 0.804688 -2.300781 L 1.691406 -2.300781 L 1.691406 -3.601562 L 0.804688 -3.601562 M 0.804688 -2.171875 L 0.804688 -0.78125 L 1.691406 -0.78125 L 1.691406 -2.171875 L 0.804688 -2.171875 M 1.996094 -1.734375 C 1.996094 -1.042969 2.003906 -0.59375 2.019531 -0.390625 L 1.691406 -0.21875 L 1.691406 -0.652344 L 0.804688 -0.652344 L 0.804688 -0.195312 L 0.476562 -0.0234375 C 0.492188 -0.484375 0.5 -1.179688 0.5 -2.105469 C 0.5 -3.03125 0.492188 -3.632812 0.476562 -3.90625 L 0.824219 -3.734375 L 1.648438 -3.734375 L 1.824219 -3.949219 L 2.171875 -3.667969 L 1.996094 -3.515625 Z "/>
</g>
<g id="glyph-0-15">
</g>
<g id="glyph-1-0">
<path d="M 3.148438 0 L 1.84375 0 L 1.84375 -0.179688 C 1.882812 -0.183594 1.929688 -0.1875 1.980469 -0.191406 C 2.027344 -0.195312 2.070312 -0.199219 2.101562 -0.210938 C 2.152344 -0.226562 2.191406 -0.257812 2.214844 -0.296875 C 2.238281 -0.335938 2.25 -0.390625 2.25 -0.457031 L 2.25 -1.832031 C 2.25 -2.019531 2.207031 -2.167969 2.117188 -2.269531 C 2.027344 -2.375 1.917969 -2.425781 1.789062 -2.425781 C 1.691406 -2.425781 1.605469 -2.410156 1.527344 -2.378906 C 1.445312 -2.351562 1.375 -2.3125 1.3125 -2.269531 C 1.253906 -2.230469 1.207031 -2.183594 1.171875 -2.136719 C 1.136719 -2.089844 1.109375 -2.050781 1.09375 -2.019531 L 1.09375 -0.484375 C 1.09375 -0.421875 1.105469 -0.371094 1.132812 -0.332031 C 1.15625 -0.292969 1.195312 -0.261719 1.246094 -0.238281 C 1.28125 -0.21875 1.324219 -0.207031 1.367188 -0.199219 C 1.414062 -0.1875 1.457031 -0.183594 1.503906 -0.179688 L 1.503906 0 L 0.195312 0 L 0.195312 -0.179688 C 0.238281 -0.183594 0.28125 -0.1875 0.324219 -0.191406 C 0.367188 -0.195312 0.40625 -0.199219 0.441406 -0.210938 C 0.488281 -0.226562 0.527344 -0.257812 0.550781 -0.296875 C 0.578125 -0.335938 0.589844 -0.390625 0.589844 -0.457031 L 0.589844 -2.105469 C 0.589844 -2.167969 0.574219 -2.222656 0.550781 -2.273438 C 0.523438 -2.328125 0.488281 -2.367188 0.441406 -2.402344 C 0.40625 -2.421875 0.363281 -2.4375 0.316406 -2.449219 C 0.269531 -2.457031 0.21875 -2.464844 0.164062 -2.46875 L 0.164062 -2.648438 L 1.054688 -2.707031 L 1.09375 -2.667969 L 1.09375 -2.292969 L 1.105469 -2.292969 C 1.148438 -2.335938 1.203125 -2.386719 1.269531 -2.449219 C 1.335938 -2.507812 1.394531 -2.558594 1.453125 -2.597656 C 1.519531 -2.640625 1.601562 -2.675781 1.691406 -2.703125 C 1.785156 -2.734375 1.890625 -2.75 2.003906 -2.75 C 2.261719 -2.75 2.453125 -2.667969 2.574219 -2.507812 C 2.699219 -2.347656 2.761719 -2.136719 2.761719 -1.871094 L 2.761719 -0.476562 C 2.761719 -0.414062 2.773438 -0.363281 2.792969 -0.324219 C 2.816406 -0.285156 2.851562 -0.253906 2.90625 -0.234375 C 2.949219 -0.214844 2.988281 -0.203125 3.019531 -0.195312 C 3.050781 -0.1875 3.09375 -0.183594 3.148438 -0.179688 Z "/>
</g>
<g id="glyph-1-1">
</g>
<g id="glyph-2-0">
<path d="M 4.144531 -1.929688 C 4.695312 -1.382812 5 -1.042969 5.058594 -0.910156 C 5.113281 -0.78125 5.144531 -0.679688 5.144531 -0.609375 C 5.144531 -0.507812 5.113281 -0.414062 5.058594 -0.324219 C 5 -0.238281 4.960938 -0.195312 4.949219 -0.195312 C 4.875 -0.195312 4.8125 -0.316406 4.753906 -0.5625 C 4.652344 -0.898438 4.425781 -1.339844 4.082031 -1.886719 L 4.144531 -1.929688 M 2.386719 -3.992188 L 4.320312 -3.992188 L 4.578125 -4.253906 L 4.96875 -3.863281 L 2.757812 -3.863281 L 2.5625 -3.820312 L 2.386719 -3.992188 M 2.691406 -0.0664062 C 3.082031 0.0078125 3.3125 0.0351562 3.386719 0.0234375 C 3.457031 0.0078125 3.496094 -0.0507812 3.496094 -0.152344 L 3.496094 -2.5625 L 2.429688 -2.5625 L 2.234375 -2.515625 L 2.0625 -2.691406 L 4.644531 -2.691406 L 4.925781 -2.972656 L 5.339844 -2.5625 L 3.820312 -2.5625 L 3.820312 0.0234375 C 3.804688 0.253906 3.644531 0.417969 3.34375 0.519531 C 3.34375 0.347656 3.125 0.1875 2.691406 0.0429688 L 2.691406 -0.0664062 M 2.710938 -1.976562 L 3.191406 -1.691406 L 2.972656 -1.585938 C 2.613281 -0.933594 2.226562 -0.414062 1.824219 -0.0234375 L 1.757812 -0.0859375 C 2.164062 -0.621094 2.480469 -1.25 2.710938 -1.976562 M 1.453125 -2.367188 C 1.453125 -0.804688 1.460938 0.121094 1.476562 0.414062 L 1.128906 0.542969 C 1.144531 -0.078125 1.148438 -0.933594 1.148438 -2.019531 C 0.933594 -1.511719 0.652344 -1.042969 0.304688 -0.609375 L 0.238281 -0.695312 C 0.644531 -1.34375 0.949219 -2.121094 1.148438 -3.015625 L 0.609375 -3.015625 L 0.414062 -2.972656 L 0.238281 -3.148438 L 1.148438 -3.148438 C 1.148438 -3.695312 1.144531 -4.175781 1.128906 -4.578125 L 1.648438 -4.320312 L 1.453125 -4.167969 L 1.453125 -3.148438 L 1.734375 -3.148438 L 1.976562 -3.386719 L 2.34375 -3.015625 L 1.453125 -3.015625 L 1.453125 -2.472656 C 1.730469 -2.328125 1.914062 -2.207031 2.007812 -2.105469 C 2.101562 -2.003906 2.148438 -1.917969 2.148438 -1.84375 C 2.148438 -1.800781 2.125 -1.738281 2.082031 -1.660156 C 2.039062 -1.582031 2.003906 -1.539062 1.976562 -1.539062 C 1.929688 -1.539062 1.882812 -1.628906 1.824219 -1.800781 C 1.722656 -2.03125 1.597656 -2.222656 1.453125 -2.367188 Z "/>
</g>
<g id="glyph-2-1">
<path d="M 2.234375 0.519531 C 2.25 0 2.257812 -0.332031 2.257812 -0.476562 L 2.257812 -2.929688 C 2.027344 -2.554688 1.757812 -2.214844 1.453125 -1.910156 L 1.390625 -1.953125 C 1.679688 -2.359375 1.929688 -2.8125 2.136719 -3.308594 C 2.347656 -3.808594 2.480469 -4.203125 2.539062 -4.492188 L 2.996094 -4.210938 L 2.820312 -4.101562 C 2.691406 -3.839844 2.582031 -3.617188 2.496094 -3.429688 L 4.492188 -3.429688 L 4.796875 -3.734375 L 5.230469 -3.300781 L 3.863281 -3.300781 L 3.863281 -2.410156 L 4.339844 -2.410156 L 4.621094 -2.691406 L 5.035156 -2.277344 L 3.863281 -2.277344 L 3.863281 -1.257812 L 4.425781 -1.257812 L 4.710938 -1.539062 L 5.121094 -1.128906 L 3.863281 -1.128906 L 3.863281 -0.0859375 L 4.558594 -0.0859375 L 4.863281 -0.390625 L 5.296875 0.0429688 L 2.5625 0.0429688 L 2.5625 0.367188 L 2.234375 0.519531 M 3.558594 -3.300781 L 2.5625 -3.300781 L 2.5625 -2.410156 L 3.558594 -2.410156 L 3.558594 -3.300781 M 2.5625 -2.277344 L 2.5625 -1.257812 L 3.558594 -1.257812 L 3.558594 -2.277344 L 2.5625 -2.277344 M 2.5625 -1.128906 L 2.5625 -0.0859375 L 3.558594 -0.0859375 L 3.558594 -1.128906 L 2.5625 -1.128906 M 3.363281 -4.472656 L 3.429688 -4.515625 C 3.847656 -4.238281 4.050781 -4.035156 4.035156 -3.90625 C 4.023438 -3.777344 3.984375 -3.6875 3.929688 -3.636719 C 3.871094 -3.585938 3.828125 -3.558594 3.796875 -3.558594 C 3.738281 -3.558594 3.703125 -3.632812 3.691406 -3.777344 C 3.644531 -3.964844 3.539062 -4.195312 3.363281 -4.472656 M 0.433594 -4.230469 C 0.925781 -3.941406 1.167969 -3.730469 1.160156 -3.59375 C 1.152344 -3.453125 1.121094 -3.351562 1.0625 -3.289062 C 1.003906 -3.222656 0.960938 -3.191406 0.933594 -3.191406 C 0.890625 -3.191406 0.847656 -3.261719 0.804688 -3.40625 C 0.746094 -3.609375 0.609375 -3.871094 0.390625 -4.1875 L 0.433594 -4.230469 M 0.261719 -1.585938 C 0.449219 -1.585938 0.609375 -1.601562 0.75 -1.636719 C 0.886719 -1.675781 1.246094 -2.429688 1.824219 -3.90625 L 1.910156 -3.886719 C 1.648438 -3.117188 1.445312 -2.53125 1.300781 -2.125 C 1.144531 -1.722656 1.054688 -1.34375 1.042969 -0.988281 C 1.027344 -0.632812 1.027344 -0.355469 1.042969 -0.152344 C 1.042969 0.0664062 0.988281 0.15625 0.878906 0.121094 C 0.769531 0.0820312 0.695312 0.03125 0.652344 -0.03125 C 0.609375 -0.0976562 0.585938 -0.171875 0.585938 -0.261719 C 0.585938 -0.347656 0.59375 -0.417969 0.609375 -0.476562 C 0.652344 -0.652344 0.6875 -0.808594 0.714844 -0.953125 C 0.746094 -1.101562 0.734375 -1.214844 0.683594 -1.300781 C 0.632812 -1.390625 0.492188 -1.453125 0.261719 -1.496094 Z "/>
</g>
<g id="glyph-2-2">
<path d="M 1.195312 0.519531 C 1.207031 0.0585938 1.214844 -0.382812 1.214844 -0.804688 L 1.214844 -2.710938 C 0.898438 -2.234375 0.59375 -1.84375 0.304688 -1.539062 L 0.238281 -1.605469 C 0.558594 -2.054688 0.855469 -2.574219 1.128906 -3.167969 C 1.402344 -3.761719 1.578125 -4.210938 1.648438 -4.515625 L 2.125 -4.230469 L 1.910156 -4.101562 C 1.722656 -3.683594 1.546875 -3.320312 1.390625 -3.015625 L 1.691406 -2.84375 L 1.519531 -2.667969 L 1.519531 -0.304688 C 1.519531 -0.144531 1.527344 0.0742188 1.539062 0.347656 L 1.195312 0.519531 M 2.996094 -1.84375 L 2.996094 -3.40625 C 2.996094 -3.726562 2.988281 -4.09375 2.972656 -4.515625 L 3.472656 -4.277344 L 3.300781 -4.101562 L 3.300781 -2.082031 C 3.5 -2.273438 3.722656 -2.511719 3.960938 -2.800781 C 4.199219 -3.089844 4.371094 -3.320312 4.472656 -3.496094 L 4.863281 -3.125 L 4.621094 -3.058594 C 4.203125 -2.582031 3.761719 -2.140625 3.300781 -1.734375 L 3.300781 -0.367188 C 3.300781 -0.121094 3.421875 0 3.667969 0 L 4.601562 0 C 4.71875 0 4.789062 -0.09375 4.816406 -0.28125 C 4.847656 -0.46875 4.863281 -0.757812 4.863281 -1.148438 L 4.96875 -1.148438 C 5 -0.757812 5.035156 -0.5 5.078125 -0.367188 C 5.121094 -0.238281 5.203125 -0.152344 5.316406 -0.109375 C 5.1875 0.152344 4.976562 0.28125 4.6875 0.28125 L 3.539062 0.28125 C 3.175781 0.28125 2.996094 0.117188 2.996094 -0.21875 L 2.996094 -1.539062 C 2.617188 -1.25 2.183594 -1.003906 1.691406 -0.804688 L 1.671875 -0.890625 C 2.175781 -1.179688 2.617188 -1.496094 2.996094 -1.84375 Z "/>
</g>
<g id="glyph-2-3">
<path d="M 0.261719 0.476562 C 0.621094 0.0273438 0.855469 -0.398438 0.964844 -0.804688 C 1.074219 -1.207031 1.132812 -1.695312 1.140625 -2.269531 C 1.148438 -2.839844 1.144531 -3.429688 1.128906 -4.035156 L 1.476562 -3.820312 C 2.300781 -3.890625 2.980469 -3.984375 3.515625 -4.101562 C 4.050781 -4.21875 4.40625 -4.324219 4.578125 -4.425781 L 4.882812 -4.015625 C 4.695312 -4.03125 4.269531 -3.992188 3.601562 -3.90625 C 2.921875 -3.804688 2.207031 -3.734375 1.453125 -3.691406 L 1.453125 -2.800781 L 4.472656 -2.800781 L 4.753906 -3.082031 L 5.144531 -2.667969 L 1.453125 -2.667969 C 1.46875 -1.800781 1.382812 -1.140625 1.195312 -0.683594 C 1.003906 -0.226562 0.714844 0.179688 0.324219 0.542969 L 0.261719 0.476562 M 4.535156 -1.539062 L 4.535156 -0.433594 C 4.535156 -0.21875 4.542969 -0.0234375 4.558594 0.152344 L 4.230469 0.28125 L 4.230469 -0.109375 L 2.277344 -0.109375 L 2.277344 0.238281 L 1.929688 0.390625 C 1.960938 0.0585938 1.976562 -0.335938 1.976562 -0.792969 C 1.976562 -1.246094 1.96875 -1.636719 1.953125 -1.953125 L 2.320312 -1.757812 L 4.1875 -1.757812 L 4.40625 -1.976562 L 4.710938 -1.671875 L 4.535156 -1.539062 M 2.277344 -1.628906 L 2.277344 -0.238281 L 4.230469 -0.238281 L 4.230469 -1.628906 Z "/>
</g>
<g id="glyph-2-4">
<path d="M 0.976562 -3.277344 L 0.976562 -1.886719 L 2.105469 -1.886719 L 2.105469 -3.277344 L 0.976562 -3.277344 M 0.976562 -1.757812 L 0.976562 -0.238281 L 2.105469 -0.238281 L 2.105469 -1.757812 L 0.976562 -1.757812 M 2.386719 -3.148438 C 2.386719 -1.453125 2.394531 -0.347656 2.410156 0.171875 L 2.105469 0.347656 L 2.105469 -0.109375 L 0.976562 -0.109375 L 0.976562 0.261719 L 0.671875 0.433594 C 0.6875 -0.246094 0.695312 -0.921875 0.695312 -1.59375 C 0.695312 -2.269531 0.6875 -2.9375 0.671875 -3.601562 L 1 -3.40625 L 1.214844 -3.40625 C 1.359375 -3.898438 1.441406 -4.277344 1.453125 -4.535156 L 1.929688 -4.277344 C 1.785156 -4.203125 1.589844 -3.914062 1.34375 -3.40625 L 2.0625 -3.40625 L 2.277344 -3.625 L 2.605469 -3.300781 L 2.386719 -3.148438 M 3.449219 -4.515625 L 3.929688 -4.230469 C 3.8125 -4.160156 3.632812 -3.863281 3.386719 -3.34375 L 4.558594 -3.34375 L 4.796875 -3.582031 L 5.121094 -3.253906 L 4.925781 -3.105469 C 4.898438 -1.410156 4.859375 -0.453125 4.808594 -0.226562 C 4.757812 -0.00390625 4.683594 0.152344 4.589844 0.238281 C 4.496094 0.324219 4.347656 0.40625 4.144531 0.476562 C 4.074219 0.246094 3.835938 0.0742188 3.429688 -0.0429688 L 3.429688 -0.152344 C 3.789062 -0.078125 4.050781 -0.0429688 4.210938 -0.0429688 C 4.371094 -0.0429688 4.46875 -0.167969 4.503906 -0.414062 C 4.539062 -0.660156 4.570312 -1.589844 4.601562 -3.210938 L 3.34375 -3.210938 C 3.082031 -2.792969 2.808594 -2.4375 2.515625 -2.148438 L 2.453125 -2.191406 C 2.757812 -2.65625 2.980469 -3.066406 3.125 -3.429688 C 3.269531 -3.789062 3.378906 -4.152344 3.449219 -4.515625 M 3.058594 -2.386719 C 3.40625 -2.125 3.609375 -1.933594 3.667969 -1.8125 C 3.726562 -1.6875 3.753906 -1.597656 3.753906 -1.539062 C 3.753906 -1.441406 3.726562 -1.351562 3.667969 -1.28125 C 3.609375 -1.207031 3.566406 -1.171875 3.539062 -1.171875 C 3.480469 -1.171875 3.4375 -1.273438 3.40625 -1.476562 C 3.347656 -1.765625 3.21875 -2.046875 3.015625 -2.320312 Z "/>
</g>
<g id="glyph-2-5">
<path d="M 3.429688 -4.363281 C 3.746094 -4.246094 3.976562 -4.148438 4.113281 -4.070312 C 4.25 -3.988281 4.320312 -3.890625 4.320312 -3.777344 C 4.320312 -3.746094 4.300781 -3.683594 4.265625 -3.582031 C 4.226562 -3.480469 4.195312 -3.429688 4.167969 -3.429688 C 4.125 -3.429688 4.074219 -3.488281 4.015625 -3.601562 C 3.898438 -3.789062 3.691406 -4.023438 3.386719 -4.296875 L 3.429688 -4.363281 M 2.515625 -4.535156 L 3.039062 -4.253906 L 2.863281 -4.082031 L 2.863281 -3.277344 L 4.382812 -3.277344 L 4.6875 -3.601562 L 5.121094 -3.148438 L 2.886719 -3.148438 C 3.074219 -2.539062 3.269531 -2.070312 3.472656 -1.734375 C 3.890625 -2.070312 4.210938 -2.394531 4.425781 -2.710938 L 4.796875 -2.300781 C 4.636719 -2.273438 4.472656 -2.207031 4.296875 -2.105469 C 4.125 -1.988281 3.863281 -1.832031 3.515625 -1.628906 C 4.007812 -0.917969 4.601562 -0.484375 5.296875 -0.324219 L 5.296875 -0.238281 C 5.050781 -0.210938 4.882812 -0.109375 4.796875 0.0664062 C 3.769531 -0.5 3.125 -1.484375 2.863281 -2.886719 L 2.863281 -0.152344 C 2.878906 0.195312 2.699219 0.417969 2.320312 0.519531 C 2.308594 0.316406 2.089844 0.152344 1.671875 0.0234375 L 1.671875 -0.0664062 C 1.988281 -0.0351562 2.210938 -0.0234375 2.332031 -0.0234375 C 2.457031 -0.0234375 2.523438 -0.0859375 2.539062 -0.21875 L 2.539062 -1.476562 C 1.976562 -1.113281 1.53125 -0.824219 1.203125 -0.609375 C 0.878906 -0.390625 0.679688 -0.21875 0.609375 -0.0859375 L 0.261719 -0.519531 C 0.417969 -0.550781 0.6875 -0.660156 1.0625 -0.847656 C 1.441406 -1.035156 1.929688 -1.289062 2.539062 -1.605469 L 2.539062 -3.148438 L 1.105469 -3.148438 C 0.917969 -3.148438 0.746094 -3.125 0.585938 -3.082031 L 0.390625 -3.277344 L 2.539062 -3.277344 C 2.539062 -3.898438 2.53125 -4.320312 2.515625 -4.535156 M 0.910156 -2.757812 C 1.332031 -2.597656 1.597656 -2.464844 1.714844 -2.355469 C 1.832031 -2.246094 1.886719 -2.140625 1.886719 -2.039062 C 1.886719 -1.980469 1.859375 -1.902344 1.800781 -1.800781 C 1.742188 -1.699219 1.699219 -1.648438 1.671875 -1.648438 C 1.628906 -1.648438 1.578125 -1.730469 1.519531 -1.886719 C 1.417969 -2.121094 1.199219 -2.386719 0.867188 -2.691406 Z "/>
</g>
<g id="glyph-2-6">
<path d="M 1.953125 -2.148438 C 1.953125 -0.816406 1.960938 0 1.976562 0.304688 L 1.628906 0.476562 C 1.640625 0.0429688 1.648438 -0.832031 1.648438 -2.148438 C 1.476562 -1.816406 1.273438 -1.507812 1.042969 -1.226562 C 0.808594 -0.945312 0.558594 -0.695312 0.28125 -0.476562 L 0.238281 -0.542969 C 0.570312 -0.902344 0.847656 -1.277344 1.0625 -1.660156 C 1.28125 -2.042969 1.441406 -2.402344 1.539062 -2.734375 L 0.804688 -2.734375 L 0.609375 -2.691406 L 0.433594 -2.863281 L 1.648438 -2.863281 L 1.648438 -3.839844 C 1.445312 -3.8125 1.078125 -3.777344 0.542969 -3.734375 L 0.542969 -3.820312 C 1.035156 -3.890625 1.441406 -3.976562 1.757812 -4.070312 C 2.078125 -4.164062 2.351562 -4.28125 2.582031 -4.425781 L 2.886719 -4.035156 C 2.496094 -3.992188 2.183594 -3.941406 1.953125 -3.886719 L 1.953125 -2.863281 L 2.472656 -2.863281 L 2.710938 -3.105469 L 3.058594 -2.734375 L 1.953125 -2.734375 L 1.953125 -2.257812 C 2.503906 -2.082031 2.800781 -1.941406 2.84375 -1.832031 C 2.886719 -1.726562 2.910156 -1.640625 2.910156 -1.585938 C 2.910156 -1.511719 2.894531 -1.449219 2.863281 -1.398438 C 2.835938 -1.347656 2.8125 -1.324219 2.800781 -1.324219 C 2.757812 -1.324219 2.707031 -1.375 2.648438 -1.476562 C 2.5625 -1.621094 2.328125 -1.84375 1.953125 -2.148438 M 4.925781 -3.496094 C 4.925781 -1.859375 4.933594 -0.832031 4.949219 -0.414062 L 4.621094 -0.28125 L 4.621094 -0.738281 L 3.515625 -0.738281 L 3.515625 -0.238281 L 3.191406 -0.0859375 C 3.203125 -0.722656 3.210938 -1.398438 3.210938 -2.117188 C 3.210938 -2.832031 3.203125 -3.4375 3.191406 -3.929688 L 3.515625 -3.710938 L 4.578125 -3.710938 L 4.796875 -3.929688 L 5.101562 -3.625 L 4.925781 -3.496094 M 3.515625 -3.582031 L 3.515625 -0.867188 L 4.621094 -0.867188 L 4.621094 -3.582031 Z "/>
</g>
<g id="glyph-2-7">
<path d="M 1.628906 -1.300781 L 2.125 -1.042969 L 1.953125 -0.910156 L 1.953125 -0.238281 C 1.953125 -0.078125 2.027344 0.0078125 2.171875 0.0234375 L 3.515625 0.0234375 C 3.644531 0.0078125 3.730469 -0.0742188 3.765625 -0.21875 C 3.800781 -0.363281 3.828125 -0.59375 3.839844 -0.910156 L 3.929688 -0.910156 C 3.941406 -0.621094 3.960938 -0.414062 3.984375 -0.28125 C 4.003906 -0.152344 4.082031 -0.0742188 4.210938 -0.0429688 C 4.109375 0.171875 3.941406 0.28125 3.710938 0.28125 L 2.082031 0.28125 C 1.765625 0.28125 1.621094 0.136719 1.648438 -0.152344 C 1.648438 -0.746094 1.640625 -1.128906 1.628906 -1.300781 M 2.277344 -1.539062 L 2.320312 -1.605469 C 2.667969 -1.433594 2.894531 -1.300781 2.996094 -1.214844 C 3.097656 -1.128906 3.148438 -1.042969 3.148438 -0.953125 C 3.148438 -0.882812 3.125 -0.804688 3.082031 -0.726562 C 3.039062 -0.648438 3.003906 -0.609375 2.972656 -0.609375 C 2.929688 -0.609375 2.878906 -0.671875 2.820312 -0.804688 C 2.734375 -1.003906 2.554688 -1.25 2.277344 -1.539062 M 4.035156 -1.128906 L 4.082031 -1.195312 C 4.355469 -1.078125 4.574219 -0.96875 4.742188 -0.867188 C 4.910156 -0.765625 5.007812 -0.660156 5.035156 -0.554688 C 5.0625 -0.445312 5.054688 -0.347656 5.003906 -0.261719 C 4.953125 -0.171875 4.90625 -0.128906 4.863281 -0.128906 C 4.804688 -0.128906 4.746094 -0.203125 4.6875 -0.347656 C 4.585938 -0.5625 4.371094 -0.824219 4.035156 -1.128906 M 1 -1.128906 L 1.085938 -1.128906 C 1.054688 -0.679688 1.007812 -0.390625 0.945312 -0.261719 C 0.878906 -0.128906 0.792969 -0.0546875 0.683594 -0.03125 C 0.574219 -0.0117188 0.496094 -0.0195312 0.445312 -0.0546875 C 0.394531 -0.0898438 0.367188 -0.121094 0.367188 -0.152344 C 0.367188 -0.210938 0.433594 -0.296875 0.5625 -0.414062 C 0.738281 -0.558594 0.882812 -0.796875 1 -1.128906 M 1.734375 -4.425781 C 1.96875 -4.28125 2.140625 -4.148438 2.257812 -4.027344 C 2.371094 -3.902344 2.417969 -3.785156 2.386719 -3.667969 C 2.359375 -3.550781 2.316406 -3.472656 2.257812 -3.429688 C 2.199219 -3.386719 2.164062 -3.363281 2.148438 -3.363281 C 2.105469 -3.363281 2.070312 -3.445312 2.039062 -3.601562 C 1.996094 -3.804688 1.875 -4.066406 1.671875 -4.382812 L 1.734375 -4.425781 M 1.28125 -1.410156 C 1.296875 -1.757812 1.300781 -2.097656 1.300781 -2.429688 C 1.300781 -2.761719 1.296875 -3.082031 1.28125 -3.386719 L 1.605469 -3.210938 L 2.953125 -3.210938 C 3.210938 -3.691406 3.398438 -4.128906 3.515625 -4.535156 L 3.972656 -4.210938 L 3.753906 -4.144531 C 3.507812 -3.796875 3.285156 -3.488281 3.082031 -3.210938 L 3.949219 -3.210938 L 4.101562 -3.429688 L 4.449219 -3.167969 L 4.277344 -3.015625 C 4.277344 -2.292969 4.28125 -1.816406 4.296875 -1.585938 L 3.972656 -1.453125 L 3.972656 -1.691406 L 1.605469 -1.691406 L 1.605469 -1.519531 L 1.28125 -1.410156 M 1.605469 -3.082031 L 1.605469 -1.824219 L 3.972656 -1.824219 L 3.972656 -3.082031 Z "/>
</g>
<g id="glyph-2-8">
<path d="M 3.386719 -4.535156 L 3.839844 -4.253906 L 3.667969 -4.1875 C 3.539062 -3.984375 3.414062 -3.789062 3.300781 -3.601562 L 4.125 -3.601562 L 4.320312 -3.839844 L 4.6875 -3.496094 C 4.515625 -3.480469 4.246094 -3.203125 3.886719 -2.667969 L 4.644531 -2.667969 L 4.773438 -2.886719 L 5.121094 -2.648438 L 4.96875 -2.496094 C 4.96875 -1.441406 4.976562 -0.757812 4.992188 -0.457031 L 4.6875 -0.324219 L 4.6875 -0.695312 L 3.234375 -0.695312 C 3.117188 -0.695312 2.980469 -0.671875 2.820312 -0.628906 L 2.625 -0.824219 L 4.6875 -0.824219 L 4.6875 -1.648438 L 3.515625 -1.648438 C 3.398438 -1.648438 3.261719 -1.628906 3.105469 -1.585938 L 2.910156 -1.78125 L 4.6875 -1.78125 L 4.6875 -2.539062 L 3.386719 -2.539062 C 3.269531 -2.539062 3.132812 -2.515625 2.972656 -2.472656 L 2.777344 -2.667969 L 3.777344 -2.667969 L 4.144531 -3.472656 L 3.234375 -3.472656 C 3.074219 -3.253906 2.863281 -3.023438 2.605469 -2.777344 L 2.5625 -2.820312 C 2.964844 -3.398438 3.242188 -3.972656 3.386719 -4.535156 M 0.261719 0.476562 L 0.195312 0.433594 C 0.457031 -0.015625 0.617188 -0.480469 0.683594 -0.964844 C 0.75 -1.449219 0.765625 -1.832031 0.738281 -2.105469 L 1.214844 -1.867188 C 1.128906 -1.824219 1.074219 -1.726562 1.050781 -1.574219 C 1.03125 -1.421875 1.003906 -1.207031 0.976562 -0.933594 C 1.195312 -0.746094 1.367188 -0.613281 1.496094 -0.542969 L 1.496094 -2.453125 L 0.824219 -2.453125 C 0.707031 -2.453125 0.570312 -2.429688 0.414062 -2.386719 L 0.21875 -2.582031 L 1.390625 -2.582031 L 1.390625 -3.496094 L 1.0625 -3.496094 C 0.949219 -3.496094 0.808594 -3.472656 0.652344 -3.429688 L 0.457031 -3.625 L 1.390625 -3.625 C 1.390625 -3.914062 1.382812 -4.21875 1.367188 -4.535156 L 1.84375 -4.320312 L 1.671875 -4.167969 L 1.671875 -3.625 L 2.082031 -3.625 L 2.34375 -3.886719 L 2.691406 -3.496094 L 1.671875 -3.496094 L 1.671875 -2.582031 L 2.148438 -2.582031 L 2.429688 -2.84375 L 2.777344 -2.453125 L 1.519531 -2.453125 L 1.953125 -2.257812 L 1.78125 -2.082031 L 1.78125 -1.5625 L 2.277344 -1.5625 L 2.539062 -1.824219 L 2.863281 -1.433594 L 1.78125 -1.433594 L 1.78125 -0.367188 C 2.285156 -0.136719 2.773438 -0.015625 3.246094 0 C 3.714844 0.015625 4.058594 0.0234375 4.277344 0.0234375 C 4.679688 0.0234375 5.035156 0.0078125 5.339844 -0.0234375 L 5.339844 0.0429688 C 5.078125 0.160156 4.949219 0.28125 4.949219 0.414062 C 4.515625 0.425781 4.027344 0.410156 3.484375 0.359375 C 2.941406 0.308594 2.453125 0.191406 2.019531 0.0117188 C 1.585938 -0.171875 1.230469 -0.433594 0.953125 -0.78125 C 0.765625 -0.246094 0.535156 0.171875 0.261719 0.476562 Z "/>
</g>
<g id="glyph-2-9">
<path d="M 1.714844 -0.519531 C 2.191406 -1.085938 2.410156 -1.816406 2.367188 -2.710938 C 2.367188 -3.363281 2.359375 -3.828125 2.34375 -4.101562 L 2.667969 -3.886719 C 2.972656 -3.929688 3.316406 -3.996094 3.699219 -4.089844 C 4.082031 -4.183594 4.339844 -4.289062 4.472656 -4.40625 L 4.773438 -3.992188 L 4.558594 -4.015625 C 3.761719 -3.886719 3.125 -3.804688 2.648438 -3.777344 L 2.648438 -2.734375 L 4.578125 -2.734375 L 4.839844 -2.996094 L 5.207031 -2.605469 L 4.082031 -2.605469 C 4.082031 -1.519531 4.085938 -0.789062 4.101562 -0.414062 L 3.777344 -0.261719 C 3.789062 -0.636719 3.796875 -1.417969 3.796875 -2.605469 L 2.648438 -2.605469 C 2.691406 -1.679688 2.394531 -0.960938 1.757812 -0.457031 L 1.714844 -0.519531 M 0.714844 -4.339844 L 0.757812 -4.382812 C 1.019531 -4.226562 1.207031 -4.089844 1.324219 -3.984375 C 1.441406 -3.875 1.492188 -3.773438 1.476562 -3.679688 C 1.460938 -3.585938 1.429688 -3.515625 1.378906 -3.472656 C 1.328125 -3.429688 1.289062 -3.40625 1.257812 -3.40625 C 1.199219 -3.40625 1.148438 -3.496094 1.105469 -3.667969 C 1.050781 -3.886719 0.917969 -4.109375 0.714844 -4.339844 M 1.367188 -0.671875 C 1.496094 -0.542969 1.679688 -0.410156 1.910156 -0.269531 C 2.140625 -0.132812 2.476562 -0.0585938 2.917969 -0.0429688 C 3.359375 -0.0273438 3.78125 -0.0273438 4.179688 -0.0429688 C 4.574219 -0.0585938 4.960938 -0.078125 5.339844 -0.109375 L 5.339844 -0.0234375 C 5.035156 0.0507812 4.882812 0.160156 4.882812 0.304688 C 4.21875 0.304688 3.667969 0.296875 3.234375 0.28125 C 2.800781 0.269531 2.464844 0.214844 2.222656 0.121094 C 1.984375 0.0234375 1.78125 -0.109375 1.605469 -0.28125 C 1.417969 -0.457031 1.300781 -0.554688 1.257812 -0.574219 C 1.214844 -0.597656 1.121094 -0.527344 0.976562 -0.367188 C 0.832031 -0.210938 0.679688 -0.0078125 0.519531 0.238281 L 0.21875 -0.0429688 C 0.507812 -0.246094 0.796875 -0.457031 1.085938 -0.671875 L 1.085938 -2.539062 L 0.910156 -2.539062 C 0.722656 -2.539062 0.550781 -2.515625 0.390625 -2.472656 L 0.195312 -2.667969 L 1.019531 -2.667969 L 1.257812 -2.910156 L 1.5625 -2.605469 L 1.367188 -2.472656 Z "/>
</g>
<g id="glyph-2-10">
<path d="M 1.390625 -2.367188 C 1.390625 -2.46875 1.382812 -2.640625 1.367188 -2.886719 L 1.910156 -2.625 L 1.691406 -2.472656 L 1.691406 -0.0234375 L 2.777344 -0.0234375 L 2.777344 -3.90625 L 1.453125 -3.90625 C 1.265625 -3.90625 1.09375 -3.886719 0.933594 -3.839844 L 0.738281 -4.035156 L 4.40625 -4.035156 L 4.730469 -4.363281 L 5.1875 -3.90625 L 3.082031 -3.90625 L 3.082031 -2.191406 L 4.144531 -2.191406 L 4.449219 -2.496094 L 4.882812 -2.0625 L 3.082031 -2.0625 L 3.082031 -0.0234375 L 4.40625 -0.0234375 L 4.753906 -0.367188 L 5.230469 0.109375 L 1.042969 0.109375 C 0.855469 0.109375 0.679688 0.128906 0.519531 0.171875 L 0.324219 -0.0234375 L 1.390625 -0.0234375 Z "/>
</g>
<g id="glyph-2-11">
<path d="M 2.472656 -4.535156 L 3.039062 -4.277344 L 2.820312 -4.167969 C 2.792969 -3.980469 2.757812 -3.753906 2.710938 -3.496094 L 4.382812 -3.496094 L 4.710938 -3.820312 L 5.164062 -3.363281 L 2.910156 -3.363281 C 3.210938 -2.828125 3.589844 -2.445312 4.035156 -2.214844 C 4.484375 -1.980469 4.898438 -1.851562 5.273438 -1.824219 L 5.273438 -1.734375 C 5 -1.691406 4.847656 -1.597656 4.816406 -1.453125 C 4.226562 -1.671875 3.773438 -1.957031 3.460938 -2.3125 C 3.152344 -2.664062 2.929688 -3.015625 2.800781 -3.363281 L 2.691406 -3.363281 C 2.546875 -2.929688 2.371094 -2.582031 2.171875 -2.320312 C 2.429688 -2.222656 2.644531 -2.121094 2.8125 -2.019531 C 2.976562 -1.917969 3.058594 -1.8125 3.058594 -1.703125 C 3.058594 -1.59375 3.042969 -1.519531 3.007812 -1.476562 C 2.96875 -1.433594 2.945312 -1.410156 2.929688 -1.410156 C 2.871094 -1.410156 2.800781 -1.484375 2.710938 -1.628906 C 2.582031 -1.832031 2.378906 -2.03125 2.105469 -2.234375 C 1.65625 -1.832031 1.042969 -1.535156 0.261719 -1.34375 L 0.21875 -1.433594 C 0.78125 -1.589844 1.246094 -1.828125 1.605469 -2.136719 C 1.96875 -2.449219 2.222656 -2.859375 2.367188 -3.363281 L 1.0625 -3.363281 C 0.875 -3.363281 0.703125 -3.34375 0.542969 -3.300781 L 0.347656 -3.496094 L 2.386719 -3.496094 C 2.445312 -3.914062 2.472656 -4.261719 2.472656 -4.535156 M 1.148438 -1.085938 C 1.148438 -0.824219 1.125 -0.597656 1.074219 -0.402344 C 1.023438 -0.207031 0.957031 -0.0898438 0.878906 -0.0546875 C 0.800781 -0.0195312 0.730469 0 0.671875 0 C 0.601562 0 0.539062 -0.0117188 0.488281 -0.03125 C 0.4375 -0.0546875 0.414062 -0.078125 0.414062 -0.109375 C 0.414062 -0.152344 0.46875 -0.222656 0.585938 -0.324219 C 0.757812 -0.457031 0.917969 -0.714844 1.0625 -1.105469 L 1.148438 -1.085938 M 2.257812 -1.390625 L 2.300781 -1.453125 C 2.574219 -1.339844 2.78125 -1.234375 2.917969 -1.140625 C 3.054688 -1.046875 3.121094 -0.949219 3.113281 -0.847656 C 3.105469 -0.746094 3.078125 -0.664062 3.027344 -0.609375 C 2.976562 -0.550781 2.945312 -0.519531 2.929688 -0.519531 C 2.871094 -0.519531 2.820312 -0.585938 2.777344 -0.714844 C 2.707031 -0.890625 2.53125 -1.113281 2.257812 -1.390625 M 4.015625 -1.128906 L 4.082031 -1.171875 C 4.425781 -0.984375 4.667969 -0.828125 4.796875 -0.707031 C 4.925781 -0.582031 4.980469 -0.464844 4.960938 -0.347656 C 4.9375 -0.230469 4.902344 -0.152344 4.851562 -0.109375 C 4.800781 -0.0664062 4.765625 -0.0429688 4.753906 -0.0429688 C 4.695312 -0.0429688 4.636719 -0.128906 4.578125 -0.304688 C 4.492188 -0.535156 4.304688 -0.808594 4.015625 -1.128906 M 1.648438 -0.0429688 C 1.648438 -0.636719 1.640625 -1.09375 1.628906 -1.410156 L 2.125 -1.148438 L 1.953125 -1 L 1.953125 -0.152344 C 1.925781 0.0351562 2.011719 0.121094 2.214844 0.109375 L 3.363281 0.109375 C 3.539062 0.109375 3.640625 0.0351562 3.667969 -0.109375 C 3.695312 -0.253906 3.710938 -0.476562 3.710938 -0.78125 L 3.820312 -0.78125 C 3.835938 -0.519531 3.855469 -0.316406 3.886719 -0.171875 C 3.914062 -0.0273438 4 0.0585938 4.144531 0.0859375 C 4.03125 0.289062 3.828125 0.382812 3.539062 0.367188 L 2.234375 0.367188 C 1.832031 0.398438 1.636719 0.261719 1.648438 -0.0429688 Z "/>
</g>
<g id="glyph-2-12">
<path d="M 2.039062 -4.382812 L 2.472656 -4.058594 L 2.277344 -3.949219 C 2.03125 -3.488281 1.761719 -3.074219 1.464844 -2.710938 C 1.167969 -2.351562 0.789062 -2.03125 0.324219 -1.757812 L 0.28125 -1.824219 C 0.660156 -2.125 0.992188 -2.484375 1.28125 -2.898438 C 1.570312 -3.308594 1.824219 -3.804688 2.039062 -4.382812 M 3.558594 -4.320312 L 3.386719 -4.210938 C 3.542969 -3.632812 3.804688 -3.183594 4.167969 -2.863281 C 4.527344 -2.546875 4.914062 -2.351562 5.316406 -2.277344 L 5.316406 -2.214844 C 5.101562 -2.183594 4.949219 -2.089844 4.863281 -1.929688 C 4.382812 -2.191406 4.003906 -2.539062 3.722656 -2.972656 C 3.441406 -3.40625 3.25 -3.914062 3.148438 -4.492188 L 3.558594 -4.320312 M 1.195312 -2.277344 L 3.667969 -2.277344 L 3.886719 -2.496094 L 4.1875 -2.191406 L 4.015625 -2.0625 C 3.984375 -0.917969 3.914062 -0.226562 3.796875 0.0117188 C 3.683594 0.25 3.480469 0.417969 3.191406 0.519531 C 3.148438 0.289062 2.945312 0.121094 2.582031 0.0234375 L 2.582031 -0.0664062 C 2.945312 -0.0078125 3.179688 0.0195312 3.289062 0.0117188 C 3.398438 0.00390625 3.480469 -0.078125 3.539062 -0.238281 C 3.59375 -0.398438 3.652344 -1.035156 3.710938 -2.148438 L 2.582031 -2.148438 C 2.496094 -1.527344 2.320312 -1.003906 2.0625 -0.574219 C 1.800781 -0.148438 1.300781 0.222656 0.5625 0.542969 L 0.519531 0.457031 C 1.171875 0.121094 1.609375 -0.269531 1.832031 -0.726562 C 2.058594 -1.183594 2.191406 -1.65625 2.234375 -2.148438 L 1.5625 -2.148438 L 1.367188 -2.105469 Z "/>
</g>
<g id="glyph-2-13">
<path d="M 2.972656 -2.367188 C 2.972656 -2.65625 2.964844 -2.914062 2.953125 -3.148438 L 3.449219 -2.929688 L 3.277344 -2.777344 L 3.277344 -2.367188 L 4.296875 -2.367188 L 4.472656 -2.582031 L 4.839844 -2.300781 L 4.644531 -2.171875 L 4.644531 -0.433594 C 4.617188 -0.203125 4.457031 -0.0429688 4.167969 0.0429688 C 4.167969 -0.117188 3.984375 -0.269531 3.625 -0.414062 L 3.625 -0.5 C 3.886719 -0.457031 4.070312 -0.433594 4.179688 -0.433594 C 4.285156 -0.433594 4.339844 -0.492188 4.339844 -0.609375 L 4.339844 -2.234375 L 3.277344 -2.234375 L 3.277344 -0.476562 C 3.277344 -0.144531 3.285156 0.160156 3.300781 0.433594 L 2.953125 0.585938 C 2.964844 0.0507812 2.972656 -0.441406 2.972656 -0.890625 L 2.972656 -2.234375 L 1.976562 -2.234375 L 1.976562 -0.109375 L 1.648438 0.0234375 C 1.664062 -0.441406 1.671875 -1.179688 1.671875 -2.191406 C 1.265625 -1.6875 0.796875 -1.25 0.261719 -0.890625 L 0.21875 -0.953125 C 0.824219 -1.503906 1.261719 -1.996094 1.53125 -2.429688 C 1.796875 -2.863281 1.976562 -3.175781 2.0625 -3.363281 L 0.714844 -3.363281 L 0.519531 -3.320312 L 0.347656 -3.496094 L 2.105469 -3.496094 C 2.292969 -3.898438 2.417969 -4.246094 2.472656 -4.535156 L 2.996094 -4.210938 L 2.777344 -4.101562 L 2.453125 -3.496094 L 4.492188 -3.496094 L 4.816406 -3.820312 L 5.273438 -3.363281 L 2.410156 -3.363281 C 2.25 -3.058594 2.078125 -2.761719 1.886719 -2.472656 L 1.953125 -2.367188 Z "/>
</g>
<g id="glyph-2-14">
<path d="M 1.929688 -0.890625 C 2.019531 -0.832031 2.0625 -0.738281 2.0625 -0.609375 C 2.0625 -0.476562 2.015625 -0.382812 1.921875 -0.324219 C 1.828125 -0.269531 1.75 -0.238281 1.691406 -0.238281 C 1.648438 -0.238281 1.582031 -0.265625 1.488281 -0.316406 C 1.394531 -0.367188 1.339844 -0.460938 1.324219 -0.597656 C 1.308594 -0.734375 1.347656 -0.832031 1.441406 -0.890625 C 1.539062 -0.949219 1.621094 -0.976562 1.691406 -0.976562 C 1.765625 -0.976562 1.84375 -0.949219 1.929688 -0.890625 M 1.996094 -3.484375 C 1.980469 -3.332031 1.941406 -2.925781 1.878906 -2.269531 C 1.8125 -1.609375 1.753906 -1.28125 1.703125 -1.28125 C 1.652344 -1.28125 1.589844 -1.609375 1.519531 -2.269531 C 1.445312 -2.925781 1.40625 -3.339844 1.398438 -3.503906 C 1.394531 -3.671875 1.433594 -3.777344 1.519531 -3.820312 C 1.605469 -3.863281 1.671875 -3.886719 1.714844 -3.886719 C 1.773438 -3.886719 1.835938 -3.855469 1.910156 -3.796875 C 1.980469 -3.738281 2.011719 -3.636719 1.996094 -3.484375 Z "/>
</g>
</g>
</defs>
<g fill="rgb(100%, 100%, 100%)" fill-opacity="1">
<use xlink:href="#glyph-0-0" x="30" y="25.455078"/>
<use xlink:href="#glyph-0-1" x="36" y="25.455078"/>
<use xlink:href="#glyph-0-2" x="42" y="25.455078"/>
<use xlink:href="#glyph-0-3" x="48" y="25.455078"/>
<use xlink:href="#glyph-0-4" x="54" y="25.455078"/>
<use xlink:href="#glyph-0-5" x="60" y="25.455078"/>
<use xlink:href="#glyph-0-6" x="66" y="25.455078"/>
<use xlink:href="#glyph-0-7" x="72" y="25.455078"/>
<use xlink:href="#glyph-0-8" x="78" y="25.455078"/>
<use xlink:href="#glyph-0-9" x="84" y="25.455078"/>
<use xlink:href="#glyph-0-10" x="90" y="25.455078"/>
</g>
<g fill="rgb(100%, 100%, 100%)" fill-opacity="1">
<use xlink:href="#glyph-1-0" x="96" y="25.094727"/>
<use xlink:href="#glyph-1-1" x="99" y="25.094727"/>
</g>
<g fill="rgb(100%, 100%, 100%)" fill-opacity="1">
<use xlink:href="#glyph-0-11" x="100" y="25.455078"/>
<use xlink:href="#glyph-0-12" x="106" y="25.455078"/>
<use xlink:href="#glyph-0-13" x="112" y="25.455078"/>
<use xlink:href="#glyph-0-14" x="118" y="25.455078"/>
<use xlink:href="#glyph-0-10" x="124" y="25.455078"/>
<use xlink:href="#glyph-0-15" x="130" y="25.455078"/>
</g>
<g fill="rgb(100%, 100%, 100%)" fill-opacity="1">
<use xlink:href="#glyph-2-0" x="30" y="34.356445"/>
<use xlink:href="#glyph-2-1" x="36" y="34.356445"/>
<use xlink:href="#glyph-2-2" x="42" y="34.356445"/>
<use xlink:href="#glyph-2-3" x="48" y="34.356445"/>
<use xlink:href="#glyph-2-4" x="54" y="34.356445"/>
<use xlink:href="#glyph-2-5" x="60" y="34.356445"/>
<use xlink:href="#glyph-2-6" x="66" y="34.356445"/>
<use xlink:href="#glyph-2-7" x="72" y="34.356445"/>
<use xlink:href="#glyph-2-8" x="78" y="34.356445"/>
<use xlink:href="#glyph-2-9" x="84" y="34.356445"/>
<use xlink:href="#glyph-2-0" x="90" y="34.356445"/>
<use xlink:href="#glyph-2-1" x="96" y="34.356445"/>
<use xlink:href="#glyph-2-10" x="102" y="34.356445"/>
<use xlink:href="#glyph-2-11" x="108" y="34.356445"/>
<use xlink:href="#glyph-2-12" x="114" y="34.356445"/>
<use xlink:href="#glyph-2-13" x="120" y="34.356445"/>
<use xlink:href="#glyph-2-14" x="126" y="34.356445"/>
</g>
</svg>
