<?xml version="1.0" encoding="UTF-8"?>
<svg xmlns="http://www.w3.org/2000/svg" xmlns:xlink="http://www.w3.org/1999/xlink" width="1280" height="720" viewBox="0 0 1280 720">
<defs>
<g>
<g id="glyph-0-0">
<path d="M 1.105469 0.542969 C 1.121094 0.0507812 1.128906 -0.875 1.128906 -2.234375 C 0.925781 -1.714844 0.628906 -1.238281 0.238281 -0.804688 L 0.195312 -0.847656 C 0.644531 -1.554688 0.941406 -2.320312 1.085938 -3.148438 L 0.585938 -3.148438 L 0.390625 -3.105469 L 0.21875 -3.277344 L 1.128906 -3.277344 C 1.128906 -3.929688 1.121094 -4.355469 1.105469 -4.558594 L 1.628906 -4.339844 L 1.410156 -4.1875 L 1.410156 -3.277344 L 1.648438 -3.277344 L 1.910156 -3.539062 L 2.300781 -3.148438 L 1.410156 -3.148438 L 1.410156 -2.605469 C 1.742188 -2.445312 1.949219 -2.320312 2.027344 -2.222656 C 2.109375 -2.128906 2.148438 -2.039062 2.148438 -1.953125 C 2.148438 -1.894531 2.128906 -1.828125 2.09375 -1.746094 C 2.058594 -1.667969 2.027344 -1.628906 1.996094 -1.628906 C 1.953125 -1.628906 1.902344 -1.707031 1.84375 -1.867188 C 1.742188 -2.097656 1.597656 -2.300781 1.410156 -2.472656 C 1.410156 -0.96875 1.417969 -0.0078125 1.433594 0.414062 L 1.105469 0.542969 M 3.886719 -3.820312 C 3.886719 -4.066406 3.878906 -4.320312 3.863281 -4.578125 L 4.363281 -4.339844 L 4.167969 -4.1875 L 4.167969 -3.820312 L 4.601562 -3.820312 L 4.863281 -4.082031 L 5.253906 -3.691406 L 4.167969 -3.691406 C 4.167969 -3.53125 4.175781 -3.394531 4.1875 -3.277344 L 3.886719 -3.167969 L 3.886719 -3.691406 L 3.148438 -3.691406 L 3.148438 -3.277344 L 2.84375 -3.125 C 2.859375 -3.300781 2.863281 -3.488281 2.863281 -3.691406 L 2.320312 -3.691406 L 2.125 -3.644531 L 1.953125 -3.820312 L 2.863281 -3.820312 C 2.863281 -4.023438 2.859375 -4.269531 2.84375 -4.558594 L 3.320312 -4.339844 L 3.148438 -4.210938 L 3.148438 -3.820312 L 3.886719 -3.820312 M 2.453125 -1.300781 C 2.46875 -1.691406 2.472656 -2.019531 2.472656 -2.277344 C 2.472656 -2.539062 2.46875 -2.84375 2.453125 -3.191406 L 2.757812 -3.015625 L 4.339844 -3.015625 L 4.515625 -3.210938 L 4.816406 -2.953125 L 4.644531 -2.820312 C 4.644531 -2.082031 4.652344 -1.636719 4.667969 -1.476562 L 4.363281 -1.34375 L 4.363281 -1.605469 L 3.601562 -1.605469 C 3.589844 -1.417969 3.566406 -1.207031 3.539062 -0.976562 L 4.621094 -0.976562 L 4.90625 -1.257812 L 5.316406 -0.847656 L 3.710938 -0.847656 C 3.871094 -0.601562 4.078125 -0.386719 4.328125 -0.207031 C 4.582031 -0.0234375 4.90625 0.078125 5.296875 0.109375 L 5.296875 0.195312 C 5.109375 0.222656 4.96875 0.316406 4.882812 0.476562 C 4.320312 0.261719 3.890625 -0.179688 3.601562 -0.847656 L 3.515625 -0.847656 C 3.285156 -0.0351562 2.65625 0.433594 1.628906 0.5625 L 1.605469 0.5 C 2.082031 0.382812 2.445312 0.207031 2.691406 -0.03125 C 2.9375 -0.269531 3.109375 -0.542969 3.210938 -0.847656 L 2.472656 -0.847656 C 2.285156 -0.847656 2.113281 -0.824219 1.953125 -0.78125 L 1.757812 -0.976562 L 3.234375 -0.976562 C 3.261719 -1.121094 3.285156 -1.332031 3.300781 -1.605469 L 2.757812 -1.605469 L 2.757812 -1.433594 L 2.453125 -1.300781 M 2.757812 -2.886719 L 2.757812 -2.386719 L 4.363281 -2.386719 L 4.363281 -2.886719 L 2.757812 -2.886719 M 2.757812 -2.257812 L 2.757812 -1.734375 L 4.363281 -1.734375 L 4.363281 -2.257812 Z "/>
</g>
<g id="glyph-0-1">
<path d="M 2.734375 -0.910156 L 3.691406 -1.648438 L 3.753906 -1.585938 C 3.566406 -1.394531 3.363281 -1.183594 3.148438 -0.945312 C 2.929688 -0.707031 2.761719 -0.476562 2.648438 -0.261719 L 2.320312 -0.585938 C 2.394531 -0.660156 2.429688 -0.789062 2.429688 -0.976562 L 2.429688 -2.710938 C 2.429688 -3.132812 2.421875 -3.574219 2.410156 -4.035156 L 2.929688 -3.777344 L 2.734375 -3.625 L 2.734375 -0.910156 M 4.382812 -1.019531 C 4.773438 -0.746094 5.015625 -0.535156 5.109375 -0.390625 C 5.207031 -0.246094 5.238281 -0.113281 5.207031 0.0117188 C 5.179688 0.132812 5.136719 0.222656 5.078125 0.28125 C 5.019531 0.339844 4.957031 0.238281 4.882812 -0.0234375 C 4.796875 -0.28125 4.617188 -0.570312 4.339844 -0.890625 C 3.980469 -0.167969 3.292969 0.324219 2.277344 0.585938 L 2.257812 0.5 C 2.632812 0.339844 2.957031 0.164062 3.222656 -0.03125 C 3.492188 -0.226562 3.71875 -0.480469 3.90625 -0.792969 C 4.09375 -1.101562 4.195312 -1.535156 4.210938 -2.082031 C 4.226562 -2.632812 4.230469 -3.023438 4.230469 -3.253906 C 4.230469 -3.703125 4.21875 -4.066406 4.1875 -4.339844 L 4.773438 -4.058594 L 4.558594 -3.886719 C 4.558594 -3.40625 4.554688 -2.914062 4.546875 -2.410156 C 4.539062 -1.902344 4.484375 -1.441406 4.382812 -1.019531 M 1.195312 -3.34375 C 1.195312 -3.933594 1.1875 -4.332031 1.171875 -4.535156 L 1.671875 -4.296875 L 1.496094 -4.125 L 1.496094 -3.34375 L 1.78125 -3.34375 L 2.019531 -3.582031 L 2.386719 -3.210938 L 1.496094 -3.210938 L 1.496094 -2.191406 L 2.234375 -2.582031 L 2.277344 -2.496094 L 1.496094 -1.976562 L 1.496094 -0.0859375 C 1.484375 0.171875 1.324219 0.363281 1.019531 0.476562 C 1.035156 0.316406 0.824219 0.160156 0.390625 0 L 0.390625 -0.0859375 C 0.707031 -0.0273438 0.925781 -0.00390625 1.042969 -0.0117188 C 1.15625 -0.0195312 1.207031 -0.117188 1.195312 -0.304688 L 1.195312 -1.78125 C 0.789062 -1.519531 0.5625 -1.339844 0.519531 -1.238281 L 0.21875 -1.628906 C 0.390625 -1.671875 0.714844 -1.816406 1.195312 -2.0625 L 1.195312 -3.210938 L 0.671875 -3.210938 L 0.390625 -3.167969 L 0.21875 -3.34375 L 1.195312 -3.34375 M 3.105469 -4.144531 C 3.378906 -3.914062 3.558594 -3.734375 3.644531 -3.601562 C 3.734375 -3.472656 3.777344 -3.363281 3.777344 -3.277344 C 3.777344 -3.234375 3.765625 -3.179688 3.742188 -3.113281 C 3.722656 -3.050781 3.691406 -3 3.644531 -2.960938 C 3.601562 -2.925781 3.574219 -2.910156 3.558594 -2.910156 C 3.5 -2.910156 3.457031 -3.007812 3.429688 -3.210938 C 3.371094 -3.457031 3.242188 -3.753906 3.039062 -4.101562 Z "/>
</g>
<g id="glyph-0-2">
<path d="M 1.648438 -2.972656 L 1.648438 -2.367188 L 3.90625 -2.367188 L 3.90625 -2.972656 L 1.648438 -2.972656 M 1.648438 -2.234375 L 1.648438 -1.585938 L 3.90625 -1.585938 L 3.90625 -2.234375 L 1.648438 -2.234375 M 1.648438 -1.453125 L 1.648438 -0.78125 L 3.90625 -0.78125 L 3.90625 -1.453125 L 1.648438 -1.453125 M 1.648438 -0.652344 L 1.648438 0.0429688 L 3.90625 0.0429688 L 3.90625 -0.652344 L 1.648438 -0.652344 M 0.542969 -3.796875 L 2.605469 -3.796875 C 2.632812 -4.085938 2.65625 -4.332031 2.667969 -4.535156 L 3.167969 -4.277344 L 2.972656 -4.167969 L 2.910156 -3.796875 L 4.320312 -3.796875 L 4.621094 -4.125 L 5.011719 -3.667969 L 2.886719 -3.667969 L 2.777344 -3.105469 L 3.886719 -3.105469 L 4.035156 -3.34375 L 4.382812 -3.082031 L 4.210938 -2.929688 L 4.210938 0.0429688 L 4.535156 0.0429688 L 4.882812 -0.28125 L 5.296875 0.171875 L 0.953125 0.171875 C 0.765625 0.160156 0.59375 0.171875 0.433594 0.21875 L 0.261719 0.0429688 L 1.34375 0.0429688 C 1.34375 -1.808594 1.339844 -2.929688 1.324219 -3.320312 L 1.648438 -3.105469 L 2.496094 -3.105469 L 2.582031 -3.667969 L 1.257812 -3.667969 C 1.070312 -3.667969 0.898438 -3.644531 0.738281 -3.601562 Z "/>
</g>
<g id="glyph-0-3">
<path d="M 0.238281 -3.40625 L 4.558594 -3.40625 L 4.882812 -3.734375 L 5.339844 -3.277344 L 2.667969 -3.277344 C 2.65625 -3.003906 2.617188 -2.683594 2.5625 -2.320312 L 3.972656 -2.320312 L 4.1875 -2.539062 L 4.535156 -2.214844 L 4.320312 -2.082031 C 4.175781 -0.96875 4.074219 -0.3125 4.015625 -0.109375 C 3.957031 0.09375 3.867188 0.234375 3.742188 0.316406 C 3.621094 0.394531 3.449219 0.464844 3.234375 0.519531 C 3.175781 0.289062 2.9375 0.0859375 2.515625 -0.0859375 L 2.539062 -0.171875 C 2.929688 -0.0585938 3.1875 0.00390625 3.308594 0.0117188 C 3.433594 0.0195312 3.527344 -0.0078125 3.59375 -0.0664062 C 3.65625 -0.121094 3.71875 -0.308594 3.777344 -0.617188 C 3.835938 -0.929688 3.90625 -1.453125 3.992188 -2.191406 L 2.539062 -2.191406 C 2.292969 -0.933594 1.585938 -0.0351562 0.414062 0.5 L 0.367188 0.414062 C 1.671875 -0.324219 2.320312 -1.554688 2.320312 -3.277344 L 0.953125 -3.277344 C 0.765625 -3.277344 0.59375 -3.253906 0.433594 -3.210938 L 0.238281 -3.40625 M 2.320312 -4.472656 C 2.699219 -4.324219 2.917969 -4.203125 2.984375 -4.101562 C 3.050781 -4 3.082031 -3.921875 3.082031 -3.863281 C 3.082031 -3.804688 3.054688 -3.738281 2.996094 -3.65625 C 2.9375 -3.578125 2.902344 -3.539062 2.886719 -3.539062 C 2.828125 -3.539062 2.769531 -3.617188 2.710938 -3.777344 C 2.625 -3.992188 2.480469 -4.203125 2.277344 -4.40625 Z "/>
</g>
<g id="glyph-0-4">
<path d="M 4.925781 -4.082031 L 4.925781 -0.476562 C 4.925781 -0.1875 4.933594 0.0742188 4.949219 0.304688 L 4.621094 0.476562 L 4.621094 0.0429688 L 1.085938 0.0429688 L 1.085938 0.390625 L 0.757812 0.519531 C 0.773438 0.230469 0.78125 -0.0664062 0.78125 -0.367188 L 0.78125 -3.644531 C 0.78125 -3.890625 0.773438 -4.167969 0.757812 -4.472656 L 1.085938 -4.277344 L 4.578125 -4.277344 L 4.730469 -4.492188 L 5.078125 -4.210938 L 4.925781 -4.082031 M 1.085938 -4.144531 L 1.085938 -1.476562 C 1.765625 -1.765625 2.292969 -2.089844 2.667969 -2.453125 C 2.480469 -2.710938 2.316406 -3.007812 2.171875 -3.34375 C 1.9375 -2.980469 1.691406 -2.675781 1.433594 -2.429688 L 1.367188 -2.472656 C 1.597656 -2.777344 1.792969 -3.09375 1.953125 -3.417969 C 2.113281 -3.742188 2.207031 -3.984375 2.234375 -4.144531 L 1.085938 -4.144531 M 1.085938 -0.0859375 L 4.621094 -0.0859375 L 4.621094 -4.144531 L 2.277344 -4.144531 L 2.648438 -3.949219 L 2.515625 -3.886719 C 2.429688 -3.753906 2.367188 -3.652344 2.320312 -3.582031 L 3.472656 -3.582031 L 3.625 -3.777344 L 3.949219 -3.472656 L 3.777344 -3.363281 C 3.53125 -3.015625 3.277344 -2.699219 3.015625 -2.410156 C 3.464844 -2.078125 3.980469 -1.882812 4.558594 -1.824219 L 4.558594 -1.734375 C 4.339844 -1.722656 4.203125 -1.636719 4.144531 -1.476562 C 3.640625 -1.664062 3.199219 -1.925781 2.820312 -2.257812 C 2.316406 -1.851562 1.734375 -1.554688 1.085938 -1.367188 L 1.085938 -0.0859375 M 2.257812 -3.449219 C 2.460938 -3.089844 2.65625 -2.808594 2.84375 -2.605469 C 3.046875 -2.835938 3.25 -3.117188 3.449219 -3.449219 L 2.257812 -3.449219 M 2.386719 -1.78125 C 2.734375 -1.707031 2.980469 -1.640625 3.125 -1.585938 C 3.269531 -1.527344 3.335938 -1.429688 3.320312 -1.292969 C 3.304688 -1.152344 3.277344 -1.085938 3.234375 -1.085938 C 3.191406 -1.085938 3.140625 -1.121094 3.082031 -1.195312 C 2.9375 -1.339844 2.699219 -1.511719 2.367188 -1.714844 L 2.386719 -1.78125 M 1.976562 -1 C 2.640625 -0.925781 3.078125 -0.855469 3.289062 -0.792969 C 3.496094 -0.726562 3.609375 -0.613281 3.625 -0.457031 C 3.640625 -0.296875 3.609375 -0.21875 3.539062 -0.21875 C 3.496094 -0.21875 3.421875 -0.261719 3.320312 -0.347656 C 3.105469 -0.519531 2.65625 -0.707031 1.976562 -0.910156 Z "/>
</g>
<g id="glyph-0-5">
<path d="M 0.324219 -1.085938 L 3.253906 -1.085938 L 3.539062 -1.367188 L 3.949219 -0.953125 L 1.019531 -0.953125 C 0.847656 -0.953125 0.679688 -0.933594 0.519531 -0.890625 L 0.324219 -1.085938 M 1.476562 -2.257812 C 1.535156 -3.140625 1.566406 -3.675781 1.574219 -3.863281 C 1.582031 -4.050781 1.585938 -4.269531 1.585938 -4.515625 L 2.082031 -4.277344 L 1.910156 -4.144531 L 1.867188 -3.34375 L 4.40625 -3.34375 L 4.6875 -3.625 L 5.101562 -3.210938 L 1.867188 -3.210938 L 1.800781 -2.191406 L 4.363281 -2.191406 L 4.535156 -2.453125 L 4.925781 -2.171875 L 4.730469 -1.996094 C 4.703125 -1.460938 4.660156 -0.996094 4.601562 -0.597656 C 4.542969 -0.199219 4.4375 0.0703125 4.285156 0.207031 C 4.132812 0.34375 3.933594 0.441406 3.691406 0.5 C 3.703125 0.3125 3.464844 0.144531 2.972656 0 L 2.996094 -0.109375 C 3.3125 -0.0351562 3.589844 0 3.820312 0 C 4.050781 0 4.203125 -0.214844 4.277344 -0.640625 C 4.347656 -1.066406 4.390625 -1.539062 4.40625 -2.0625 L 1.824219 -2.0625 L 1.648438 -1.84375 L 1.300781 -2.105469 Z "/>
</g>
<g id="glyph-0-6">
<path d="M 2.757812 -0.695312 C 3.003906 -0.652344 3.160156 -0.625 3.234375 -0.617188 C 3.304688 -0.609375 3.359375 -0.648438 3.398438 -0.726562 C 3.433594 -0.804688 3.449219 -1.054688 3.449219 -1.476562 L 2.105469 -1.476562 L 2.105469 -0.171875 C 2.105469 0.0273438 2.207031 0.128906 2.410156 0.128906 L 4.015625 0.128906 C 4.144531 0.117188 4.222656 0.015625 4.242188 -0.171875 C 4.265625 -0.363281 4.277344 -0.585938 4.277344 -0.847656 L 4.382812 -0.847656 C 4.398438 -0.542969 4.425781 -0.328125 4.472656 -0.207031 C 4.515625 -0.0820312 4.59375 0 4.710938 0.0429688 C 4.609375 0.246094 4.433594 0.355469 4.1875 0.367188 L 2.277344 0.367188 C 1.976562 0.367188 1.824219 0.203125 1.824219 -0.128906 L 1.824219 -0.976562 C 1.824219 -1.179688 1.816406 -1.445312 1.800781 -1.78125 L 2.105469 -1.605469 L 3.429688 -1.605469 L 3.601562 -1.800781 L 3.949219 -1.519531 L 3.753906 -1.390625 C 3.753906 -0.898438 3.710938 -0.589844 3.625 -0.464844 C 3.539062 -0.34375 3.40625 -0.253906 3.234375 -0.195312 C 3.21875 -0.355469 3.054688 -0.492188 2.734375 -0.609375 L 2.757812 -0.695312 M 1.214844 -4.296875 L 1.257812 -4.363281 C 1.707031 -4.160156 1.945312 -4 1.976562 -3.886719 C 2.003906 -3.769531 1.992188 -3.671875 1.941406 -3.59375 C 1.890625 -3.511719 1.851562 -3.472656 1.824219 -3.472656 C 1.78125 -3.472656 1.742188 -3.523438 1.714844 -3.625 C 1.640625 -3.796875 1.476562 -4.023438 1.214844 -4.296875 M 2.800781 -4.1875 C 2.769531 -3.871094 2.726562 -3.566406 2.667969 -3.277344 L 4.1875 -3.277344 L 4.449219 -3.539062 L 4.839844 -3.148438 L 2.648438 -3.148438 C 2.574219 -2.902344 2.511719 -2.71875 2.453125 -2.605469 L 4.472656 -2.605469 L 4.796875 -2.929688 L 5.253906 -2.472656 L 3.449219 -2.472656 C 3.652344 -2.183594 3.902344 -1.957031 4.199219 -1.789062 C 4.496094 -1.625 4.867188 -1.503906 5.316406 -1.433594 L 5.316406 -1.367188 C 5.113281 -1.339844 4.984375 -1.246094 4.925781 -1.085938 C 4.636719 -1.199219 4.34375 -1.371094 4.046875 -1.59375 C 3.75 -1.820312 3.515625 -2.113281 3.34375 -2.472656 L 2.410156 -2.472656 C 2.234375 -2.183594 1.980469 -1.90625 1.636719 -1.636719 C 1.296875 -1.371094 0.847656 -1.128906 0.28125 -0.910156 L 0.261719 -1 C 0.753906 -1.246094 1.140625 -1.488281 1.421875 -1.726562 C 1.703125 -1.964844 1.929688 -2.214844 2.105469 -2.472656 L 1 -2.472656 C 0.808594 -2.472656 0.636719 -2.453125 0.476562 -2.410156 L 0.28125 -2.605469 L 2.148438 -2.605469 C 2.222656 -2.761719 2.285156 -2.945312 2.34375 -3.148438 L 1.214844 -3.148438 L 0.953125 -3.105469 L 0.78125 -3.277344 L 2.367188 -3.277344 C 2.410156 -3.507812 2.4375 -3.707031 2.453125 -3.875 C 2.46875 -4.039062 2.480469 -4.269531 2.496094 -4.558594 L 3.015625 -4.339844 L 2.800781 -4.1875 M 4.363281 -4.125 L 4.125 -4.058594 C 3.890625 -3.828125 3.617188 -3.589844 3.300781 -3.34375 L 3.210938 -3.386719 C 3.558594 -3.761719 3.796875 -4.117188 3.929688 -4.449219 Z "/>
</g>
<g id="glyph-0-7">
<path d="M 2.710938 -1.519531 C 2.726562 -1.9375 2.734375 -2.367188 2.734375 -2.800781 C 2.734375 -3.234375 2.726562 -3.667969 2.710938 -4.101562 L 3.039062 -3.929688 L 4.535156 -3.929688 L 4.753906 -4.144531 L 5.078125 -3.820312 L 4.863281 -3.691406 C 4.863281 -2.5625 4.867188 -1.902344 4.882812 -1.714844 L 4.578125 -1.605469 L 4.578125 -1.886719 L 3.015625 -1.886719 L 3.015625 -1.628906 L 2.710938 -1.519531 M 3.015625 -3.796875 L 3.015625 -2.019531 L 4.578125 -2.019531 L 4.578125 -3.796875 L 3.015625 -3.796875 M 3.320312 -1.476562 L 3.734375 -1.128906 L 3.539062 -1.0625 C 2.988281 -0.3125 2.445312 0.203125 1.910156 0.476562 L 1.886719 0.390625 C 2.25 0.101562 2.554688 -0.210938 2.800781 -0.542969 C 3.046875 -0.875 3.21875 -1.1875 3.320312 -1.476562 M 4.082031 -1.390625 C 4.671875 -0.839844 5.007812 -0.480469 5.078125 -0.316406 C 5.152344 -0.148438 5.1875 -0.0234375 5.1875 0.0664062 C 5.1875 0.152344 5.164062 0.226562 5.121094 0.292969 C 5.078125 0.359375 5.042969 0.390625 5.011719 0.390625 C 4.984375 0.390625 4.949219 0.332031 4.90625 0.21875 C 4.832031 0.0273438 4.746094 -0.171875 4.644531 -0.390625 C 4.542969 -0.609375 4.339844 -0.917969 4.035156 -1.324219 L 4.082031 -1.390625 M 1.628906 -2.234375 C 1.628906 -0.875 1.636719 -0.015625 1.648438 0.347656 L 1.324219 0.542969 C 1.339844 0.109375 1.34375 -0.753906 1.34375 -2.039062 C 1.042969 -1.417969 0.679688 -0.917969 0.261719 -0.542969 L 0.21875 -0.609375 C 0.433594 -0.898438 0.640625 -1.234375 0.835938 -1.617188 C 1.03125 -2 1.1875 -2.386719 1.300781 -2.777344 L 0.976562 -2.777344 C 0.789062 -2.777344 0.613281 -2.757812 0.457031 -2.710938 L 0.261719 -2.910156 L 1.34375 -2.910156 L 1.34375 -3.886719 C 0.96875 -3.828125 0.671875 -3.789062 0.457031 -3.777344 L 0.457031 -3.863281 C 0.773438 -3.921875 1.0625 -3.996094 1.324219 -4.089844 C 1.585938 -4.183594 1.832031 -4.3125 2.0625 -4.472656 L 2.367188 -4.082031 C 2.191406 -4.082031 1.945312 -4.035156 1.628906 -3.949219 L 1.628906 -2.910156 L 1.953125 -2.910156 L 2.214844 -3.167969 L 2.582031 -2.777344 L 1.628906 -2.777344 L 1.628906 -2.320312 C 1.976562 -2.164062 2.1875 -2.027344 2.269531 -1.921875 C 2.347656 -1.8125 2.386719 -1.730469 2.386719 -1.671875 C 2.386719 -1.597656 2.363281 -1.527344 2.3125 -1.453125 C 2.261719 -1.382812 2.226562 -1.34375 2.214844 -1.34375 C 2.15625 -1.34375 2.105469 -1.417969 2.0625 -1.5625 C 1.988281 -1.78125 1.84375 -2.003906 1.628906 -2.234375 Z "/>
</g>
<g id="glyph-0-8">
<path d="M 1.367188 -0.152344 L 3.929688 -0.195312 C 3.769531 -0.484375 3.539062 -0.816406 3.234375 -1.195312 L 3.300781 -1.257812 C 3.835938 -0.824219 4.164062 -0.511719 4.285156 -0.324219 C 4.410156 -0.136719 4.472656 0.0078125 4.472656 0.109375 C 4.472656 0.195312 4.4375 0.277344 4.375 0.359375 C 4.308594 0.4375 4.261719 0.476562 4.230469 0.476562 C 4.203125 0.476562 4.167969 0.425781 4.125 0.324219 C 4.066406 0.152344 4.015625 0.015625 3.972656 -0.0859375 C 2.582031 0.015625 1.792969 0.0859375 1.605469 0.128906 C 1.417969 0.171875 1.273438 0.230469 1.171875 0.304688 L 0.933594 -0.152344 C 1.050781 -0.152344 1.195312 -0.246094 1.367188 -0.433594 C 1.539062 -0.621094 1.777344 -0.941406 2.074219 -1.390625 C 2.371094 -1.835938 2.566406 -2.234375 2.667969 -2.582031 L 3.148438 -2.214844 L 2.910156 -2.105469 C 2.371094 -1.296875 1.859375 -0.644531 1.367188 -0.152344 M 2.0625 -4.339844 L 2.5625 -4.015625 L 2.320312 -3.886719 C 1.84375 -2.871094 1.222656 -2.113281 0.457031 -1.605469 L 0.390625 -1.671875 C 0.925781 -2.175781 1.328125 -2.671875 1.59375 -3.15625 C 1.863281 -3.640625 2.019531 -4.035156 2.0625 -4.339844 M 3.515625 -4.339844 L 3.320312 -4.210938 C 3.449219 -3.761719 3.679688 -3.324219 4.003906 -2.898438 C 4.328125 -2.46875 4.738281 -2.175781 5.230469 -2.019531 L 5.230469 -1.953125 C 5 -1.953125 4.832031 -1.867188 4.730469 -1.691406 C 4.324219 -2.011719 3.976562 -2.402344 3.679688 -2.863281 C 3.382812 -3.328125 3.183594 -3.871094 3.082031 -4.492188 Z "/>
</g>
<g id="glyph-0-9">
<path d="M 1.910156 -0.5 L 3.167969 -0.78125 L 3.191406 -0.695312 C 2.308594 -0.417969 1.675781 -0.214844 1.292969 -0.0742188 C 0.90625 0.0625 0.6875 0.171875 0.628906 0.261719 L 0.324219 -0.152344 C 0.789062 -0.238281 1.214844 -0.324219 1.605469 -0.414062 L 1.605469 -2.082031 L 1.238281 -2.082031 C 1.050781 -2.082031 0.875 -2.0625 0.714844 -2.019531 L 0.519531 -2.214844 L 2.277344 -2.214844 L 2.5625 -2.496094 L 2.972656 -2.082031 L 1.910156 -2.082031 L 1.910156 -0.5 M 3.839844 -4.320312 C 4.117188 -4.21875 4.316406 -4.128906 4.4375 -4.046875 C 4.5625 -3.96875 4.617188 -3.878906 4.613281 -3.777344 C 4.605469 -3.675781 4.578125 -3.601562 4.535156 -3.558594 C 4.492188 -3.515625 4.457031 -3.496094 4.425781 -3.496094 C 4.371094 -3.496094 4.320312 -3.550781 4.277344 -3.667969 C 4.1875 -3.839844 4.03125 -4.035156 3.796875 -4.253906 L 3.839844 -4.320312 M 3.363281 -4.144531 C 3.363281 -3.8125 3.371094 -3.523438 3.386719 -3.277344 L 4.382812 -3.277344 L 4.730469 -3.625 L 5.207031 -3.148438 L 3.386719 -3.148438 C 3.445312 -2.410156 3.542969 -1.839844 3.679688 -1.441406 C 3.816406 -1.046875 3.976562 -0.738281 4.15625 -0.519531 C 4.335938 -0.304688 4.570312 -0.136719 4.863281 -0.0234375 C 4.90625 -0.3125 4.957031 -0.660156 5.011719 -1.0625 L 5.121094 -1.0625 C 5.109375 -0.5 5.117188 -0.125 5.15625 0.0546875 C 5.191406 0.234375 5.238281 0.367188 5.296875 0.457031 C 5.324219 0.5 5.308594 0.519531 5.253906 0.519531 C 5.195312 0.519531 5.03125 0.472656 4.765625 0.378906 C 4.496094 0.285156 4.238281 0.105469 3.992188 -0.164062 C 3.746094 -0.429688 3.542969 -0.804688 3.386719 -1.28125 C 3.226562 -1.757812 3.125 -2.378906 3.082031 -3.148438 L 1.171875 -3.148438 C 0.984375 -3.148438 0.808594 -3.125 0.652344 -3.082031 L 0.457031 -3.277344 L 3.058594 -3.277344 C 3.046875 -3.695312 3.03125 -4.117188 3.015625 -4.535156 L 3.558594 -4.296875 Z "/>
</g>
<g id="glyph-0-10">
<path d="M 1.085938 -2.757812 L 3.515625 -2.757812 L 3.777344 -3.015625 L 4.167969 -2.625 L 1.78125 -2.625 C 1.578125 -2.625 1.410156 -2.605469 1.28125 -2.5625 L 1.085938 -2.757812 M 0.519531 -1.84375 L 4.210938 -1.84375 L 4.535156 -2.171875 L 4.992188 -1.714844 L 3.34375 -1.714844 L 3.34375 -0.261719 C 3.328125 -0.0429688 3.457031 0.0664062 3.734375 0.0664062 L 4.535156 0.0664062 C 4.679688 0.0507812 4.765625 -0.0195312 4.796875 -0.140625 C 4.824219 -0.265625 4.847656 -0.542969 4.863281 -0.976562 L 4.949219 -0.976562 C 4.960938 -0.746094 4.980469 -0.535156 5.003906 -0.347656 C 5.023438 -0.160156 5.113281 -0.0351562 5.273438 0.0234375 C 5.15625 0.238281 4.941406 0.339844 4.621094 0.324219 L 3.625 0.324219 C 3.234375 0.339844 3.039062 0.179688 3.039062 -0.152344 L 3.039062 -1.714844 L 2.257812 -1.714844 C 2.214844 -1.308594 2.144531 -0.960938 2.050781 -0.671875 C 1.957031 -0.382812 1.785156 -0.148438 1.539062 0.03125 C 1.296875 0.214844 0.875 0.390625 0.28125 0.5625 L 0.261719 0.476562 C 0.953125 0.21875 1.394531 -0.0664062 1.585938 -0.367188 C 1.773438 -0.671875 1.886719 -1.121094 1.929688 -1.714844 L 1 -1.714844 L 0.695312 -1.671875 L 0.519531 -1.84375 M 2.367188 -4.472656 L 2.410156 -4.515625 C 2.65625 -4.398438 2.820312 -4.296875 2.910156 -4.210938 C 2.996094 -4.125 3.039062 -4.042969 3.039062 -3.972656 C 3.039062 -3.898438 3.007812 -3.820312 2.953125 -3.734375 C 2.894531 -3.644531 2.851562 -3.601562 2.820312 -3.601562 C 2.777344 -3.601562 2.742188 -3.675781 2.710938 -3.820312 C 2.65625 -4.023438 2.539062 -4.238281 2.367188 -4.472656 M 4.40625 -2.953125 L 4.621094 -3.472656 L 1.019531 -3.472656 C 1.050781 -3.355469 1.0625 -3.277344 1.0625 -3.234375 C 1.0625 -3.148438 1.027344 -3.0625 0.953125 -2.984375 C 0.882812 -2.90625 0.796875 -2.871094 0.695312 -2.886719 C 0.59375 -2.902344 0.542969 -2.921875 0.542969 -2.953125 C 0.542969 -2.996094 0.558594 -3.03125 0.585938 -3.058594 C 0.660156 -3.148438 0.71875 -3.253906 0.769531 -3.386719 C 0.820312 -3.515625 0.859375 -3.675781 0.890625 -3.863281 L 1 -3.863281 L 1.019531 -3.601562 L 4.578125 -3.601562 L 4.753906 -3.820312 L 5.144531 -3.449219 C 4.925781 -3.421875 4.703125 -3.242188 4.472656 -2.910156 Z "/>
</g>
<g id="glyph-0-11">
<path d="M 2.863281 -1.5625 C 2.835938 -1.476562 2.808594 -1.390625 2.777344 -1.300781 L 4.167969 -1.300781 L 4.472656 -1.585938 L 4.863281 -1.171875 L 2.929688 -1.171875 C 3.148438 -0.867188 3.433594 -0.597656 3.789062 -0.359375 C 4.140625 -0.121094 4.636719 0.0234375 5.273438 0.0664062 L 5.273438 0.152344 C 5.070312 0.167969 4.925781 0.28125 4.839844 0.5 C 4.304688 0.324219 3.878906 0.09375 3.558594 -0.195312 C 3.242188 -0.484375 2.996094 -0.808594 2.820312 -1.171875 L 2.734375 -1.171875 C 2.488281 -0.535156 2.167969 -0.113281 1.769531 0.0976562 C 1.371094 0.308594 0.882812 0.457031 0.304688 0.542969 L 0.28125 0.476562 C 0.730469 0.363281 1.140625 0.203125 1.507812 0 C 1.878906 -0.203125 2.175781 -0.59375 2.410156 -1.171875 L 1.195312 -1.171875 C 1.003906 -1.171875 0.832031 -1.148438 0.671875 -1.105469 L 0.476562 -1.300781 L 2.453125 -1.300781 C 2.496094 -1.519531 2.53125 -1.734375 2.5625 -1.953125 L 3.058594 -1.714844 L 2.863281 -1.5625 M 3.691406 -4.1875 C 3.515625 -4 3.34375 -3.8125 3.167969 -3.625 L 4.125 -3.625 L 4.472656 -3.90625 L 4.863281 -3.496094 L 2.863281 -3.496094 L 2.863281 -2.84375 L 3.90625 -2.84375 L 4.210938 -3.125 L 4.601562 -2.710938 L 2.863281 -2.710938 L 2.863281 -2.105469 L 4.472656 -2.105469 L 4.796875 -2.410156 L 5.207031 -1.976562 L 0.976562 -1.976562 C 0.789062 -1.976562 0.613281 -1.953125 0.457031 -1.910156 L 0.261719 -2.105469 L 2.5625 -2.105469 L 2.5625 -2.710938 L 1.585938 -2.710938 C 1.394531 -2.710938 1.222656 -2.691406 1.0625 -2.648438 L 0.867188 -2.84375 L 2.5625 -2.84375 L 2.5625 -3.496094 L 1.300781 -3.496094 C 1.113281 -3.496094 0.941406 -3.472656 0.78125 -3.429688 L 0.585938 -3.625 L 2.019531 -3.625 C 1.976562 -3.839844 1.832031 -4.101562 1.585938 -4.40625 L 1.648438 -4.472656 C 2.027344 -4.296875 2.226562 -4.179688 2.257812 -4.113281 C 2.285156 -4.046875 2.300781 -3.992188 2.300781 -3.949219 C 2.300781 -3.847656 2.257812 -3.738281 2.171875 -3.625 L 3.058594 -3.625 C 3.191406 -3.898438 3.320312 -4.210938 3.449219 -4.558594 L 3.90625 -4.253906 Z "/>
</g>
<g id="glyph-0-12">
<path d="M 0.433594 -3.863281 L 0.738281 -3.667969 L 1.496094 -3.667969 L 1.648438 -3.863281 L 1.976562 -3.625 L 1.800781 -3.472656 L 1.800781 -1.78125 C 1.800781 -1.664062 1.808594 -1.445312 1.824219 -1.128906 L 1.519531 -1 L 1.519531 -1.390625 L 0.738281 -1.390625 L 0.738281 -0.847656 L 0.433594 -0.738281 C 0.449219 -1.027344 0.457031 -1.324219 0.457031 -1.628906 L 0.457031 -3.039062 C 0.457031 -3.285156 0.449219 -3.558594 0.433594 -3.863281 M 0.738281 -3.539062 L 0.738281 -1.519531 L 1.519531 -1.519531 L 1.519531 -3.539062 L 0.738281 -3.539062 M 3.429688 -0.152344 C 3.71875 -0.09375 3.949219 -0.0625 4.125 -0.0546875 C 4.296875 -0.046875 4.417969 -0.171875 4.480469 -0.433594 C 4.546875 -0.695312 4.617188 -1.636719 4.6875 -3.253906 L 4.253906 -3.253906 C 4.066406 -2.242188 3.828125 -1.511719 3.539062 -1.0625 C 3.25 -0.613281 2.949219 -0.289062 2.636719 -0.0859375 C 2.324219 0.117188 1.953125 0.296875 1.519531 0.457031 L 1.496094 0.390625 C 2.207031 0.0273438 2.703125 -0.34375 2.984375 -0.726562 C 3.265625 -1.109375 3.476562 -1.523438 3.613281 -1.964844 C 3.75 -2.40625 3.855469 -2.835938 3.929688 -3.253906 L 3.40625 -3.253906 C 3.203125 -2.472656 2.949219 -1.882812 2.636719 -1.476562 C 2.324219 -1.070312 2.019531 -0.773438 1.714844 -0.585938 L 1.671875 -0.652344 C 2.046875 -0.96875 2.355469 -1.367188 2.59375 -1.84375 C 2.832031 -2.320312 2.996094 -2.792969 3.082031 -3.253906 L 2.691406 -3.253906 C 2.503906 -2.894531 2.273438 -2.546875 1.996094 -2.214844 L 1.910156 -2.257812 C 2.171875 -2.675781 2.375 -3.101562 2.527344 -3.527344 C 2.679688 -3.953125 2.769531 -4.289062 2.800781 -4.535156 L 3.300781 -4.277344 C 3.152344 -4.203125 2.972656 -3.90625 2.757812 -3.386719 L 4.644531 -3.386719 L 4.816406 -3.625 L 5.1875 -3.320312 L 4.992188 -3.167969 C 4.933594 -1.246094 4.828125 -0.171875 4.675781 0.0546875 C 4.523438 0.277344 4.3125 0.414062 4.035156 0.457031 C 4.035156 0.28125 3.828125 0.109375 3.40625 -0.0664062 Z "/>
</g>
<g id="glyph-0-13">
<path d="M 3.105469 -4.230469 L 2.910156 -4.125 C 3.082031 -3.820312 3.359375 -3.503906 3.742188 -3.179688 C 4.128906 -2.855469 4.652344 -2.613281 5.316406 -2.453125 L 5.316406 -2.386719 C 5.101562 -2.34375 4.949219 -2.242188 4.863281 -2.082031 C 4.226562 -2.429688 3.75 -2.78125 3.441406 -3.136719 C 3.128906 -3.492188 2.921875 -3.785156 2.820312 -4.015625 C 2.429688 -3.421875 2.035156 -2.972656 1.636719 -2.667969 C 1.242188 -2.367188 0.78125 -2.121094 0.261719 -1.929688 L 0.238281 -2.019531 C 0.804688 -2.308594 1.285156 -2.648438 1.683594 -3.039062 C 2.078125 -3.429688 2.402344 -3.929688 2.648438 -4.535156 L 3.105469 -4.230469 M 1.324219 -2.34375 L 3.496094 -2.34375 L 3.777344 -2.625 L 4.1875 -2.214844 L 1.996094 -2.214844 C 1.835938 -2.214844 1.679688 -2.191406 1.519531 -2.148438 L 1.324219 -2.34375 M 1.714844 -1.300781 L 1.714844 -0.0859375 L 3.796875 -0.0859375 L 3.796875 -1.300781 L 1.714844 -1.300781 M 4.101562 -1.195312 C 4.101562 -0.542969 4.109375 -0.0507812 4.125 0.28125 L 3.796875 0.414062 L 3.796875 0.0429688 L 1.714844 0.0429688 L 1.714844 0.324219 L 1.390625 0.457031 C 1.402344 0.09375 1.410156 -0.253906 1.410156 -0.585938 C 1.410156 -0.917969 1.402344 -1.257812 1.390625 -1.605469 L 1.714844 -1.433594 L 3.753906 -1.433594 L 3.972656 -1.648438 L 4.277344 -1.34375 Z "/>
</g>
<g id="glyph-0-14">
<path d="M 1.929688 -0.890625 C 2.019531 -0.832031 2.0625 -0.738281 2.0625 -0.609375 C 2.0625 -0.476562 2.015625 -0.382812 1.921875 -0.324219 C 1.828125 -0.269531 1.75 -0.238281 1.691406 -0.238281 C 1.648438 -0.238281 1.582031 -0.265625 1.488281 -0.316406 C 1.394531 -0.367188 1.339844 -0.460938 1.324219 -0.597656 C 1.308594 -0.734375 1.347656 -0.832031 1.441406 -0.890625 C 1.539062 -0.949219 1.621094 -0.976562 1.691406 -0.976562 C 1.765625 -0.976562 1.84375 -0.949219 1.929688 -0.890625 M 1.996094 -3.484375 C 1.980469 -3.332031 1.941406 -2.925781 1.878906 -2.269531 C 1.8125 -1.609375 1.753906 -1.28125 1.703125 -1.28125 C 1.652344 -1.28125 1.589844 -1.609375 1.519531 -2.269531 C 1.445312 -2.925781 1.40625 -3.339844 1.398438 -3.503906 C 1.394531 -3.671875 1.433594 -3.777344 1.519531 -3.820312 C 1.605469 -3.863281 1.671875 -3.886719 1.714844 -3.886719 C 1.773438 -3.886719 1.835938 -3.855469 1.910156 -3.796875 C 1.980469 -3.738281 2.011719 -3.636719 1.996094 -3.484375 Z "/>
</g>
</g>
</defs>
<g fill="rgb(78.823529%, 88.627451%, 68.235294%)" fill-opacity="1">
<use xlink:href="#glyph-0-0" x="30" y="24.774414"/>
<use xlink:href="#glyph-0-1" x="36" y="24.774414"/>
<use xlink:href="#glyph-0-2" x="42" y="24.774414"/>
<use xlink:href="#glyph-0-3" x="48" y="24.774414"/>
<use xlink:href="#glyph-0-4" x="54" y="24.774414"/>
<use xlink:href="#glyph-0-5" x="60" y="24.774414"/>
<use xlink:href="#glyph-0-6" x="66" y="24.774414"/>
<use xlink:href="#glyph-0-7" x="72" y="24.774414"/>
<use xlink:href="#glyph-0-8" x="78" y="24.774414"/>
<use xlink:href="#glyph-0-9" x="84" y="24.774414"/>
<use xlink:href="#glyph-0-10" x="90" y="24.774414"/>
<use xlink:href="#glyph-0-11" x="96" y="24.774414"/>
<use xlink:href="#glyph-0-12" x="102" y="24.774414"/>
<use xlink:href="#glyph-0-13" x="108" y="24.774414"/>
<use xlink:href="#glyph-0-14" x="114" y="24.774414"/>
</g>
</svg>
