<?xml version="1.0" encoding="UTF-8"?>
<svg xmlns="http://www.w3.org/2000/svg" xmlns:xlink="http://www.w3.org/1999/xlink" width="1280" height="720" viewBox="0 0 1280 720">
<defs>
<g>
<g id="glyph-0-0">
<path d="M 5.597656 -0.261719 C 5.078125 0.3125 4.371094 0.625 3.476562 0.675781 C 2.582031 0.730469 1.820312 0.453125 1.183594 -0.15625 C 0.550781 -0.765625 0.230469 -1.476562 0.222656 -2.292969 C 0.210938 -3.109375 0.433594 -3.785156 0.886719 -4.324219 C 1.335938 -4.859375 1.789062 -5.191406 2.238281 -5.3125 C 2.691406 -5.433594 3.0625 -5.496094 3.359375 -5.496094 C 3.621094 -5.496094 3.960938 -5.441406 4.386719 -5.339844 C 4.8125 -5.234375 5.261719 -4.910156 5.730469 -4.363281 C 6.199219 -3.816406 6.421875 -3.136719 6.40625 -2.332031 C 6.390625 -1.523438 6.121094 -0.832031 5.597656 -0.261719 M 4.425781 0.285156 C 4.859375 0.148438 5.269531 -0.183594 5.652344 -0.703125 C 6.03125 -1.222656 6.207031 -1.863281 6.171875 -2.617188 C 6.136719 -3.371094 5.835938 -4.015625 5.273438 -4.542969 C 4.710938 -5.074219 4.03125 -5.324219 3.242188 -5.300781 C 2.453125 -5.273438 1.785156 -4.96875 1.238281 -4.386719 C 0.691406 -3.804688 0.425781 -3.132812 0.441406 -2.371094 C 0.460938 -1.605469 0.699219 -0.980469 1.160156 -0.496094 C 1.617188 -0.0078125 2.039062 0.277344 2.421875 0.363281 C 2.804688 0.453125 3.097656 0.496094 3.308594 0.496094 C 3.621094 0.496094 3.992188 0.425781 4.425781 0.285156 M 2.214844 -0.910156 L 4.375 -0.910156 L 4.6875 -1.589844 L 4.792969 -1.589844 L 4.6875 -0.574219 L 1.902344 -0.574219 L 1.902344 -0.9375 C 2.613281 -1.511719 3.121094 -1.949219 3.425781 -2.253906 C 3.726562 -2.554688 3.898438 -2.78125 3.933594 -2.929688 C 3.96875 -3.078125 3.984375 -3.195312 3.984375 -3.28125 C 3.984375 -3.472656 3.917969 -3.65625 3.789062 -3.828125 C 3.660156 -4 3.421875 -4.078125 3.074219 -4.0625 C 2.726562 -4.046875 2.503906 -3.957031 2.410156 -3.800781 C 2.3125 -3.644531 2.265625 -3.542969 2.265625 -3.488281 C 2.265625 -3.453125 2.273438 -3.4375 2.292969 -3.4375 C 2.34375 -3.421875 2.398438 -3.382812 2.460938 -3.320312 C 2.523438 -3.257812 2.539062 -3.1875 2.511719 -3.097656 C 2.488281 -3.011719 2.425781 -2.953125 2.332031 -2.917969 C 2.234375 -2.882812 2.144531 -2.894531 2.058594 -2.957031 C 1.96875 -3.015625 1.925781 -3.128906 1.925781 -3.292969 C 1.925781 -3.460938 2.007812 -3.648438 2.175781 -3.867188 C 2.339844 -4.085938 2.585938 -4.21875 2.917969 -4.269531 C 3.246094 -4.324219 3.5625 -4.28125 3.867188 -4.140625 C 4.171875 -4 4.347656 -3.839844 4.402344 -3.660156 C 4.453125 -3.476562 4.480469 -3.34375 4.480469 -3.253906 C 4.480469 -3.0625 4.410156 -2.863281 4.269531 -2.65625 C 4.132812 -2.449219 3.890625 -2.214844 3.542969 -1.953125 C 3.175781 -1.675781 2.734375 -1.328125 2.214844 -0.910156 Z "/>
</g>
<g id="glyph-0-1">
<path d="M 2.449219 -5.261719 L 2.96875 -4.871094 L 2.734375 -4.738281 C 2.4375 -4.183594 2.113281 -3.6875 1.757812 -3.253906 C 1.402344 -2.820312 0.945312 -2.4375 0.390625 -2.109375 L 0.339844 -2.1875 C 0.789062 -2.550781 1.1875 -2.980469 1.535156 -3.476562 C 1.882812 -3.972656 2.1875 -4.566406 2.449219 -5.261719 M 4.269531 -5.183594 L 4.0625 -5.050781 C 4.253906 -4.359375 4.566406 -3.820312 5 -3.4375 C 5.433594 -3.054688 5.894531 -2.820312 6.378906 -2.734375 L 6.378906 -2.65625 C 6.121094 -2.621094 5.9375 -2.507812 5.832031 -2.316406 C 5.261719 -2.628906 4.804688 -3.046875 4.464844 -3.566406 C 4.128906 -4.089844 3.898438 -4.695312 3.777344 -5.390625 L 4.269531 -5.183594 M 1.433594 -2.734375 L 4.402344 -2.734375 L 4.660156 -2.996094 L 5.027344 -2.628906 L 4.816406 -2.472656 C 4.78125 -1.101562 4.695312 -0.273438 4.558594 0.0117188 C 4.417969 0.300781 4.175781 0.503906 3.828125 0.625 C 3.777344 0.347656 3.53125 0.148438 3.097656 0.0273438 L 3.097656 -0.078125 C 3.53125 -0.0078125 3.816406 0.0234375 3.945312 0.0117188 C 4.074219 0.00390625 4.175781 -0.09375 4.246094 -0.285156 C 4.3125 -0.476562 4.382812 -1.242188 4.453125 -2.578125 L 3.097656 -2.578125 C 2.996094 -1.832031 2.785156 -1.203125 2.472656 -0.691406 C 2.160156 -0.179688 1.5625 0.269531 0.675781 0.652344 L 0.625 0.546875 C 1.40625 0.148438 1.929688 -0.324219 2.199219 -0.871094 C 2.46875 -1.417969 2.628906 -1.988281 2.683594 -2.578125 L 1.875 -2.578125 L 1.640625 -2.527344 Z "/>
</g>
<g id="glyph-0-2">
<path d="M 3.566406 -2.839844 C 3.566406 -3.1875 3.558594 -3.5 3.542969 -3.777344 L 4.140625 -3.515625 L 3.933594 -3.332031 L 3.933594 -2.839844 L 5.15625 -2.839844 L 5.363281 -3.097656 L 5.808594 -2.761719 L 5.574219 -2.605469 L 5.574219 -0.519531 C 5.539062 -0.242188 5.347656 -0.0507812 5 0.0507812 C 5 -0.140625 4.78125 -0.320312 4.347656 -0.496094 L 4.347656 -0.597656 C 4.660156 -0.546875 4.882812 -0.519531 5.011719 -0.519531 C 5.144531 -0.519531 5.207031 -0.589844 5.207031 -0.730469 L 5.207031 -2.683594 L 3.933594 -2.683594 L 3.933594 -0.574219 C 3.933594 -0.171875 3.941406 0.191406 3.957031 0.519531 L 3.542969 0.703125 C 3.558594 0.0625 3.566406 -0.53125 3.566406 -1.066406 L 3.566406 -2.683594 L 2.371094 -2.683594 L 2.371094 -0.128906 L 1.980469 0.0273438 C 1.996094 -0.53125 2.003906 -1.414062 2.003906 -2.628906 C 1.519531 -2.023438 0.953125 -1.5 0.3125 -1.066406 L 0.261719 -1.144531 C 0.988281 -1.804688 1.515625 -2.394531 1.835938 -2.917969 C 2.15625 -3.4375 2.371094 -3.8125 2.472656 -4.035156 L 0.859375 -4.035156 L 0.625 -3.984375 L 0.417969 -4.191406 L 2.527344 -4.191406 C 2.75 -4.679688 2.898438 -5.09375 2.96875 -5.441406 L 3.59375 -5.050781 L 3.332031 -4.921875 L 2.941406 -4.191406 L 5.390625 -4.191406 L 5.78125 -4.582031 L 6.328125 -4.035156 L 2.890625 -4.035156 C 2.699219 -3.671875 2.492188 -3.316406 2.265625 -2.96875 L 2.34375 -2.839844 Z "/>
</g>
<g id="glyph-0-3">
<path d="M 1.613281 -0.703125 C 1.71875 -0.632812 1.765625 -0.515625 1.757812 -0.351562 C 1.75 -0.1875 1.683594 -0.0703125 1.5625 0 C 1.441406 0.0703125 1.355469 0.105469 1.300781 0.105469 C 1.25 0.105469 1.164062 0.0703125 1.042969 0 C 0.921875 -0.0703125 0.855469 -0.191406 0.847656 -0.363281 C 0.835938 -0.539062 0.890625 -0.65625 1.003906 -0.714844 C 1.117188 -0.777344 1.214844 -0.808594 1.300781 -0.808594 C 1.40625 -0.808594 1.511719 -0.773438 1.613281 -0.703125 M 1.613281 -2.277344 C 1.734375 -2.21875 1.796875 -2.097656 1.796875 -1.914062 C 1.796875 -1.730469 1.726562 -1.609375 1.589844 -1.550781 C 1.449219 -1.488281 1.355469 -1.457031 1.300781 -1.457031 C 1.214844 -1.457031 1.117188 -1.496094 1.003906 -1.574219 C 0.890625 -1.652344 0.835938 -1.773438 0.847656 -1.941406 C 0.855469 -2.105469 0.921875 -2.21875 1.042969 -2.277344 C 1.164062 -2.339844 1.257812 -2.371094 1.328125 -2.371094 C 1.398438 -2.371094 1.492188 -2.339844 1.613281 -2.277344 Z "/>
</g>
<g id="glyph-0-4">
<path d="M 3.203125 -4.113281 C 3.203125 -4.652344 3.195312 -5.078125 3.175781 -5.390625 L 3.878906 -5.078125 L 3.59375 -4.84375 L 3.59375 -0.261719 C 3.59375 0.140625 3.375 0.425781 2.941406 0.597656 C 2.960938 0.390625 2.683594 0.171875 2.109375 -0.0507812 L 2.109375 -0.183594 C 2.492188 -0.113281 2.769531 -0.078125 2.941406 -0.078125 C 3.117188 -0.078125 3.203125 -0.199219 3.203125 -0.441406 L 3.203125 -4.113281 M 1.980469 -3.75 L 2.550781 -3.332031 C 2.414062 -3.265625 2.292969 -3.132812 2.1875 -2.941406 C 2.066406 -2.75 1.871094 -2.46875 1.601562 -2.097656 C 1.332031 -1.722656 0.972656 -1.335938 0.519531 -0.9375 L 0.441406 -1.015625 C 0.667969 -1.257812 0.894531 -1.554688 1.121094 -1.902344 C 1.34375 -2.25 1.53125 -2.589844 1.679688 -2.929688 C 1.828125 -3.269531 1.925781 -3.542969 1.980469 -3.75 M 4.324219 -3.621094 C 4.984375 -3.082031 5.433594 -2.683594 5.675781 -2.421875 C 5.921875 -2.160156 6.054688 -1.96875 6.082031 -1.847656 C 6.105469 -1.726562 6.121094 -1.640625 6.121094 -1.589844 C 6.121094 -1.433594 6.085938 -1.304688 6.015625 -1.210938 C 5.945312 -1.117188 5.894531 -1.066406 5.859375 -1.066406 C 5.789062 -1.066406 5.730469 -1.164062 5.675781 -1.355469 C 5.574219 -1.632812 5.402344 -1.957031 5.167969 -2.332031 C 4.933594 -2.703125 4.625 -3.109375 4.246094 -3.542969 Z "/>
</g>
<g id="glyph-0-5">
<path d="M 2.917969 -5.234375 L 2.96875 -5.3125 C 3.507812 -5.015625 3.800781 -4.8125 3.855469 -4.699219 C 3.90625 -4.585938 3.933594 -4.515625 3.933594 -4.480469 C 3.933594 -4.390625 3.898438 -4.300781 3.828125 -4.207031 C 3.757812 -4.109375 3.714844 -4.0625 3.699219 -4.0625 C 3.628906 -4.0625 3.566406 -4.140625 3.515625 -4.296875 C 3.429688 -4.539062 3.230469 -4.851562 2.917969 -5.234375 M 4.453125 -1.378906 C 4.453125 -0.511719 4.460938 0.113281 4.480469 0.496094 L 4.0625 0.652344 C 4.078125 0.0273438 4.089844 -0.652344 4.089844 -1.378906 L 3.203125 -1.378906 C 2.976562 -1.378906 2.769531 -1.355469 2.578125 -1.300781 L 2.34375 -1.535156 L 4.089844 -1.535156 L 4.089844 -2.628906 L 3.644531 -2.628906 C 3.421875 -2.628906 3.210938 -2.605469 3.019531 -2.550781 L 2.785156 -2.785156 L 4.089844 -2.785156 L 4.089844 -3.75 L 3.621094 -3.75 C 3.394531 -3.75 3.1875 -3.722656 2.996094 -3.671875 L 2.761719 -3.90625 L 4.453125 -3.90625 C 4.765625 -4.496094 4.972656 -5.015625 5.078125 -5.46875 L 5.625 -5.105469 C 5.453125 -5.015625 5.277344 -4.851562 5.105469 -4.609375 C 4.929688 -4.367188 4.765625 -4.132812 4.609375 -3.90625 L 5.363281 -3.90625 L 5.675781 -4.21875 L 6.144531 -3.75 L 4.453125 -3.75 L 4.453125 -2.785156 L 5.183594 -2.785156 L 5.496094 -3.097656 L 5.964844 -2.628906 L 4.453125 -2.628906 L 4.453125 -1.535156 L 5.496094 -1.535156 L 5.832031 -1.875 L 6.328125 -1.378906 L 4.453125 -1.378906 M 1.71875 -0.78125 C 1.71875 -0.539062 1.726562 -0.105469 1.746094 0.519531 L 1.328125 0.675781 C 1.34375 -0.347656 1.355469 -1.398438 1.355469 -2.472656 C 1.058594 -1.78125 0.710938 -1.207031 0.3125 -0.753906 L 0.234375 -0.808594 C 0.71875 -1.570312 1.09375 -2.550781 1.355469 -3.75 L 1.171875 -3.75 C 0.945312 -3.75 0.738281 -3.722656 0.546875 -3.671875 L 0.3125 -3.90625 L 1.355469 -3.90625 C 1.355469 -4.339844 1.34375 -4.859375 1.328125 -5.46875 L 1.925781 -5.15625 L 1.71875 -4.972656 L 1.71875 -3.90625 L 2.058594 -3.90625 L 2.34375 -4.191406 L 2.785156 -3.75 L 1.71875 -3.75 L 1.71875 -3.046875 C 2.046875 -2.890625 2.273438 -2.761719 2.394531 -2.65625 C 2.515625 -2.550781 2.578125 -2.449219 2.578125 -2.34375 C 2.578125 -2.273438 2.554688 -2.1875 2.511719 -2.082031 C 2.46875 -1.980469 2.429688 -1.925781 2.394531 -1.925781 C 2.34375 -1.925781 2.28125 -2.003906 2.214844 -2.160156 C 2.09375 -2.421875 1.925781 -2.664062 1.71875 -2.890625 Z "/>
</g>
<g id="glyph-0-6">
<path d="M 3.542969 -0.886719 C 3.542969 -0.261719 3.550781 0.21875 3.566406 0.546875 L 3.125 0.703125 C 3.140625 -0.0625 3.152344 -0.589844 3.152344 -0.886719 L 2.058594 -0.886719 L 1.824219 -0.832031 L 1.613281 -1.042969 L 3.152344 -1.042969 L 3.152344 -3.332031 C 2.492188 -1.980469 1.546875 -0.980469 0.3125 -0.339844 L 0.285156 -0.441406 C 1.433594 -1.222656 2.308594 -2.335938 2.917969 -3.777344 L 1.378906 -3.777344 C 1.15625 -3.777344 0.945312 -3.75 0.753906 -3.699219 L 0.519531 -3.933594 L 3.152344 -3.933594 C 3.152344 -4.402344 3.140625 -4.914062 3.125 -5.46875 L 3.800781 -5.15625 L 3.542969 -4.949219 L 3.542969 -3.933594 L 5.3125 -3.933594 L 5.675781 -4.296875 L 6.199219 -3.777344 L 3.800781 -3.777344 C 4.375 -2.335938 5.226562 -1.433594 6.355469 -1.066406 L 6.355469 -0.964844 C 6.023438 -0.945312 5.832031 -0.84375 5.78125 -0.652344 C 4.84375 -1.257812 4.140625 -2.300781 3.671875 -3.777344 L 3.542969 -3.777344 L 3.542969 -1.042969 L 4.324219 -1.042969 L 4.636719 -1.355469 L 5.105469 -0.886719 Z "/>
</g>
<g id="glyph-0-7">
<path d="M 0.46875 -4.765625 L 5.285156 -4.765625 L 5.675781 -5.15625 L 6.222656 -4.609375 L 3.386719 -4.609375 L 3.386719 -3.253906 C 4.425781 -2.941406 5.03125 -2.695312 5.195312 -2.511719 C 5.359375 -2.332031 5.441406 -2.171875 5.441406 -2.03125 C 5.441406 -1.980469 5.421875 -1.90625 5.378906 -1.808594 C 5.335938 -1.714844 5.296875 -1.667969 5.261719 -1.667969 C 5.191406 -1.667969 5.070312 -1.78125 4.894531 -2.003906 C 4.652344 -2.335938 4.148438 -2.707031 3.386719 -3.125 L 3.386719 -0.46875 C 3.386719 -0.105469 3.394531 0.199219 3.410156 0.441406 L 2.96875 0.625 C 2.984375 -0.015625 2.996094 -0.460938 2.996094 -0.703125 L 2.996094 -4.609375 L 1.328125 -4.609375 C 1.101562 -4.609375 0.894531 -4.582031 0.703125 -4.53125 Z "/>
</g>
<g id="glyph-0-8">
<path d="M 1.171875 -3.933594 L 1.171875 -2.265625 L 2.527344 -2.265625 L 2.527344 -3.933594 L 1.171875 -3.933594 M 1.171875 -2.109375 L 1.171875 -0.285156 L 2.527344 -0.285156 L 2.527344 -2.109375 L 1.171875 -2.109375 M 2.863281 -3.777344 C 2.863281 -1.746094 2.875 -0.417969 2.890625 0.207031 L 2.527344 0.417969 L 2.527344 -0.128906 L 1.171875 -0.128906 L 1.171875 0.3125 L 0.808594 0.519531 C 0.824219 -0.296875 0.832031 -1.105469 0.832031 -1.914062 C 0.832031 -2.722656 0.824219 -3.523438 0.808594 -4.324219 L 1.199219 -4.089844 L 1.457031 -4.089844 C 1.632812 -4.679688 1.726562 -5.128906 1.746094 -5.441406 L 2.316406 -5.128906 C 2.144531 -5.042969 1.910156 -4.695312 1.613281 -4.089844 L 2.472656 -4.089844 L 2.734375 -4.347656 L 3.125 -3.957031 L 2.863281 -3.777344 M 4.140625 -5.417969 L 4.714844 -5.078125 C 4.574219 -4.992188 4.359375 -4.636719 4.0625 -4.011719 L 5.46875 -4.011719 L 5.753906 -4.296875 L 6.144531 -3.90625 L 5.910156 -3.722656 C 5.875 -1.691406 5.828125 -0.542969 5.769531 -0.273438 C 5.707031 -0.00390625 5.621094 0.183594 5.507812 0.285156 C 5.394531 0.390625 5.21875 0.484375 4.972656 0.574219 C 4.886719 0.296875 4.601562 0.0859375 4.113281 -0.0507812 L 4.113281 -0.183594 C 4.546875 -0.09375 4.859375 -0.0507812 5.050781 -0.0507812 C 5.242188 -0.0507812 5.359375 -0.199219 5.402344 -0.496094 C 5.445312 -0.789062 5.484375 -1.910156 5.519531 -3.855469 L 4.011719 -3.855469 C 3.699219 -3.351562 3.367188 -2.925781 3.019531 -2.578125 L 2.941406 -2.628906 C 3.308594 -3.1875 3.578125 -3.679688 3.75 -4.113281 C 3.921875 -4.546875 4.054688 -4.984375 4.140625 -5.417969 M 3.671875 -2.863281 C 4.089844 -2.550781 4.332031 -2.320312 4.402344 -2.175781 C 4.46875 -2.027344 4.503906 -1.917969 4.503906 -1.847656 C 4.503906 -1.726562 4.46875 -1.625 4.402344 -1.535156 C 4.332031 -1.449219 4.28125 -1.40625 4.246094 -1.40625 C 4.175781 -1.40625 4.125 -1.527344 4.089844 -1.769531 C 4.019531 -2.117188 3.863281 -2.457031 3.621094 -2.785156 Z "/>
</g>
<g id="glyph-0-9">
<path d="M 4.246094 -5.078125 L 3.984375 -4.921875 C 3.863281 -4.644531 3.742188 -4.367188 3.621094 -4.089844 L 5.625 -4.089844 L 5.859375 -4.347656 L 6.222656 -4.011719 L 6.015625 -3.828125 C 5.980469 -1.832031 5.925781 -0.671875 5.847656 -0.351562 C 5.769531 -0.03125 5.652344 0.195312 5.496094 0.324219 C 5.339844 0.457031 5.148438 0.5625 4.921875 0.652344 C 4.851562 0.390625 4.53125 0.183594 3.957031 0.0273438 L 3.957031 -0.105469 C 4.496094 0 4.875 0.0390625 5.089844 0.0117188 C 5.308594 -0.0117188 5.445312 -0.277344 5.507812 -0.78125 C 5.570312 -1.285156 5.617188 -2.335938 5.652344 -3.933594 L 3.566406 -3.933594 C 3.253906 -3.359375 2.933594 -2.898438 2.605469 -2.550781 L 2.5 -2.605469 C 2.828125 -3.089844 3.089844 -3.59375 3.28125 -4.113281 C 3.472656 -4.636719 3.585938 -5.070312 3.621094 -5.417969 L 4.246094 -5.078125 M 3.644531 -3.308594 C 4.046875 -3.082031 4.300781 -2.894531 4.414062 -2.746094 C 4.527344 -2.601562 4.582031 -2.484375 4.582031 -2.394531 C 4.582031 -2.308594 4.542969 -2.214844 4.464844 -2.109375 C 4.386719 -2.003906 4.332031 -1.953125 4.296875 -1.953125 C 4.246094 -1.953125 4.191406 -2.039062 4.140625 -2.214844 C 4.070312 -2.472656 3.878906 -2.8125 3.566406 -3.230469 L 3.644531 -3.308594 M 5.183594 -1.824219 C 4.871094 -1.597656 4.480469 -1.335938 4.011719 -1.042969 C 3.523438 -0.730469 3.195312 -0.460938 3.019531 -0.234375 L 2.628906 -0.730469 C 2.875 -0.796875 3.199219 -0.929688 3.605469 -1.121094 C 4.015625 -1.3125 4.523438 -1.578125 5.128906 -1.925781 L 5.183594 -1.824219 M 1.769531 -1.144531 L 2.890625 -1.5625 L 2.941406 -1.433594 C 2.28125 -1.121094 1.761719 -0.863281 1.378906 -0.664062 C 1 -0.464844 0.765625 -0.304688 0.675781 -0.183594 L 0.285156 -0.703125 C 0.753906 -0.824219 1.128906 -0.9375 1.40625 -1.042969 L 1.40625 -3.28125 L 0.78125 -3.28125 L 0.546875 -3.230469 L 0.339844 -3.4375 L 1.40625 -3.4375 C 1.40625 -4.410156 1.398438 -5.0625 1.378906 -5.390625 L 2.003906 -5.078125 L 1.769531 -4.871094 L 1.769531 -3.4375 L 2.058594 -3.4375 L 2.34375 -3.722656 L 2.761719 -3.28125 L 1.769531 -3.28125 Z "/>
</g>
<g id="glyph-0-10">
<path d="M 1.589844 -0.675781 C 1.589844 -0.0703125 1.597656 0.339844 1.613281 0.546875 L 1.222656 0.675781 C 1.242188 0.0507812 1.25 -0.363281 1.25 -0.574219 L 1.25 -3.152344 C 0.9375 -2.648438 0.632812 -2.238281 0.339844 -1.925781 L 0.261719 -1.980469 C 0.589844 -2.484375 0.886719 -3.046875 1.144531 -3.671875 C 1.40625 -4.296875 1.605469 -4.878906 1.746094 -5.417969 L 2.292969 -5.078125 L 2.03125 -4.921875 C 1.753906 -4.28125 1.570312 -3.84375 1.484375 -3.621094 L 1.796875 -3.4375 L 1.589844 -3.28125 L 1.589844 -0.675781 M 2.996094 -3.359375 L 2.996094 -2.578125 L 5 -2.578125 L 5 -3.359375 L 2.996094 -3.359375 M 2.996094 -2.421875 L 2.996094 -1.640625 L 5 -1.640625 L 5 -2.421875 L 2.996094 -2.421875 M 2.996094 -1.484375 L 2.996094 -0.703125 L 5 -0.703125 L 5 -1.484375 L 2.996094 -1.484375 M 2.996094 -0.546875 L 2.996094 0.234375 L 5 0.234375 L 5 -0.546875 L 2.996094 -0.546875 M 3.699219 -4.425781 C 3.714844 -4.828125 3.714844 -5.164062 3.699219 -5.441406 L 4.296875 -5.15625 L 4.089844 -5 L 4.0625 -4.425781 L 5.234375 -4.425781 L 5.574219 -4.765625 L 6.066406 -4.269531 L 4.0625 -4.269531 L 4.035156 -3.515625 L 4.949219 -3.515625 L 5.183594 -3.777344 L 5.574219 -3.4375 L 5.339844 -3.28125 L 5.339844 0.234375 L 5.574219 0.234375 L 5.910156 -0.105469 L 6.40625 0.390625 L 2.550781 0.390625 C 2.328125 0.390625 2.117188 0.417969 1.925781 0.46875 L 1.691406 0.234375 L 2.65625 0.234375 L 2.65625 -2.65625 C 2.65625 -2.863281 2.648438 -3.21875 2.628906 -3.722656 L 2.996094 -3.515625 L 3.671875 -3.515625 L 3.699219 -4.269531 L 2.917969 -4.269531 C 2.691406 -4.269531 2.484375 -4.246094 2.292969 -4.191406 L 2.058594 -4.425781 Z "/>
</g>
<g id="glyph-0-11">
<path d="M 3.019531 -2.03125 L 3.019531 -0.183594 L 5.3125 -0.183594 L 5.3125 -2.03125 L 3.019531 -2.03125 M 2.628906 0.597656 C 2.648438 0.285156 2.65625 -0.226562 2.65625 -0.9375 C 2.65625 -1.648438 2.648438 -2.144531 2.628906 -2.421875 L 3.046875 -2.1875 L 3.957031 -2.1875 L 3.957031 -3.644531 L 2.96875 -3.644531 C 2.742188 -3.644531 2.535156 -3.621094 2.34375 -3.566406 L 2.109375 -3.800781 L 3.957031 -3.800781 C 3.957031 -4.601562 3.949219 -5.140625 3.933594 -5.417969 L 4.53125 -5.15625 L 4.324219 -4.921875 L 4.324219 -3.800781 L 5.519531 -3.800781 L 5.859375 -4.140625 L 6.355469 -3.644531 L 4.324219 -3.644531 L 4.324219 -2.1875 L 5.261719 -2.1875 L 5.519531 -2.449219 L 5.910156 -2.109375 L 5.675781 -1.953125 L 5.675781 -0.441406 C 5.675781 -0.183594 5.6875 0.0859375 5.703125 0.363281 L 5.3125 0.546875 L 5.3125 -0.0273438 L 3.019531 -0.0273438 L 3.019531 0.441406 L 2.628906 0.597656 M 1.5625 -3.515625 L 1.902344 -3.359375 L 1.746094 -3.175781 L 1.746094 -0.546875 C 1.746094 -0.234375 1.753906 0.121094 1.769531 0.519531 L 1.355469 0.730469 C 1.371094 0.242188 1.378906 -0.140625 1.378906 -0.417969 L 1.378906 -3.175781 C 1.050781 -2.707031 0.703125 -2.300781 0.339844 -1.953125 L 0.261719 -2.03125 C 0.660156 -2.5 0.988281 -3.007812 1.25 -3.554688 C 1.511719 -4.101562 1.746094 -4.6875 1.953125 -5.3125 L 2.5 -4.949219 L 2.238281 -4.792969 C 1.996094 -4.324219 1.769531 -3.898438 1.5625 -3.515625 Z "/>
</g>
<g id="glyph-0-12">
<path d="M 1.015625 -5.183594 L 1.042969 -5.261719 C 1.421875 -5.085938 1.6875 -4.9375 1.835938 -4.816406 C 1.984375 -4.695312 2.058594 -4.574219 2.058594 -4.453125 C 2.058594 -4.332031 2.027344 -4.246094 1.964844 -4.191406 C 1.90625 -4.140625 1.867188 -4.113281 1.847656 -4.113281 C 1.761719 -4.113281 1.683594 -4.21875 1.613281 -4.425781 C 1.492188 -4.6875 1.292969 -4.9375 1.015625 -5.183594 M 1.71875 -0.390625 L 2.734375 -1.277344 L 2.785156 -1.199219 C 2.179688 -0.417969 1.804688 0.105469 1.667969 0.363281 L 1.277344 -0.078125 C 1.34375 -0.183594 1.378906 -0.347656 1.378906 -0.574219 L 1.378906 -2.917969 L 0.703125 -2.917969 L 0.9375 -2.917969 C 0.832031 -2.917969 0.6875 -2.890625 0.496094 -2.839844 L 0.261719 -3.074219 L 1.328125 -3.074219 L 1.613281 -3.359375 L 1.980469 -2.996094 L 1.71875 -2.8125 L 1.71875 -0.390625 M 4.011719 -3.046875 C 4.011719 -4.210938 4 -4.964844 3.984375 -5.3125 L 4.609375 -5.027344 L 4.402344 -4.816406 L 4.402344 -3.046875 L 5.574219 -3.046875 L 5.910156 -3.386719 L 6.378906 -2.890625 L 4.402344 -2.890625 L 4.402344 -0.519531 C 4.402344 -0.171875 4.410156 0.148438 4.425781 0.441406 L 3.984375 0.625 C 4 0.0859375 4.011719 -0.320312 4.011719 -0.597656 L 4.011719 -2.890625 L 2.683594 -2.890625 L 3.074219 -2.890625 C 2.863281 -2.890625 2.664062 -2.863281 2.472656 -2.8125 L 2.238281 -3.046875 Z "/>
</g>
<g id="glyph-1-0">
</g>
<g id="glyph-1-1">
<path d="M 2.21875 -0.140625 C 2.074219 -0.0820312 1.941406 -0.03125 1.816406 0.0078125 C 1.691406 0.046875 1.535156 0.0703125 1.355469 0.0703125 C 1.085938 0.0703125 0.894531 0 0.785156 -0.136719 C 0.675781 -0.269531 0.621094 -0.460938 0.621094 -0.710938 L 0.621094 -2.882812 L 0.0429688 -2.882812 L 0.0429688 -3.195312 L 0.632812 -3.195312 L 0.632812 -4.195312 L 1.226562 -4.195312 L 1.226562 -3.195312 L 2.148438 -3.195312 L 2.148438 -2.882812 L 1.234375 -2.882812 L 1.234375 -1.089844 C 1.234375 -0.957031 1.238281 -0.84375 1.25 -0.753906 C 1.257812 -0.664062 1.28125 -0.585938 1.316406 -0.515625 C 1.351562 -0.453125 1.40625 -0.40625 1.472656 -0.375 C 1.542969 -0.339844 1.636719 -0.324219 1.753906 -0.324219 C 1.808594 -0.324219 1.886719 -0.332031 1.992188 -0.339844 C 2.097656 -0.351562 2.171875 -0.363281 2.21875 -0.378906 Z "/>
</g>
</g>
</defs>
<g fill="rgb(96.862745%, 85.098039%, 43.529412%)" fill-opacity="1">
<use xlink:href="#glyph-0-0" x="30" y="26.112305"/>
</g>
<g fill="rgb(96.862745%, 85.098039%, 43.529412%)" fill-opacity="1">
<use xlink:href="#glyph-1-0" x="37" y="26.112305"/>
<use xlink:href="#glyph-1-1" x="39" y="26.112305"/>
<use xlink:href="#glyph-1-0" x="41" y="26.112305"/>
</g>
<g fill="rgb(96.862745%, 85.098039%, 43.529412%)" fill-opacity="1">
<use xlink:href="#glyph-0-1" x="43" y="26.112305"/>
<use xlink:href="#glyph-0-2" x="50" y="26.112305"/>
<use xlink:href="#glyph-0-3" x="57" y="26.112305"/>
<use xlink:href="#glyph-0-4" x="64" y="26.112305"/>
<use xlink:href="#glyph-0-5" x="71" y="26.112305"/>
<use xlink:href="#glyph-0-6" x="78" y="26.112305"/>
<use xlink:href="#glyph-0-7" x="85" y="26.112305"/>
<use xlink:href="#glyph-0-8" x="92" y="26.112305"/>
<use xlink:href="#glyph-0-9" x="99" y="26.112305"/>
<use xlink:href="#glyph-0-10" x="106" y="26.112305"/>
<use xlink:href="#glyph-0-11" x="113" y="26.112305"/>
<use xlink:href="#glyph-0-12" x="120" y="26.112305"/>
</g>
</svg>
